<svg width="50" height="50" viewBox="0 0 50 50" fill="none" xmlns="http://www.w3.org/2000/svg">
<path fill-rule="evenodd" clip-rule="evenodd" d="M17.3248 10.7142C16.3999 12.2793 14.8289 13.4567 12.7291 14.1289C11.3806 15.4917 10.2794 17.0255 9.44364 18.6807C9.25879 19.2141 9.02002 19.7509 8.72988 20.2884C7.94319 22.3288 7.53493 24.5165 7.53493 26.7696C7.53493 34.1315 11.9208 40.632 18.8128 43.4515C19.2044 43.6081 19.4394 44.078 19.2044 44.4696C19.1261 44.7829 18.8128 45.0178 18.4996 45.0178C18.4212 45.0178 18.2646 45.0178 18.1863 44.9395C17.0528 44.4742 15.9811 43.9143 14.9786 43.2713C13.5181 44.3312 12.1307 44.8612 10.6677 44.8612C8.55306 44.8612 6.51677 43.6081 4.63712 41.1802C4.48048 41.0236 4.48048 40.7887 4.48048 40.632C4.48048 40.4754 4.63712 40.2404 4.79375 40.0838C6.41909 38.8742 8.24509 38.4309 10.0164 38.7185C9.66144 38.2568 9.32746 37.7798 9.01544 37.2888C8.94738 37.3222 8.87279 37.3426 8.78801 37.3426C8.2398 37.4209 7.69153 37.4993 7.22164 37.4993C3.54065 37.4993 1.26941 35.1497 0.564541 30.6855C0.564541 30.4506 0.564541 30.2939 0.721179 30.1373C0.877816 29.9806 1.03445 29.824 1.26941 29.824C3.24697 29.531 5.01905 29.9573 6.41748 30.9666C6.25627 30.2245 6.13726 29.4687 6.06243 28.702C3.97897 28.4393 2.40994 27.6647 1.42604 26.378C0.251256 24.89 -0.218656 22.8537 0.0946185 20.1908C0.172937 19.7992 0.486212 19.4076 0.956125 19.486C2.91409 19.7209 4.55879 20.5041 5.65525 21.9138C5.91444 22.2378 6.14347 22.5853 6.34096 22.9541C6.49517 22.1756 6.69628 21.4111 6.9424 20.6639C5.28038 19.546 4.29832 18.2822 3.93225 16.7447C3.46234 14.9434 4.01057 12.8288 5.42031 10.5576C5.65526 10.166 6.12517 10.0876 6.51677 10.3226C8.16146 11.3407 9.33624 12.8288 9.72784 14.5518C9.77256 14.7382 9.80877 14.926 9.83661 15.115C10.2288 14.5907 10.6485 14.0843 11.0946 13.5974C10.5984 11.5567 10.7693 9.81451 11.6075 8.44297C12.5473 6.79827 14.3486 5.70181 17.0115 4.99694C17.4031 4.91862 17.873 5.15358 17.9513 5.54517C18.4212 7.42482 18.1863 9.22615 17.3248 10.7142ZM15.9933 9.93102C15.3357 11.1002 14.269 11.9284 12.7933 12.4794C12.6828 12.4406 12.5666 12.4285 12.4525 12.4434C12.3247 11.1796 12.4868 10.1333 12.9389 9.30447C13.6438 8.20801 14.8186 7.3465 16.6199 6.79827C16.7765 7.97305 16.5416 9.06952 15.9933 9.93102ZM36.9828 9.30444C37.5209 10.1501 37.6818 11.2222 37.5393 12.5207C37.4706 12.5125 37.4011 12.5141 37.3327 12.5254C35.7915 11.975 34.6829 11.1363 34.0067 10.0093C33.4584 9.06949 33.2235 7.97302 33.3801 6.79824C35.1031 7.34647 36.3562 8.20798 36.9828 9.30444ZM32.6752 10.7925C33.6001 12.3576 35.1711 13.5349 37.2709 14.2072C40.6397 17.6117 42.4651 22.0837 42.4651 26.8479C42.4651 34.2098 38.0009 40.7103 31.1872 43.5298C30.7956 43.6864 30.639 44.1563 30.7956 44.5479C30.8739 44.8612 31.1872 45.0178 31.5005 45.0178C31.5242 45.0178 31.5551 45.0106 31.5888 45.0028C31.6665 44.9847 31.7591 44.9632 31.8137 45.0178C32.9689 44.5436 34.0599 43.9712 35.0788 43.3126C36.5227 44.345 37.9644 44.8612 39.3323 44.8612C41.4469 44.8612 43.4832 43.6081 45.3629 41.1802C45.5195 41.0236 45.5195 40.867 45.5195 40.632C45.5195 40.3971 45.3629 40.2404 45.2062 40.0838C43.6017 38.8897 41.8016 38.4423 40.0516 38.7078C40.3959 38.2547 40.7201 37.787 41.0232 37.306C41.0807 37.3291 41.143 37.3426 41.212 37.3426C41.7602 37.4209 42.3085 37.4993 42.7784 37.4993C46.4593 37.4993 48.7306 35.1497 49.4355 30.6855C49.4355 30.5289 49.4355 30.2939 49.2788 30.1373C49.1222 29.9806 48.9655 29.824 48.7306 29.824C46.7624 29.5324 44.9978 29.9533 43.6024 30.9523C43.7591 30.214 43.874 29.4623 43.9453 28.7C45.9508 28.4354 47.5171 27.6614 48.574 26.378C49.7487 24.9683 50.2187 22.8537 49.9054 20.1908C49.8271 19.7209 49.4355 19.4076 49.0439 19.486C47.0859 19.7209 45.4412 20.5041 44.3447 21.9138C44.0785 22.2466 43.8477 22.6041 43.6514 22.9841C43.489 22.1721 43.2753 21.3739 43.0115 20.5931C44.6811 19.5186 45.7716 18.1608 46.1461 16.5881C46.5377 14.7868 46.0677 12.6722 44.658 10.4009C44.4231 10.0877 43.9531 9.93103 43.5616 10.166C41.8385 11.1841 40.7421 12.6722 40.3505 14.3952C40.283 14.6763 40.2349 14.9606 40.2057 15.2476C39.8026 14.7057 39.3689 14.1811 38.9054 13.6757C39.4016 11.635 39.2307 9.89279 38.3925 8.52126C37.4527 6.87656 35.6514 5.7801 32.9885 5.07523C32.5969 4.91859 32.127 5.23187 32.0487 5.62346C31.5788 7.50311 31.7354 9.30444 32.6752 10.7925ZM41.9169 14.7868C42.1518 13.7687 42.7784 12.8288 43.7182 12.0456C44.5797 13.6903 44.893 15.1001 44.658 16.3532C44.4231 17.3713 43.7182 18.3111 42.6217 19.0943C41.8385 17.528 41.6036 16.1182 41.9169 14.7868ZM42.3084 35.9329C45.2846 36.0895 47.0076 34.6015 47.7908 31.3121C45.0496 31.2337 43.0133 32.8784 42.3084 35.9329ZM36.5129 42.4333C39.0191 43.9997 41.2903 43.5298 43.5615 40.9453C41.212 39.5356 38.6275 40.0838 36.5129 42.4333ZM48.4956 21.209C47.3209 21.4439 46.3027 22.0705 45.5978 22.932C44.7363 23.9501 44.3447 25.3599 44.3447 27.0829C45.6762 26.8479 46.6943 26.2997 47.3992 25.4382C48.1824 24.42 48.574 23.0103 48.4956 21.209ZM2.20924 31.3121C2.9141 34.6798 4.71544 36.1678 7.69155 35.9329C6.98668 32.8784 4.95039 31.2337 2.20924 31.3121ZM6.43845 40.867C8.63137 43.4515 10.9026 43.9214 13.4871 42.355C11.3725 40.0838 8.78801 39.5356 6.43845 40.867ZM1.50436 21.209C1.42604 23.0103 1.81763 24.42 2.60082 25.4382C3.30569 26.2997 4.24551 26.8479 5.65525 27.0829C5.65525 25.4382 5.26366 24.0284 4.40215 22.932C3.69728 22.0705 2.67914 21.4439 1.50436 21.209ZM5.42031 16.3531C5.10703 15.1 5.42031 13.6903 6.28181 12.0456C7.22164 12.8288 7.84819 13.7686 8.16146 14.7868C8.47474 16.1182 8.23978 17.6062 7.45659 19.0943C6.36013 18.3111 5.65526 17.3713 5.42031 16.3531ZM14.427 38.8307C14.5836 38.9873 14.8186 39.0656 14.9752 39.0656C15.2102 39.0656 15.3668 38.9873 15.6018 38.7524C15.8367 38.4391 15.8367 37.9692 15.5234 37.6559C12.5473 34.9931 10.9026 31.1554 10.9026 27.2395C10.9026 21.9138 13.8787 17.1364 18.5779 14.7085C18.9695 14.5519 19.1261 14.0819 18.8911 13.6904C18.7345 13.2988 18.2646 13.1421 17.873 13.3771C12.6256 16.0399 9.33625 21.4439 9.33625 27.3178C9.33625 31.6254 11.2159 35.8546 14.427 38.8307ZM35.0248 39.0656C34.7898 39.0656 34.6332 38.9873 34.4766 38.8306C34.1633 38.5174 34.2416 38.0475 34.5549 37.7342C37.4527 35.0713 39.1757 31.312 39.1757 27.3178C39.1757 21.9138 36.1213 17.058 31.2655 14.6301C30.8739 14.4735 30.7173 14.0036 30.8739 13.612C31.0305 13.2204 31.5004 13.0638 31.892 13.2204C37.296 15.8832 40.6637 21.2872 40.6637 27.3178C40.6637 31.7036 38.7841 35.8545 35.573 38.8306C35.4164 38.9873 35.1814 39.0656 35.0248 39.0656ZM19.2044 35.7762C19.361 35.8545 19.5177 35.9329 19.6743 35.9329C19.7526 35.9329 19.9093 35.9329 19.9876 35.8545L25 33.505L30.0124 35.8545C30.2473 36.0112 30.5606 36.0112 30.7956 35.7762C31.0305 35.5413 31.1872 35.3063 31.1088 34.993L30.169 29.6674L34.1633 25.4381C34.3199 25.2815 34.3982 24.9682 34.3199 24.655C34.2416 24.42 34.0066 24.185 33.6934 24.185L28.2111 23.6368L25.7049 18.3895C25.5482 18.0762 25.3133 17.9195 25 17.9195C24.6867 17.9195 24.4518 18.0762 24.2951 18.3895L21.7889 23.6368L16.3066 24.185C16.0716 24.185 15.7584 24.3417 15.68 24.655C15.6017 24.8899 15.6017 25.2032 15.8367 25.4381L19.8309 29.6674L18.8911 34.993C18.8911 35.3063 18.9694 35.6196 19.2044 35.7762ZM21.2407 28.9625L18.0296 25.5948L22.4155 25.1249C22.6504 25.0465 22.9637 24.8899 23.042 24.655L25 20.5041L26.8796 24.7333C26.958 24.9682 27.2712 25.2032 27.5062 25.2032L31.892 25.6731L28.681 29.0408C28.446 29.2758 28.3677 29.5107 28.446 29.7457L29.2292 33.8966L25.3133 32.0169C25.0783 31.9386 24.8433 31.9386 24.6084 32.0169L20.6925 33.8966L21.4756 29.6674C21.4756 29.4324 21.3973 29.1191 21.2407 28.9625Z" fill="#0067E7"/>
</svg>
