<svg width="50" height="50" viewBox="0 0 50 50" fill="none" xmlns="http://www.w3.org/2000/svg">
<path fill-rule="evenodd" clip-rule="evenodd" d="M36.6667 10.4166V6.24992H13.3333V10.4166H36.6667ZM11.6667 10.8582V4.58325H38.3333V10.8034L46.6667 17.2499V18.7499V20.4166V24.5833C46.6667 26.6596 45.2015 28.5339 43.3333 29.2619V43.7499H45.8333V45.4166H43.3333H20H6.66667H4.16667V43.7499H6.66667V29.2524C4.79849 28.5052 3.33333 26.5947 3.33333 24.5833V20.4166V18.7499V17.1666L11.6667 10.8582ZM37.5 27.2499C38.4167 28.5833 40 29.5833 41.6667 29.5833V43.7499H20V28.2401C20.3155 27.9481 20.5967 27.6157 20.8333 27.2499C21.75 28.5833 23.3333 29.5833 25 29.5833C26.6667 29.5833 28.25 28.6666 29.1667 27.2499C30.0833 28.5833 31.6667 29.5833 33.3333 29.5833C35 29.5833 36.5833 28.6666 37.5 27.2499ZM16.6667 29.5833C17.24 29.5833 17.8035 29.4748 18.3333 29.2748V43.7499H8.33333V29.5833C10 29.5833 11.5833 28.6666 12.5 27.2499C13.4167 28.5833 15 29.5833 16.6667 29.5833ZM12.75 12.0833L5 17.9999V18.7499H11.6667V17.6666L15.8333 12.6666V12.0833H12.75ZM17.5 12.0833V13.2499L13.3333 18.2499V18.7499H20V17.8333L21.6667 12.8333V12.0833H17.5ZM23.3333 12.0833V13.0833L21.6667 18.0833V18.7499H28.3333V18.0833L26.6667 13.0833V12.0833H23.3333ZM28.3333 12.0833V12.8333L30 17.8333V18.7499H36.6667V18.2499L32.5 13.2499V12.0833H28.3333ZM34.1667 12.0833V12.6666L38.3333 17.6666V18.7499H45V17.9999L37.25 12.0833H34.1667ZM45 20.4166H5V24.5833C5 26.3333 6.58333 27.9166 8.33333 27.9166C10.0833 27.9166 11.6667 26.3333 11.6667 24.5833V22.9166H13.3333V24.5833C13.3333 26.3333 14.9167 27.9166 16.6667 27.9166C18.4167 27.9166 20 26.3333 20 24.5833V22.9166H21.6667V24.5833C21.6667 26.3333 23.25 27.9166 25 27.9166C26.75 27.9166 28.3333 26.3333 28.3333 24.5833V22.9166H30V24.5833C30 26.3333 31.5833 27.9166 33.3333 27.9166C35.0833 27.9166 36.6667 26.3333 36.6667 24.5833V22.9166H38.3333V24.5833C38.3333 26.3333 39.9167 27.9166 41.6667 27.9166C43.4167 27.9166 45 26.3333 45 24.5833V20.4166ZM32.2116 41.1495L38.988 34.3731L40.1665 35.5516L33.3901 42.328L32.2116 41.1495ZM36.2118 41.1542L38.9813 38.3847L40.1598 39.5632L37.3903 42.3327L36.2118 41.1542ZM15 34.5833V37.9166H16.6667V34.5833H15ZM2.5 43.7499H0V45.4166H2.5V43.7499ZM50 43.7499H47.5V45.4166H50V43.7499Z" fill="#0067E7"/>
</svg>
