<svg width="50" height="50" viewBox="0 0 50 50" fill="none" xmlns="http://www.w3.org/2000/svg">
<path d="M46 37H44V35H46C46.6 35 47 34.5 47 34V27.2C47 26.4 46.7 26 46 26H44.4L40.7 19.4C40.6 19.2 40.3 19 39.9 19H32V17H39.9C40.9 17 41.8 17.5 42.4 18.3L45.6 24H46C47.8 24 49 25.3 49 27.2V34C49 35.7 47.7 37 46 37Z" fill="#0067E7"/>
<path d="M33 37H16V35H31V11H18V9H33V37Z" fill="#0067E7"/>
<path d="M8 35H3V37H8V35Z" fill="#0067E7"/>
<path d="M40 41C37.2 41 35 38.8 35 36C35 33.2 37.2 31 40 31C42.8 31 45 33.2 45 36C45 38.8 42.8 41 40 41ZM40 33C38.3 33 37 34.3 37 36C37 37.7 38.3 39 40 39C41.7 39 43 37.7 43 36C43 34.3 41.7 33 40 33Z" fill="#0067E7"/>
<path d="M12 41C9.2 41 7 38.8 7 36C7 33.2 9.2 31 12 31C14.8 31 17 33.2 17 36C17 38.8 14.8 41 12 41ZM12 33C10.3 33 9 34.3 9 36C9 37.7 10.3 39 12 39C13.7 39 15 37.7 15 36C15 34.3 13.7 33 12 33Z" fill="#0067E7"/>
<path d="M36 35H32V37H36V35Z" fill="#0067E7"/>
<path d="M41.2 27H34V25H40.8L42.8 24H45V26H43.2L41.2 27Z" fill="#0067E7"/>
<path d="M18 24H1V26H18V24Z" fill="#0067E7"/>
<path d="M27 14H4V16H27V14Z" fill="#0067E7"/>
<path d="M25 19H10V21H25V19Z" fill="#0067E7"/>
<path d="M8 19H6V21H8V19Z" fill="#0067E7"/>
<path d="M16 9H14V11H16V9Z" fill="#0067E7"/>
</svg>
