<svg width="22" height="22" viewBox="0 0 22 22" fill="none" xmlns="http://www.w3.org/2000/svg">
<g id="wallet 1">
<path id="Vector" d="M19.2508 6.87498V16.775C19.2508 17.99 18.2658 18.975 17.0508 18.975H5.50078C4.28575 18.975 3.30078 17.99 3.30078 16.775V5.22498" stroke="#3A3A3A" stroke-linecap="round" stroke-linejoin="round"/>
<path id="Vector_2" d="M11.0004 12.1C11.0004 12.4038 10.7541 12.65 10.4504 12.65C10.1467 12.65 9.90039 12.4038 9.90039 12.1C9.90039 11.7963 10.1467 11.55 10.4504 11.55C10.7541 11.55 11.0004 11.7963 11.0004 12.1Z" stroke="#3A3A3A" stroke-linecap="round" stroke-linejoin="round"/>
<path id="Vector_3" d="M17.0508 6.87502H19.2508M17.0508 6.87502H5.22578C4.16263 6.87502 3.30078 6.01317 3.30078 4.95002C3.30078 3.88687 4.16263 3.02502 5.22578 3.02502H14.8508C16.0658 3.02502 17.0508 4.01 17.0508 5.22502V6.87502Z" stroke="#3A3A3A" stroke-linecap="round" stroke-linejoin="round"/>
</g>
</svg>
