<svg width="24.000000" height="24.000000" viewBox="0 0 24 24" fill="none" xmlns="http://www.w3.org/2000/svg" xmlns:xlink="http://www.w3.org/1999/xlink">
	<desc>
			Created with Pixso.
	</desc>
	<defs>
		<clipPath id="clip435_6700">
			<rect id="icon_shop_cart_small" rx="-0.500000" width="23.000000" height="23.000000" transform="translate(0.500000 0.500000)" fill="white" fill-opacity="0"/>
		</clipPath>
	</defs>
	<rect id="icon_shop_cart_small" rx="-0.500000" width="23.000000" height="23.000000" transform="translate(0.500000 0.500000)" fill="#FFFFFF" fill-opacity="0"/>
	<g clip-path="url(#clip435_6700)">
		<path id="Vector" d="M1.19 1.19C0.88 1.19 0.57 1.32 0.35 1.55C0.12 1.77 0 2.08 0 2.39C0 2.71 0.12 3.02 0.35 3.24C0.57 3.47 0.88 3.59 1.19 3.59L2.64 3.59L5 13.99C5.18 14.79 5.63 15.5 6.26 16.01C6.9 16.52 7.69 16.79 8.51 16.79L17.88 16.79C18.7 16.79 19.49 16.52 20.13 16.01C20.76 15.51 21.21 14.8 21.39 14.01L22.76 8.07C22.8 7.9 22.8 7.73 22.77 7.57C22.74 7.41 22.68 7.25 22.58 7.12C22.49 6.98 22.37 6.86 22.23 6.78C22.08 6.69 21.93 6.63 21.76 6.61L9.16 4.81C8.85 4.76 8.53 4.85 8.28 5.04C8.02 5.23 7.86 5.51 7.81 5.83C7.77 6.14 7.85 6.46 8.04 6.71C8.23 6.97 8.51 7.14 8.83 7.18L20.13 8.8L19.05 13.47C18.99 13.73 18.84 13.97 18.63 14.13C18.42 14.3 18.16 14.39 17.88 14.39L8.51 14.39C8.24 14.39 7.97 14.3 7.76 14.13C7.55 13.96 7.4 13.73 7.34 13.46L4.98 3.06C4.86 2.53 4.56 2.06 4.13 1.72C3.71 1.38 3.18 1.19 2.64 1.19L1.19 1.19ZM6 21C6 20.52 6.18 20.06 6.52 19.72C6.86 19.38 7.32 19.2 7.8 19.2C8.27 19.2 8.73 19.38 9.07 19.72C9.41 20.06 9.59 20.52 9.59 21C9.59 21.47 9.41 21.93 9.07 22.27C8.73 22.61 8.27 22.8 7.8 22.8C7.32 22.8 6.86 22.61 6.52 22.27C6.18 21.93 6 21.47 6 21ZM16.8 21C16.8 20.52 16.99 20.06 17.32 19.72C17.66 19.38 18.12 19.2 18.59 19.2C19.07 19.2 19.53 19.38 19.87 19.72C20.21 20.06 20.4 20.52 20.4 21C20.4 21.47 20.21 21.93 19.87 22.27C19.53 22.61 19.07 22.8 18.59 22.8C18.12 22.8 17.66 22.61 17.32 22.27C16.99 21.93 16.8 21.47 16.8 21Z" fill="#FFFFFF" fill-opacity="1.000000" fill-rule="nonzero"/>
	</g>
</svg>
