<svg width="18" height="22" viewBox="0 0 18 22" fill="none" xmlns="http://www.w3.org/2000/svg">
<g id="&#208;&#161;&#209;&#135;&#208;&#181;&#209;&#130;&#208;&#176;">
<path id="Vector" d="M15.4533 2.89636H14.4015V2.14958C14.4015 1.84469 14.2742 1.55229 14.0475 1.3367C13.8208 1.12112 13.5133 1 13.1927 1H4.80726C4.48666 1 4.1792 1.12112 3.9525 1.3367C3.72581 1.55229 3.59845 1.84469 3.59845 2.14958V2.89636H2.5467C2.13687 2.89755 1.7442 3.05291 1.4544 3.3285C1.16461 3.60409 1.00126 3.97753 1 4.36728V19.5291C1.00126 19.9188 1.16461 20.2923 1.4544 20.5679C1.7442 20.8435 2.13687 20.9988 2.5467 21H15.4533C15.8631 20.9988 16.2558 20.8435 16.5456 20.5679C16.8354 20.2923 16.9987 19.9188 17 19.5291V4.36728C16.9987 3.97753 16.8354 3.60409 16.5456 3.3285C16.2558 3.05291 15.8631 2.89755 15.4533 2.89636ZM4.55027 2.14958C4.55027 2.08476 4.57734 2.0226 4.62554 1.97676C4.67373 1.93093 4.7391 1.90518 4.80726 1.90518H13.1927C13.2609 1.90518 13.3263 1.93093 13.3745 1.97676C13.4227 2.0226 13.4497 2.08476 13.4497 2.14958V3.50735C13.4497 3.57217 13.4227 3.63434 13.3745 3.68017C13.3263 3.726 13.2609 3.75175 13.1927 3.75175H4.80726C4.7391 3.75175 4.67373 3.726 4.62554 3.68017C4.57734 3.63434 4.55027 3.57217 4.55027 3.50735V2.14958ZM16.0482 19.5291C16.0482 19.6791 15.9855 19.823 15.8739 19.9291C15.7624 20.0352 15.6111 20.0948 15.4533 20.0948H2.5467C2.38893 20.0948 2.23761 20.0352 2.12605 19.9291C2.01449 19.823 1.95181 19.6791 1.95181 19.5291V4.36728C1.95181 4.21723 2.01449 4.07334 2.12605 3.96724C2.23761 3.86114 2.38893 3.80154 2.5467 3.80154H3.63653C3.70128 4.05045 3.85168 4.27163 4.06381 4.42991C4.27594 4.58818 4.53763 4.67447 4.80726 4.67504H13.1927C13.4624 4.67447 13.7241 4.58818 13.9362 4.42991C14.1483 4.27163 14.2987 4.05045 14.3635 3.80154H15.4533C15.6111 3.80154 15.7624 3.86114 15.8739 3.96724C15.9855 4.07334 16.0482 4.21723 16.0482 4.36728V19.5291Z" fill="#3A3A3A" stroke="#3A3A3A" stroke-width="0.2"/>
<path id="Vector_2" d="M12.8053 8.4353H5.19075C5.06453 8.4353 4.94348 8.48299 4.85423 8.56786C4.76498 8.65274 4.71484 8.76786 4.71484 8.88789C4.71484 9.00793 4.76498 9.12305 4.85423 9.20792C4.94348 9.2928 5.06453 9.34048 5.19075 9.34048H12.8053C12.9315 9.34048 13.0525 9.2928 13.1418 9.20792C13.231 9.12305 13.2812 9.00793 13.2812 8.88789C13.2812 8.76786 13.231 8.65274 13.1418 8.56786C13.0525 8.48299 12.9315 8.4353 12.8053 8.4353Z" fill="#3A3A3A" stroke="#3A3A3A" stroke-width="0.2"/>
<path id="Vector_3" d="M12.8053 10.7441H5.19075C5.06453 10.7441 4.94348 10.7918 4.85423 10.8767C4.76498 10.9616 4.71484 11.0767 4.71484 11.1967C4.71484 11.3168 4.76498 11.4319 4.85423 11.5168C4.94348 11.6016 5.06453 11.6493 5.19075 11.6493H12.8053C12.9315 11.6493 13.0525 11.6016 13.1418 11.5168C13.231 11.4319 13.2812 11.3168 13.2812 11.1967C13.2812 11.0767 13.231 10.9616 13.1418 10.8767C13.0525 10.7918 12.9315 10.7441 12.8053 10.7441Z" fill="#3A3A3A" stroke="#3A3A3A" stroke-width="0.2"/>
<path id="Vector_4" d="M12.8053 13.0527H5.19075C5.06453 13.0527 4.94348 13.1004 4.85423 13.1853C4.76498 13.2702 4.71484 13.3853 4.71484 13.5053C4.71484 13.6254 4.76498 13.7405 4.85423 13.8254C4.94348 13.9102 5.06453 13.9579 5.19075 13.9579H12.8053C12.9315 13.9579 13.0525 13.9102 13.1418 13.8254C13.231 13.7405 13.2812 13.6254 13.2812 13.5053C13.2812 13.3853 13.231 13.2702 13.1418 13.1853C13.0525 13.1004 12.9315 13.0527 12.8053 13.0527Z" fill="#3A3A3A" stroke="#3A3A3A" stroke-width="0.2"/>
<path id="Vector_5" d="M12.8053 15.3561H5.19075C5.06453 15.3561 4.94348 15.4038 4.85423 15.4886C4.76498 15.5735 4.71484 15.6886 4.71484 15.8087C4.71484 15.9287 4.76498 16.0438 4.85423 16.1287C4.94348 16.2136 5.06453 16.2613 5.19075 16.2613H12.8053C12.9315 16.2613 13.0525 16.2136 13.1418 16.1287C13.231 16.0438 13.2812 15.9287 13.2812 15.8087C13.2812 15.6886 13.231 15.5735 13.1418 15.4886C13.0525 15.4038 12.9315 15.3561 12.8053 15.3561Z" fill="#3A3A3A" stroke="#3A3A3A" stroke-width="0.2"/>
</g>
</svg>
