<svg width="25" height="24" viewBox="0 0 25 24" fill="none" xmlns="http://www.w3.org/2000/svg">
<path d="M10.0555 18.1111C9.57204 18.1111 9.09943 18.2545 8.69745 18.5231C8.29546 18.7917 7.98216 19.1734 7.79714 19.6201C7.61213 20.0668 7.56372 20.5583 7.65804 21.0324C7.75236 21.5066 7.98517 21.9422 8.32703 22.284C8.66889 22.6259 9.10444 22.8587 9.57862 22.953C10.0528 23.0473 10.5443 22.9989 10.9909 22.8139C11.4376 22.6289 11.8194 22.3156 12.088 21.9136C12.3566 21.5116 12.4999 21.039 12.4999 20.5556C12.4993 19.9074 12.2415 19.2861 11.7833 18.8278C11.325 18.3695 10.7036 18.1118 10.0555 18.1111ZM10.0555 21.7778C9.81377 21.7778 9.57747 21.7061 9.37647 21.5718C9.17548 21.4375 9.01883 21.2466 8.92632 21.0233C8.83381 20.7999 8.80961 20.5542 8.85677 20.3171C8.90393 20.08 9.02033 19.8622 9.19126 19.6913C9.36219 19.5204 9.57997 19.404 9.81706 19.3568C10.0541 19.3097 10.2999 19.3339 10.5232 19.4264C10.7466 19.5189 10.9374 19.6755 11.0717 19.8765C11.206 20.0775 11.2777 20.3138 11.2777 20.5556C11.2774 20.8796 11.1485 21.1903 10.9194 21.4194C10.6902 21.6486 10.3796 21.7775 10.0555 21.7778ZM17.3888 18.1111C16.9053 18.1111 16.4327 18.2545 16.0307 18.5231C15.6287 18.7917 15.3154 19.1734 15.1304 19.6201C14.9454 20.0668 14.897 20.5583 14.9913 21.0324C15.0856 21.5066 15.3185 21.9422 15.6603 22.284C16.0022 22.6259 16.4377 22.8587 16.9119 22.953C17.3861 23.0473 17.8776 22.9989 18.3242 22.8139C18.7709 22.6289 19.1527 22.3156 19.4213 21.9136C19.6899 21.5116 19.8332 21.039 19.8332 20.5556C19.8326 19.9074 19.5748 19.2861 19.1165 18.8278C18.6583 18.3695 18.0369 18.1118 17.3888 18.1111ZM17.3888 21.7778C17.1471 21.7778 16.9108 21.7061 16.7098 21.5718C16.5088 21.4375 16.3521 21.2466 16.2596 21.0233C16.1671 20.7999 16.1429 20.5542 16.1901 20.3171C16.2372 20.08 16.3536 19.8622 16.5246 19.6913C16.6955 19.5204 16.9133 19.404 17.1503 19.3568C17.3874 19.3097 17.6332 19.3339 17.8565 19.4264C18.0798 19.5189 18.2707 19.6755 18.405 19.8765C18.5393 20.0775 18.611 20.3138 18.611 20.5556C18.6107 20.8796 18.4818 21.1903 18.2527 21.4194C18.0235 21.6486 17.7128 21.7775 17.3888 21.7778ZM23.066 5.31506C22.8938 5.11153 22.6792 4.94805 22.4373 4.83606C22.1954 4.72406 21.9319 4.66626 21.6653 4.66667H5.68425L5.32859 2.53206C5.25841 2.10335 5.03779 1.71366 4.7063 1.4329C4.3748 1.15214 3.95412 0.998662 3.51971 1.00001H2.11111C1.94903 1.00001 1.79359 1.06439 1.67899 1.179C1.56438 1.2936 1.5 1.44904 1.5 1.61112C1.5 1.7732 1.56438 1.92863 1.67899 2.04324C1.79359 2.15785 1.94903 2.22223 2.11111 2.22223H3.52032C3.66511 2.2218 3.8053 2.273 3.91574 2.36664C4.02617 2.46027 4.09961 2.59021 4.12287 2.73312L4.56409 5.37862L6.05703 14.3357C6.17408 15.05 6.5417 15.6993 7.094 16.1671C7.6463 16.635 8.34718 16.8909 9.07101 16.8889H19.205C19.9288 16.8906 20.6295 16.6347 21.1818 16.1668C21.734 15.699 22.1017 15.0499 22.219 14.3357L23.4748 6.80128C23.5188 6.53868 23.505 6.26963 23.4343 6.01293C23.3636 5.75622 23.2383 5.51806 23.066 5.31506ZM21.0139 14.1346C20.9435 14.5632 20.7228 14.9528 20.3913 15.2335C20.0599 15.5142 19.6393 15.6678 19.205 15.6667H9.07101C8.63659 15.668 8.21591 15.5145 7.88442 15.2338C7.55292 14.953 7.3323 14.5633 7.26213 14.1346L5.88897 5.8889H21.6665C21.7553 5.88885 21.843 5.90814 21.9235 5.94542C22.0041 5.9827 22.0756 6.03708 22.133 6.10478C22.1904 6.17248 22.2323 6.25187 22.256 6.33743C22.2796 6.42299 22.2843 6.51267 22.2697 6.60023L21.0139 14.1346Z" fill="white"/>
</svg>
