<svg width="24" height="24" viewBox="0 0 24 24" fill="none" xmlns="http://www.w3.org/2000/svg">
<path d="M11.0834 9.25C11.0834 10.2582 10.2579 11.0834 9.25 11.0834H2.83343C1.82528 11.0834 1 10.2582 1 9.25V2.83343C1 1.82528 1.82528 1 2.83343 1H9.25C10.2579 1 11.0834 1.82528 11.0834 2.83343V9.25ZM11.0834 21.1666C11.0834 22.1747 10.2579 23 9.25 23H2.83343C1.82528 23 1 22.1747 1 21.1666V14.75C1 13.7421 1.82528 12.9169 2.83343 12.9169H9.25C10.2579 12.9169 11.0834 13.7421 11.0834 14.75V21.1666ZM12.9166 1H17.5V2.83343H12.9166V1ZM12.9166 8.33343H19.3334V10.1669H12.9166V8.33343ZM12.9166 4.66658H23V6.5H12.9166V4.66658ZM12.9166 12.9169H23V14.75H12.9166V12.9169ZM12.9166 20.25H19.3334V22.0834H12.9166V20.25ZM12.9166 16.5834H17.5V18.4166H12.9166V16.5834Z" fill="#2B53BE"/>
</svg>
