<svg width="24.000000" height="24.000000" viewBox="0 0 24 24" fill="none" xmlns="http://www.w3.org/2000/svg" xmlns:xlink="http://www.w3.org/1999/xlink">
	<desc>
			Created with Pixso.
	</desc>
	<defs>
		<clipPath id="clip3_9866">
			<rect id="catalog" rx="-0.500000" width="23.000000" height="23.000000" transform="translate(0.500000 0.500000)" fill="white" fill-opacity="0"/>
		</clipPath>
	</defs>
	<g clip-path="url(#clip3_9866)">
		<path id="Vector" d="M11.08 9.25C11.08 10.25 10.25 11.08 9.25 11.08L2.83 11.08C1.82 11.08 1 10.25 1 9.25L1 2.83C1 1.82 1.82 1 2.83 1L9.25 1C10.25 1 11.08 1.82 11.08 2.83L11.08 9.25ZM11.08 21.16C11.08 22.17 10.25 23 9.25 23L2.83 23C1.82 23 1 22.17 1 21.16L1 14.75C1 13.74 1.82 12.91 2.83 12.91L9.25 12.91C10.25 12.91 11.08 13.74 11.08 14.75L11.08 21.16ZM12.91 1L17.5 1L17.5 2.83L12.91 2.83L12.91 1ZM12.91 8.33L19.33 8.33L19.33 10.16L12.91 10.16L12.91 8.33ZM12.91 4.66L23 4.66L23 6.5L12.91 6.5L12.91 4.66ZM12.91 12.91L23 12.91L23 14.75L12.91 14.75L12.91 12.91ZM12.91 20.25L19.33 20.25L19.33 22.08L12.91 22.08L12.91 20.25ZM12.91 16.58L17.5 16.58L17.5 18.41L12.91 18.41L12.91 16.58Z" fill="#FFFFFF" fill-opacity="1.000000" fill-rule="evenodd"/>
	</g>
</svg>
