<svg width="13" height="15" viewBox="0 0 13 15" fill="none" xmlns="http://www.w3.org/2000/svg">
<path d="M0.5 12.8374V5.3999H12.75V12.8374C12.75 13.5757 12.1484 14.1499 11.4375 14.1499H1.8125C1.07422 14.1499 0.5 13.5757 0.5 12.8374ZM9.25 7.47803V8.57178C9.25 8.76318 9.38672 8.8999 9.57812 8.8999H10.6719C10.8359 8.8999 11 8.76318 11 8.57178V7.47803C11 7.31396 10.8359 7.1499 10.6719 7.1499H9.57812C9.38672 7.1499 9.25 7.31396 9.25 7.47803ZM9.25 10.978V12.0718C9.25 12.2632 9.38672 12.3999 9.57812 12.3999H10.6719C10.8359 12.3999 11 12.2632 11 12.0718V10.978C11 10.814 10.8359 10.6499 10.6719 10.6499H9.57812C9.38672 10.6499 9.25 10.814 9.25 10.978ZM5.75 7.47803V8.57178C5.75 8.76318 5.88672 8.8999 6.07812 8.8999H7.17188C7.33594 8.8999 7.5 8.76318 7.5 8.57178V7.47803C7.5 7.31396 7.33594 7.1499 7.17188 7.1499H6.07812C5.88672 7.1499 5.75 7.31396 5.75 7.47803ZM5.75 10.978V12.0718C5.75 12.2632 5.88672 12.3999 6.07812 12.3999H7.17188C7.33594 12.3999 7.5 12.2632 7.5 12.0718V10.978C7.5 10.814 7.33594 10.6499 7.17188 10.6499H6.07812C5.88672 10.6499 5.75 10.814 5.75 10.978ZM2.25 7.47803V8.57178C2.25 8.76318 2.38672 8.8999 2.57812 8.8999H3.67188C3.83594 8.8999 4 8.76318 4 8.57178V7.47803C4 7.31396 3.83594 7.1499 3.67188 7.1499H2.57812C2.38672 7.1499 2.25 7.31396 2.25 7.47803ZM2.25 10.978V12.0718C2.25 12.2632 2.38672 12.3999 2.57812 12.3999H3.67188C3.83594 12.3999 4 12.2632 4 12.0718V10.978C4 10.814 3.83594 10.6499 3.67188 10.6499H2.57812C2.38672 10.6499 2.25 10.814 2.25 10.978ZM11.4375 1.8999C12.1484 1.8999 12.75 2.50146 12.75 3.2124V4.5249H0.5V3.2124C0.5 2.50146 1.07422 1.8999 1.8125 1.8999H3.125V0.587402C3.125 0.368652 3.31641 0.149902 3.5625 0.149902H4.4375C4.65625 0.149902 4.875 0.368652 4.875 0.587402V1.8999H8.375V0.587402C8.375 0.368652 8.56641 0.149902 8.8125 0.149902H9.6875C9.90625 0.149902 10.125 0.368652 10.125 0.587402V1.8999H11.4375Z" fill="#7E7C7B"/>
</svg>
