<svg width="34" height="34" viewBox="0 0 34 34" fill="none" xmlns="http://www.w3.org/2000/svg">
<g id="image">
<path id="Vector" d="M18.027 7.72083C12.8915 7.72083 8.71237 11.9 8.71237 17.0354H5.5957L9.59779 21.0375L9.66862 21.1792L13.9186 17H10.802C10.802 12.9979 14.0249 9.77499 18.027 9.77499C22.029 9.77499 25.252 12.9979 25.252 17C25.252 21.0021 22.029 24.225 18.027 24.225C16.0436 24.225 14.2374 23.4104 12.927 22.1L11.4749 23.5521C13.1749 25.2521 15.477 26.2792 18.0624 26.2792C23.1978 26.2792 27.3415 22.1 27.3415 16.9646C27.3415 11.8646 23.1624 7.72083 18.027 7.72083ZM16.9999 12.8562V18.0271L21.427 20.6479L22.1707 19.4083L18.5582 17.2479V12.8562H16.9999Z" fill="#4D4D4D"/>
</g>
</svg>
