<svg width="24" height="24" viewBox="0 0 24 24" fill="none" xmlns="http://www.w3.org/2000/svg">
<g id="Frame">
<g id="Group">
<path id="Vector" d="M16.3246 17.0461C16.0657 17.0461 15.8558 17.256 15.8558 17.5148V21.858C15.8558 22.5222 15.3155 23.0625 14.6514 23.0625H4.68878C4.02466 23.0625 3.48438 22.5222 3.48438 21.858V2.14191C3.48438 1.47778 4.02466 0.9375 4.68878 0.9375H5.70761L6.15302 2.30845C6.18361 2.4026 6.24322 2.48464 6.32331 2.54283C6.4034 2.60102 6.49985 2.63236 6.59884 2.63236H12.7413C12.9444 2.63236 13.1244 2.50158 13.1872 2.30845L13.6326 0.9375H14.6514C15.3155 0.9375 15.8558 1.47778 15.8558 2.14191V7.40681C15.8558 7.66566 16.0657 7.87556 16.3246 7.87556C16.5834 7.87556 16.7933 7.66566 16.7933 7.40681V2.14191C16.7933 0.960844 15.8325 0 14.6514 0H4.68878C3.50772 0 2.54688 0.960844 2.54688 2.14191V21.858C2.54688 23.0391 3.50772 24 4.68878 24H14.6514C15.8325 24 16.7933 23.0391 16.7933 21.858V17.5148C16.7933 17.256 16.5835 17.0461 16.3246 17.0461ZM12.4008 1.69486H6.93944L6.69334 0.9375H12.6468L12.4008 1.69486ZM11.0997 20.7146C11.0997 19.9263 10.4583 19.2849 9.67005 19.2849C8.88175 19.2849 8.24036 19.9263 8.24036 20.7146C8.24036 21.5029 8.88175 22.1443 9.67005 22.1443C10.4583 22.1443 11.0997 21.5029 11.0997 20.7146ZM9.17786 20.7146C9.17786 20.4432 9.39864 20.2224 9.67005 20.2224C9.94145 20.2224 10.1622 20.4432 10.1622 20.7146C10.1622 20.986 9.94145 21.2068 9.67005 21.2068C9.39864 21.2068 9.17786 20.986 9.17786 20.7146ZM21.3655 8.88919C21.322 8.82934 21.265 8.78063 21.1991 8.74705C21.1332 8.71346 21.0603 8.69596 20.9863 8.69597H12.0009L11.5254 7.23253C11.4948 7.13838 11.4352 7.05633 11.3551 6.99815C11.275 6.93996 11.1786 6.90862 11.0796 6.90863H8.94658C8.68773 6.90863 8.47783 7.11853 8.47783 7.37738C8.47783 7.63622 8.68773 7.84613 8.94658 7.84613H10.739L12.721 13.9461C12.7516 14.0402 12.8113 14.1223 12.8913 14.1804C12.9714 14.2386 13.0679 14.27 13.1669 14.27H19.4798C19.6829 14.27 19.8629 14.1392 19.9256 13.9461L21.4322 9.30956C21.455 9.2392 21.4609 9.16444 21.4493 9.09137C21.4377 9.01831 21.409 8.94903 21.3655 8.88919ZM19.1392 13.3325H13.5075L12.3055 9.63347H20.3411L19.1392 13.3325ZM15.7563 15.794C15.7563 15.0787 15.1743 14.4967 14.459 14.4967C13.7436 14.4967 13.1616 15.0787 13.1616 15.794C13.1616 16.5094 13.7436 17.0913 14.459 17.0913C15.1743 17.0913 15.7563 16.5094 15.7563 15.794ZM14.0992 15.794C14.0992 15.5956 14.2606 15.4342 14.459 15.4342C14.6574 15.4342 14.8188 15.5955 14.8188 15.794C14.8188 15.9924 14.6575 16.1538 14.459 16.1538C14.2606 16.1538 14.0992 15.9924 14.0992 15.794ZM18.1876 14.4967C17.4723 14.4967 16.8903 15.0787 16.8903 15.7941C16.8903 16.5094 17.4723 17.0914 18.1876 17.0914C18.903 17.0914 19.485 16.5094 19.485 15.7941C19.485 15.0787 18.903 14.4967 18.1876 14.4967ZM18.1876 16.1538C17.9892 16.1538 17.8278 15.9924 17.8278 15.794C17.8278 15.5956 17.9891 15.4342 18.1876 15.4342C18.3861 15.4342 18.5475 15.5955 18.5475 15.794C18.5475 15.9924 18.3861 16.1538 18.1876 16.1538Z" fill="black"/>
</g>
</g>
</svg>
