<svg width="18" height="22" viewBox="0 0 18 22" fill="none" xmlns="http://www.w3.org/2000/svg">
<path d="M9 9.77778C9.89002 9.77778 10.76 9.49105 11.5001 8.95385C12.2401 8.41665 12.8169 7.65312 13.1575 6.75979C13.4981 5.86646 13.5872 4.88347 13.4135 3.93512C13.2399 2.98676 12.8113 2.11565 12.182 1.43192C11.5526 0.748201 10.7508 0.28258 9.87791 0.0939408C9.00499 -0.094698 8.10019 0.00211826 7.27792 0.372147C6.45566 0.742175 5.75285 1.3688 5.25839 2.17277C4.76392 2.97674 4.5 3.92196 4.5 4.88889C4.50149 6.18501 4.97607 7.42758 5.81966 8.34407C6.66326 9.26056 7.80698 9.77616 9 9.77778ZM9 1.22222C9.66751 1.22222 10.32 1.43727 10.875 1.84017C11.4301 2.24307 11.8626 2.81572 12.1181 3.48572C12.3735 4.15571 12.4404 4.89296 12.3102 5.60422C12.1799 6.31549 11.8585 6.96882 11.3865 7.48162C10.9145 7.99441 10.3131 8.34362 9.65843 8.4851C9.00374 8.62658 8.32514 8.55397 7.70844 8.27645C7.09174 7.99893 6.56464 7.52896 6.19379 6.92598C5.82294 6.323 5.625 5.61409 5.625 4.88889C5.62604 3.91678 5.98196 2.9848 6.61467 2.29742C7.24738 1.61003 8.10521 1.22336 9 1.22222ZM11.8125 11H6.1875C4.54702 11.0019 2.97424 11.7108 1.81425 12.971C0.654256 14.2313 0.00178669 15.94 0 17.7222V20.1667C0.000446746 20.6527 0.17838 21.1188 0.494751 21.4625C0.811121 21.8062 1.24008 21.9995 1.6875 22H16.3125C16.7599 21.9995 17.1889 21.8062 17.5052 21.4625C17.8216 21.1188 17.9996 20.6527 18 20.1667V17.7222C17.9982 15.94 17.3457 14.2313 16.1857 12.971C15.0258 11.7108 13.453 11.0019 11.8125 11ZM16.875 20.1667C16.8749 20.3287 16.8155 20.484 16.7101 20.5986C16.6046 20.7132 16.4616 20.7776 16.3125 20.7778H1.6875C1.53836 20.7776 1.39537 20.7132 1.28992 20.5986C1.18446 20.484 1.12515 20.3287 1.125 20.1667V17.7222C1.12649 16.264 1.66034 14.866 2.60942 13.8349C3.5585 12.8038 4.8453 12.2238 6.1875 12.2222H11.8125C13.1547 12.2238 14.4415 12.8038 15.3906 13.8349C16.3397 14.866 16.8735 16.264 16.875 17.7222V20.1667Z" fill="#2B53BE"/>
</svg>
