<svg width="24" height="24" viewBox="0 0 24 24" fill="none" xmlns="http://www.w3.org/2000/svg">
<g id="Frame">
<g id="Group">
<path id="Vector" d="M21.5468 7.37133C21.0543 4.74387 19.3136 3.00109 16.6452 2.46395C15.9523 2.32445 14.1157 2 12.0318 2L11.992 2.00004C9.97196 2.00414 8.08864 2.32531 7.37262 2.4632C4.70649 2.97672 2.96446 4.71977 2.46739 7.37133C2.2936 8.29836 2.00181 10.1336 2.00001 12.0091C1.99809 14.0268 2.32673 15.921 2.46809 16.6419C2.98532 19.2786 4.72618 21.0202 7.36997 21.5457C8.0568 21.6823 9.88223 22 11.9929 22C14.2155 22 16.1159 21.6521 16.6452 21.5455C19.3136 21.0084 21.0543 19.2656 21.5468 16.6382C21.7161 15.7352 22 13.932 22 12C22 10.0764 21.7161 8.2743 21.5468 7.37133ZM16.4685 20.6677C15.9596 20.7701 14.1327 21.1045 11.9929 21.1045C9.9618 21.1045 8.20547 20.7988 7.54462 20.6675C7.1002 20.5791 6.68786 20.4531 6.3079 20.2914C6.27255 19.9892 6.25372 19.7059 6.25372 19.4489C6.25372 16.583 8.40188 14.8721 12 14.8721C15.5981 14.8721 17.7462 16.583 17.7462 19.4489C17.7462 19.7079 17.7276 19.9927 17.6916 20.2975C17.3157 20.4554 16.9078 20.5792 16.4685 20.6677ZM20.6666 16.4732C20.3939 17.9285 19.7018 19.0454 18.6328 19.7845C18.6383 19.6696 18.6418 19.557 18.6418 19.4489C18.6418 17.6982 17.951 16.262 16.644 15.2957C15.4766 14.4327 13.8708 13.9765 12 13.9765C10.1292 13.9765 8.52337 14.4327 7.35602 15.2957C6.04907 16.262 5.35821 17.6982 5.35821 19.4489C5.35821 19.5527 5.36149 19.6606 5.36653 19.7706C4.31809 19.0326 3.63126 17.9193 3.34684 16.4695C3.21055 15.7745 2.89368 13.9488 2.89552 12.01C2.89723 10.2065 3.1795 8.43297 3.34759 7.53633C3.7722 5.27109 5.26184 3.78172 7.542 3.34258C8.23297 3.20949 10.0501 2.89957 11.9938 2.89559L12.0318 2.89555C14.0351 2.89555 15.8019 3.2077 16.4685 3.34184C18.7881 3.80879 20.2398 5.25922 20.6666 7.53633C20.8302 8.40875 21.1045 10.1488 21.1045 12C21.1045 13.929 20.7983 15.7709 20.6666 16.4732Z" fill="black"/>
<path id="Vector_2" d="M12.0005 13.343C9.77848 13.343 7.9707 11.5352 7.9707 9.31309C7.9707 7.09102 9.77848 5.2832 12.0005 5.2832C14.2226 5.2832 16.0304 7.09098 16.0304 9.31305C16.0304 11.5351 14.2226 13.343 12.0005 13.343ZM12.0005 6.17875C10.2723 6.17875 8.86621 7.58481 8.86621 9.31309C8.86621 11.0414 10.2723 12.4475 12.0005 12.4475C13.7288 12.4475 15.1349 11.0414 15.1349 9.31309C15.1349 7.58481 13.7289 6.17875 12.0005 6.17875Z" fill="black"/>
</g>
</g>
</svg>
