<svg width="24" height="24" viewBox="0 0 24 24" fill="none" xmlns="http://www.w3.org/2000/svg">
<g clip-path="url(#clip0_435_6674)">
<path fill-rule="evenodd" clip-rule="evenodd" d="M12 2C15.8663 2 19 4.94 19 8.56667C19 12.7289 14.576 18.8767 12 22C9.424 18.8767 5 12.7289 5 8.56667C5 4.94 8.13367 2 12 2ZM12 12C12.9283 12 13.8185 11.6488 14.4749 11.0237C15.1313 10.3986 15.5 9.55072 15.5 8.66667C15.5 7.78261 15.1313 6.93477 14.4749 6.30964C13.8185 5.68452 12.9283 5.33333 12 5.33333C11.0717 5.33333 10.1815 5.68452 9.52513 6.30964C8.86875 6.93477 8.5 7.78261 8.5 8.66667C8.5 9.55072 8.86875 10.3986 9.52513 11.0237C10.1815 11.6488 11.0717 12 12 12Z" fill="#FD2C1A"/>
</g>
<defs>
<clipPath id="clip0_435_6674">
<rect width="24" height="24" fill="white"/>
</clipPath>
</defs>
</svg>
