<svg width="22" height="22" viewBox="0 0 22 22" fill="none" xmlns="http://www.w3.org/2000/svg">
<g id="Frame 50127">
<path id="Vector" d="M11 15.2285L6.80957 10.9891M6.80957 10.9891L11 6.79861M6.80957 10.9891H20.7778" stroke="#393A42" stroke-width="1.14286" stroke-linecap="round" stroke-linejoin="round"/>
<path id="Vector_2" d="M17.9846 8.1952V4.0606C17.9846 3.32161 17.6918 2.61272 17.1703 2.08913C16.6488 1.56554 15.9411 1.26991 15.2021 1.26695L4.02748 1.22225C3.66061 1.22078 3.29705 1.29159 2.95754 1.43062C2.61804 1.56966 2.30925 1.77421 2.04879 2.03258C1.78834 2.29096 1.58133 2.59811 1.43958 2.93649C1.29783 3.27487 1.22412 3.63786 1.22266 4.00473V17.973C1.22266 18.7139 1.51699 19.4245 2.0409 19.9484C2.56481 20.4723 3.27538 20.7666 4.01631 20.7666H15.1909C15.9318 20.7666 16.6424 20.4723 17.1663 19.9484C17.6902 19.4245 17.9846 18.7139 17.9846 17.973V13.7825" stroke="#393A42" stroke-width="1.14286" stroke-linecap="round" stroke-linejoin="round"/>
</g>
</svg>
