<svg width="22" height="22" viewBox="0 0 22 22" fill="none" xmlns="http://www.w3.org/2000/svg">
<g id="&#208;&#161;&#208;&#190;&#208;&#190;&#208;&#177;&#209;&#137;&#208;&#181;&#208;&#189;&#208;&#184;&#209;&#143;">
<path id="Vector" d="M1 20.6C1 20.7598 1.09492 20.9039 1.24141 20.9672C1.29238 20.9895 1.34629 21 1.4 21C1.5 21 1.59844 20.9625 1.67422 20.8914L4.39199 18.3332H13.1979C14.118 18.3332 14.8666 17.5848 14.8666 16.6645V11.6723H17.6094L20.326 14.2273C20.4016 14.2984 20.5002 14.3359 20.6 14.3359C20.6537 14.3359 20.7076 14.325 20.7588 14.3031C20.9051 14.2398 21 14.0953 21 13.9359V2.66797C21 1.74844 20.2518 1 19.332 1H8.80391C7.88203 1 7.13203 1.74844 7.13203 2.66797V7.6625H2.66875C1.74863 7.6625 1 8.41094 1 9.33125V20.6ZM7.93203 2.66797C7.93203 2.18945 8.32324 1.8 8.80391 1.8H19.332C19.8105 1.8 20.2 2.18945 20.2 2.66797V13.0105L18.042 10.9809C17.9678 10.9109 17.8697 10.8723 17.768 10.8723H14.8666V9.33125C14.8666 8.41094 14.118 7.6625 13.1979 7.6625H7.93203V2.66797ZM1.8 9.33125C1.8 8.85234 2.18965 8.4625 2.66875 8.4625H7.52429C7.52703 8.46255 7.5293 8.46406 7.53203 8.46406C7.53477 8.46406 7.53704 8.46255 7.53977 8.4625H13.1979C13.677 8.4625 14.0666 8.85234 14.0666 9.33125V16.6645C14.0666 17.1434 13.677 17.5332 13.1979 17.5332H4.2334C4.13145 17.5332 4.0334 17.5723 3.95918 17.6418L1.8 19.6742V9.33125Z" fill="#3A3A3A" stroke="#3A3A3A" stroke-width="0.5"/>
<path id="Vector_2" d="M3.59922 10.8625H12.2658C12.4867 10.8625 12.6658 10.6836 12.6658 10.4625C12.6658 10.2414 12.4867 10.0625 12.2658 10.0625H3.59922C3.37832 10.0625 3.19922 10.2414 3.19922 10.4625C3.19922 10.6836 3.37832 10.8625 3.59922 10.8625Z" fill="#3A3A3A"/>
<path id="Vector_3" d="M3.59922 13.398H12.2658C12.4867 13.398 12.6658 13.2191 12.6658 12.998C12.6658 12.7769 12.4867 12.598 12.2658 12.598H3.59922C3.37832 12.598 3.19922 12.7769 3.19922 12.998C3.19922 13.2191 3.37832 13.398 3.59922 13.398Z" fill="#3A3A3A"/>
<path id="Vector_4" d="M12.6658 15.5332C12.6658 15.3121 12.4867 15.1332 12.2658 15.1332H3.59922C3.37832 15.1332 3.19922 15.3121 3.19922 15.5332C3.19922 15.7543 3.37832 15.9332 3.59922 15.9332H12.2658C12.4867 15.9332 12.6658 15.7543 12.6658 15.5332Z" fill="#3A3A3A"/>
</g>
</svg>
