<svg width="22" height="20" viewBox="0 0 22 20" fill="none" xmlns="http://www.w3.org/2000/svg">
<g id="&#208;&#147;&#208;&#176;&#209;&#128;&#208;&#176;&#208;&#182;">
<path id="Vector" d="M21 19H1M2 19V8.90008C2.00004 8.49845 2.0898 8.10139 2.26337 7.73502C2.43693 7.36865 2.69037 7.04129 3.007 6.77448L9.007 1.71835C9.55614 1.25561 10.2653 1 11 1C11.7347 1 12.4439 1.25561 12.993 1.71835L18.993 6.77448C19.3096 7.04129 19.5631 7.36865 19.7366 7.73502C19.9102 8.10139 20 8.49845 20 8.90008V19M9 6.67493H13M8 12.8375H14M8 15.6817H14" stroke="#3A3A3A" stroke-width="1.2" stroke-linecap="round"/>
<path id="Vector_2" d="M17 18.9999V13.3114C17 11.5233 17 10.6302 16.414 10.0746C15.828 9.51904 14.886 9.51904 13 9.51904H9C7.114 9.51904 6.172 9.51904 5.586 10.0746C5 10.6302 5 11.5233 5 13.3114V18.9999" stroke="#3A3A3A" stroke-width="1.2"/>
</g>
</svg>
