<svg width="20" height="20" viewBox="0 0 20 20" fill="none" xmlns="http://www.w3.org/2000/svg">
<g id="ion:car-sport-outline">
<path id="Vector" d="M18.5875 9.10833C18.293 8.70292 17.1989 8.42375 16.736 7.69417C16.2731 6.96458 15.8942 5.38458 14.7161 4.7775C13.538 4.17042 11.2862 4 10.0004 4C8.71465 4 6.46451 4.16667 5.2848 4.77625C4.10509 5.38583 3.72779 6.96458 3.2649 7.69292C2.80202 8.42125 1.70789 8.70292 1.41336 9.10833C1.11883 9.51375 0.911501 12.0767 1.03767 13.3333C1.16384 14.59 1.3993 15.3333 1.3993 15.3333H4.85486C5.42061 15.3333 5.60464 15.1129 6.76185 15C8.03157 14.875 9.27718 14.8333 10.0004 14.8333C10.7237 14.8333 12.0095 14.875 13.2784 15C14.4356 15.1138 14.6257 15.3333 15.1854 15.3333H18.6008C18.6008 15.3333 18.8362 14.59 18.9624 13.3333C19.0886 12.0767 18.8804 9.51375 18.5875 9.10833ZM15.7865 15.3333H18.0366V16H15.7865V15.3333ZM1.96424 15.3333H4.21438V16H1.96424V15.3333Z" stroke="#3A3A3A" stroke-linecap="round" stroke-linejoin="round"/>
<path id="Vector_2" d="M14.2372 12.0766C14.0064 11.8098 13.254 11.5871 12.2579 11.4379C11.2618 11.2887 10.8985 11.25 10.0079 11.25C9.11729 11.25 8.71221 11.3141 7.75752 11.4379C6.80283 11.5617 6.08604 11.782 5.77862 12.0766C5.31729 12.5235 5.99307 13.025 6.52354 13.086C7.0376 13.1445 8.06533 13.1231 10.0122 13.1231C11.9591 13.1231 12.9868 13.1445 13.5009 13.086C14.0306 13.0215 14.6579 12.5547 14.2372 12.0766ZM16.8583 9.49415C16.8561 9.46313 16.8425 9.43401 16.8202 9.41238C16.7978 9.39075 16.7683 9.37814 16.7372 9.37697C16.2759 9.36056 15.8075 9.39337 14.9767 9.63829C14.5528 9.76204 14.1547 9.96134 13.8017 10.2266C13.7126 10.2961 13.7442 10.484 13.856 10.5039C14.5408 10.5842 15.2297 10.6247 15.9192 10.625C16.3329 10.625 16.7599 10.5078 16.8392 10.1391C16.8796 9.92646 16.8861 9.70879 16.8583 9.49415ZM3.1419 9.49415C3.14409 9.46313 3.15766 9.43401 3.18001 9.41238C3.20236 9.39075 3.23191 9.37814 3.26299 9.37697C3.72432 9.36056 4.19268 9.39337 5.02354 9.63829C5.44743 9.76204 5.84548 9.96134 6.19854 10.2266C6.2876 10.2961 6.25596 10.484 6.14424 10.5039C5.45941 10.5842 4.77049 10.6247 4.08096 10.625C3.66729 10.625 3.24033 10.5078 3.16104 10.1391C3.12061 9.92646 3.11415 9.70879 3.1419 9.49415Z" fill="#3A3A3A"/>
<path id="Vector_3" d="M16.875 7.5H17.5M2.5 7.5H3.125M3.04688 8.24219C3.04688 8.24219 4.85742 7.77344 10 7.77344C15.1426 7.77344 16.9531 8.24219 16.9531 8.24219" stroke="#3A3A3A" stroke-linecap="round" stroke-linejoin="round"/>
</g>
</svg>
