<svg width="24.000000" height="24.000000" viewBox="0 0 24 24" fill="none" xmlns="http://www.w3.org/2000/svg" xmlns:xlink="http://www.w3.org/1999/xlink">
	<desc>
			Created with Pixso.
	</desc>
	<defs>
		<clipPath id="clip450_8640">
			<rect id="heroicons:phone-20-solid" rx="-0.500000" width="23.000000" height="23.000000" transform="translate(0.500000 0.500000)" fill="white" fill-opacity="0"/>
		</clipPath>
	</defs>
	<rect id="heroicons:phone-20-solid" rx="-0.500000" width="23.000000" height="23.000000" transform="translate(0.500000 0.500000)" fill="#FFFFFF" fill-opacity="0"/>
	<g clip-path="url(#clip450_8640)">
		<path id="Vector" d="M2.4 4.19C2.4 3.72 2.58 3.26 2.92 2.92C3.26 2.58 3.72 2.39 4.2 2.39L5.57 2.39C5.98 2.39 6.38 2.53 6.7 2.79C7.02 3.05 7.24 3.4 7.33 3.8L8.19 7.67C8.29 8.12 8.21 8.59 7.98 8.98C7.75 9.38 7.37 9.67 6.93 9.79L5.81 10.11C5.32 10.25 5.04 10.78 5.23 11.25C5.93 12.94 6.95 14.47 8.24 15.75C9.52 17.04 11.05 18.06 12.74 18.76C13.21 18.95 13.74 18.67 13.88 18.18L14.2 17.06C14.32 16.62 14.61 16.25 15.01 16.01C15.4 15.78 15.87 15.7 16.32 15.8L20.18 16.66C20.58 16.75 20.94 16.97 21.2 17.29C21.46 17.61 21.59 18.01 21.59 18.42L21.59 19.79C21.59 20.27 21.41 20.73 21.07 21.07C20.73 21.41 20.27 21.59 19.8 21.59L18 21.59C16.62 21.59 15.28 21.41 14 21.08C11.34 20.37 8.91 18.97 6.97 17.03C5.02 15.08 3.62 12.65 2.91 9.99C2.57 8.68 2.39 7.34 2.4 6L2.4 4.19Z" fill="#000000" fill-opacity="1.000000" fill-rule="evenodd"/>
	</g>
</svg>
