<svg width="24.000000" height="24.000000" viewBox="0 0 24 24" fill="none" xmlns="http://www.w3.org/2000/svg" xmlns:xlink="http://www.w3.org/1999/xlink">
	<path id="Vector" d="M16.55 22.13C15.11 22.08 11.02 21.51 6.75 17.24C2.48 12.96 1.91 8.88 1.86 7.44C1.78 5.25 3.46 3.11 5.41 2.28C5.64 2.18 5.9 2.14 6.15 2.17C6.4 2.2 6.65 2.29 6.85 2.44C8.45 3.61 9.56 5.37 10.5 6.76C10.71 7.06 10.8 7.43 10.75 7.8C10.71 8.16 10.53 8.5 10.25 8.74L8.3 10.19C8.2 10.26 8.14 10.36 8.11 10.47C8.08 10.59 8.1 10.71 8.15 10.81C8.6 11.61 9.38 12.81 10.28 13.71C11.18 14.61 12.43 15.45 13.29 15.94C13.4 16 13.53 16.01 13.65 15.98C13.77 15.95 13.87 15.88 13.94 15.78L15.21 13.84C15.44 13.53 15.79 13.32 16.17 13.26C16.55 13.2 16.94 13.29 17.26 13.51C18.67 14.48 20.31 15.57 21.51 17.11C21.68 17.32 21.78 17.56 21.81 17.82C21.85 18.09 21.81 18.35 21.7 18.59C20.87 20.55 18.75 22.21 16.55 22.13ZM16.41 14.74L15.2 16.58Q15.1 16.74 14.97 16.88Q14.84 17.01 14.69 17.12Q14.54 17.23 14.37 17.31Q14.2 17.39 14.01 17.44Q13.83 17.49 13.64 17.5Q13.46 17.51 13.27 17.48Q13.17 17.47 13.07 17.44Q12.8 17.38 12.55 17.24Q11.73 16.77 10.93 16.19Q9.93 15.47 9.22 14.77Q8.51 14.06 7.83 13.09Q7.27 12.31 6.83 11.52Q6.75 11.36 6.69 11.19Q6.64 11.02 6.61 10.84Q6.59 10.67 6.6 10.49Q6.61 10.31 6.65 10.14Q6.69 9.96 6.76 9.8Q6.83 9.64 6.93 9.49Q7.11 9.21 7.37 9.01Q7.38 9 7.4 8.99L9.26 7.6L9.26 7.6Q9.17 7.46 8.97 7.18Q8.53 6.52 8.3 6.19Q7.91 5.65 7.58 5.24Q6.77 4.24 5.99 3.66Q5.46 3.89 4.97 4.29Q4.65 4.55 4.38 4.86Q4.23 5.03 4.09 5.22Q3.72 5.75 3.53 6.31Q3.34 6.86 3.36 7.39Q3.38 7.99 3.52 8.69Q3.72 9.7 4.12 10.73Q4.63 12.03 5.45 13.29Q6.43 14.79 7.81 16.18L7.81 16.18Q9.2 17.56 10.7 18.54Q11.96 19.36 13.26 19.87Q14.29 20.27 15.3 20.47Q16 20.61 16.6 20.63Q17.13 20.65 17.69 20.46Q18.24 20.28 18.76 19.9Q18.94 19.78 19.1 19.64Q19.42 19.36 19.69 19.03Q20.09 18.55 20.32 18.01Q19.68 17.2 18.66 16.37Q18.24 16.03 17.69 15.63Q17.35 15.39 16.68 14.93Q16.5 14.81 16.41 14.74Z" fill="#FD2C1A" fill-opacity="1.000000" fill-rule="evenodd"/>
</svg>
