<svg width="20" height="22" viewBox="0 0 20 22" fill="none" xmlns="http://www.w3.org/2000/svg">
<g id="stock">
<g id="Group">
<g id="Vector">
<mask id="path-1-inside-1_248_2651" fill="white">
<path d="M19.6828 6.50905C19.3613 6.01136 18.8378 5.7139 18.282 5.7139H3.82779L3.43184 4.21674C3.27349 3.62017 2.86001 3.14754 2.32442 2.95196L0.794816 2.39167C0.47796 2.27499 0.136383 2.46401 0.031068 2.81256C-0.0742513 3.1611 0.0968346 3.53683 0.413694 3.65268L1.94387 4.21297C2.10223 4.27131 2.22507 4.41155 2.27137 4.58805L2.79093 6.5496C2.79362 6.55916 2.79632 6.56888 2.79902 6.57844L4.94406 14.6928C5.1562 15.4945 5.83472 16.0542 6.59383 16.0542H16.2011C16.9307 16.0542 17.5824 15.5454 17.8227 14.7872L19.9052 8.2254C20.0869 7.64878 20.0044 7.00723 19.6829 6.50887L19.6828 6.50905ZM18.7633 7.78771L16.6808 14.3504C16.6096 14.5749 16.4156 14.7261 16.1996 14.7261H6.59307C6.3682 14.7261 6.16686 14.56 6.10377 14.3222L4.17883 7.0436H18.2821C18.4493 7.0436 18.6009 7.12996 18.6976 7.27992C18.7949 7.42824 18.8185 7.61364 18.7635 7.78782L18.7633 7.78771Z"/>
</mask>
<path d="M19.6828 6.50905C19.3613 6.01136 18.8378 5.7139 18.282 5.7139H3.82779L3.43184 4.21674C3.27349 3.62017 2.86001 3.14754 2.32442 2.95196L0.794816 2.39167C0.47796 2.27499 0.136383 2.46401 0.031068 2.81256C-0.0742513 3.1611 0.0968346 3.53683 0.413694 3.65268L1.94387 4.21297C2.10223 4.27131 2.22507 4.41155 2.27137 4.58805L2.79093 6.5496C2.79362 6.55916 2.79632 6.56888 2.79902 6.57844L4.94406 14.6928C5.1562 15.4945 5.83472 16.0542 6.59383 16.0542H16.2011C16.9307 16.0542 17.5824 15.5454 17.8227 14.7872L19.9052 8.2254C20.0869 7.64878 20.0044 7.00723 19.6829 6.50887L19.6828 6.50905ZM18.7633 7.78771L16.6808 14.3504C16.6096 14.5749 16.4156 14.7261 16.1996 14.7261H6.59307C6.3682 14.7261 6.16686 14.56 6.10377 14.3222L4.17883 7.0436H18.2821C18.4493 7.0436 18.6009 7.12996 18.6976 7.27992C18.7949 7.42824 18.8185 7.61364 18.7635 7.78782L18.7633 7.78771Z" fill="white"/>
<path d="M19.6828 6.50905L18.5628 7.23254L19.565 8.78398L20.722 7.34431L19.6828 6.50905ZM3.82779 5.7139L2.53878 6.0548L2.80124 7.04723H3.82779V5.7139ZM3.43184 4.21674L4.72086 3.87584L4.72055 3.87467L3.43184 4.21674ZM2.32442 2.95196L1.86582 4.20395L1.86707 4.2044L2.32442 2.95196ZM0.794816 2.39167L0.334091 3.64287L0.336216 3.64365L0.794816 2.39167ZM0.031068 2.81256L1.3074 3.19823L1.30741 3.19821L0.031068 2.81256ZM0.413694 3.65268L0.872142 2.40064L0.871534 2.40042L0.413694 3.65268ZM1.94387 4.21297L2.40479 2.96184L2.40232 2.96093L1.94387 4.21297ZM2.27137 4.58805L0.981661 4.92634L0.982481 4.92943L2.27137 4.58805ZM2.79093 6.5496L1.50204 6.89099L1.50478 6.90134L1.50769 6.91165L2.79093 6.5496ZM2.79902 6.57844L4.08807 6.23767L4.08525 6.22699L4.08225 6.21635L2.79902 6.57844ZM4.94406 14.6928L3.65501 15.0336L3.65509 15.0338L4.94406 14.6928ZM17.8227 14.7872L16.5518 14.3839L16.5516 14.3844L17.8227 14.7872ZM19.9052 8.2254L21.1761 8.62874L21.1769 8.62617L19.9052 8.2254ZM19.6829 6.50887L20.8033 5.78607L19.8014 4.233L18.6436 5.67361L19.6829 6.50887ZM18.7633 7.78771L19.5691 6.72538L18.0639 5.58373L17.4925 7.38442L18.7633 7.78771ZM16.6808 14.3504L15.4099 13.9471L15.4098 13.9474L16.6808 14.3504ZM6.10377 14.3222L4.81476 14.6631L4.81502 14.6641L6.10377 14.3222ZM4.17883 7.0436V5.71027H2.44704L2.88982 7.3845L4.17883 7.0436ZM18.6976 7.27992L17.5767 8.00214L17.583 8.01172L18.6976 7.27992ZM18.7635 7.78782L17.9577 8.85015L19.4654 9.99368L20.035 8.18915L18.7635 7.78782ZM20.8027 5.78556C20.2555 4.93844 19.3259 4.38056 18.282 4.38056V7.04723C18.3497 7.04723 18.467 7.08428 18.5628 7.23254L20.8027 5.78556ZM18.282 4.38056H3.82779V7.04723H18.282V4.38056ZM5.11681 5.37299L4.72086 3.87584L2.14283 4.55765L2.53878 6.0548L5.11681 5.37299ZM4.72055 3.87467C4.46146 2.89859 3.76534 2.05869 2.78178 1.69952L1.86707 4.2044C1.95469 4.2364 2.08552 4.34175 2.14314 4.55881L4.72055 3.87467ZM2.78302 1.69998L1.25342 1.13968L0.336216 3.64365L1.86582 4.20395L2.78302 1.69998ZM1.25554 1.14046C0.118482 0.721772 -0.950027 1.44977 -1.24527 2.4269L1.30741 3.19821C1.22279 3.47825 0.837439 3.82822 0.334092 3.64287L1.25554 1.14046ZM-1.24527 2.42688C-1.52904 3.36601 -1.10612 4.51667 -0.0441463 4.90494L0.871534 2.40042C1.08598 2.47882 1.2161 2.63247 1.27749 2.76727C1.33874 2.90177 1.35102 3.0539 1.3074 3.19823L-1.24527 2.42688ZM-0.0447549 4.90472L1.48543 5.46501L2.40232 2.96093L0.872142 2.40064L-0.0447549 4.90472ZM1.48296 5.46411C1.19749 5.35894 1.03609 5.13382 0.981665 4.92634L3.56107 4.24975C3.41406 3.68928 3.00696 3.18368 2.40479 2.96184L1.48296 5.46411ZM0.982481 4.92943L1.50204 6.89099L4.07981 6.20821L3.56026 4.24666L0.982481 4.92943ZM1.50769 6.91165C1.50856 6.91474 1.5095 6.9181 1.51092 6.92318C1.5122 6.92776 1.51396 6.93404 1.51579 6.94052L4.08225 6.21635C4.08138 6.21328 4.08044 6.20992 4.07902 6.20485C4.07774 6.20029 4.07599 6.19402 4.07416 6.18755L1.50769 6.91165ZM1.50996 6.9192L3.65501 15.0336L6.23312 14.352L4.08807 6.23767L1.50996 6.9192ZM3.65509 15.0338C4.00217 16.3456 5.15556 17.3875 6.59383 17.3875V14.7208C6.51388 14.7208 6.31022 14.6434 6.23304 14.3517L3.65509 15.0338ZM6.59383 17.3875H16.2011V14.7208H6.59383V17.3875ZM16.2011 17.3875C17.579 17.3875 18.699 16.4355 19.0937 15.19L16.5516 14.3844C16.4657 14.6554 16.2823 14.7208 16.2011 14.7208V17.3875ZM19.0935 15.1906L21.1761 8.62874L18.6344 7.82206L16.5518 14.3839L19.0935 15.1906ZM21.1769 8.62617C21.4748 7.68105 21.3454 6.6264 20.8033 5.78607L18.5625 7.23167C18.6634 7.38806 18.6991 7.61651 18.6335 7.82462L21.1769 8.62617ZM18.6436 5.67361L18.6435 5.67378L20.722 7.34431L20.7222 7.34413L18.6436 5.67361ZM17.4925 7.38442L15.4099 13.9471L17.9516 14.7537L20.0342 8.191L17.4925 7.38442ZM15.4098 13.9474C15.4933 13.6841 15.7679 13.3928 16.1996 13.3928V16.0595C17.0633 16.0595 17.7259 15.4656 17.9517 14.7534L15.4098 13.9474ZM16.1996 13.3928H6.59307V16.0595H16.1996V13.3928ZM6.59307 13.3928C7.04807 13.3928 7.3207 13.7096 7.39252 13.9803L4.81502 14.6641C5.01303 15.4104 5.68833 16.0595 6.59307 16.0595V13.3928ZM7.39279 13.9813L5.46785 6.7027L2.88982 7.3845L4.81476 14.6631L7.39279 13.9813ZM4.17883 8.37694H18.2821V5.71027H4.17883V8.37694ZM18.2821 8.37694C17.96 8.37694 17.7054 8.20171 17.5767 8.00211L19.8184 6.55773C19.4965 6.05821 18.9386 5.71027 18.2821 5.71027V8.37694ZM17.583 8.01172C17.4505 7.80989 17.4319 7.57672 17.492 7.38649L20.035 8.18915C20.205 7.65055 20.1394 7.04659 19.8121 6.54812L17.583 8.01172ZM19.5692 6.72549L19.5691 6.72538L17.9576 8.85004L17.9577 8.85015L19.5692 6.72549Z" fill="white" mask="url(#path-1-inside-1_248_2651)"/>
</g>
<path id="Vector_2" d="M8.7347 18.4376C8.7347 18.8829 8.4205 19.133 8.16316 19.133C7.90572 19.133 7.59147 18.8828 7.59147 18.4376C7.59147 17.9923 7.90582 17.7421 8.16316 17.7421C8.4204 17.7421 8.7347 17.9922 8.7347 18.4376Z" fill="white" stroke="white" stroke-width="1.33333"/>
<path id="Vector_3" d="M15.4583 18.4376C15.4583 18.8828 15.1441 19.133 14.8866 19.133C14.6293 19.133 14.3151 18.8829 14.3151 18.4376C14.3151 17.9922 14.6294 17.7421 14.8866 17.7421C15.144 17.7421 15.4583 17.9923 15.4583 18.4376Z" fill="white" stroke="white" stroke-width="1.33333"/>
</g>
</g>
</svg>
