<svg width="20.000000" height="20.000000" viewBox="0 0 20 20" fill="none" xmlns="http://www.w3.org/2000/svg" xmlns:xlink="http://www.w3.org/1999/xlink">
	<desc>
			Created with Pixso.
	</desc>
	<defs>
		<clipPath id="clip435_6693">
			<rect id="icon_shop_search_small" rx="-0.500000" width="19.000000" height="19.000000" transform="translate(0.500000 0.500000)" fill="white" fill-opacity="0"/>
		</clipPath>
	</defs>
	<rect id="icon_shop_search_small" rx="-0.500000" width="19.000000" height="19.000000" transform="translate(0.500000 0.500000)" fill="#FFFFFF" fill-opacity="0"/>
	<g clip-path="url(#clip435_6693)">
		<path id="Vector" d="M9 16C7.42 16 5.89 15.46 4.65 14.48C3.41 13.51 2.55 12.14 2.18 10.61C1.82 9.07 1.99 7.46 2.65 6.03C3.32 4.6 4.45 3.44 5.86 2.74C7.27 2.03 8.88 1.82 10.42 2.14C11.96 2.46 13.35 3.29 14.36 4.5C15.38 5.71 15.95 7.23 15.99 8.8C16.04 10.38 15.55 11.92 14.6 13.19L17.7 16.29C17.8 16.38 17.87 16.49 17.92 16.61C17.97 16.73 18 16.86 18 16.99C18 17.13 17.97 17.26 17.92 17.38C17.87 17.5 17.8 17.61 17.7 17.7C17.61 17.79 17.5 17.87 17.38 17.92C17.26 17.97 17.13 17.99 17 17.99C16.86 17.99 16.73 17.97 16.61 17.92C16.49 17.87 16.38 17.79 16.29 17.7L13.19 14.6C11.98 15.51 10.51 16 9 16ZM9 14C10.32 14 11.59 13.47 12.53 12.53C13.47 11.59 14 10.32 14 9C14 7.67 13.47 6.4 12.53 5.46C11.59 4.52 10.32 4 9 4C7.67 4 6.4 4.52 5.46 5.46C4.52 6.4 4 7.67 4 9C4 10.32 4.52 11.59 5.46 12.53C6.4 13.47 7.67 14 9 14Z" fill="#2E2F38" fill-opacity="0.400000" fill-rule="evenodd"/>
	</g>
</svg>
