<svg width="16" height="16" viewBox="0 0 16 16" fill="none" xmlns="http://www.w3.org/2000/svg">
<path d="M7.52 9.72C7.52 9.328 7.6 8.972 7.76 8.652C7.92 8.324 8.112 8.048 8.336 7.824C8.56 7.6 8.784 7.384 9.008 7.176C9.232 6.968 9.424 6.74 9.584 6.492C9.744 6.236 9.824 5.964 9.824 5.676C9.824 5.212 9.664 4.864 9.344 4.632C9.032 4.392 8.628 4.272 8.132 4.272C7.148 4.272 6.54 4.676 6.308 5.484L5.6 5.088C5.784 4.552 6.104 4.148 6.56 3.876C7.024 3.596 7.548 3.456 8.132 3.456C8.836 3.456 9.432 3.652 9.92 4.044C10.416 4.428 10.664 4.972 10.664 5.676C10.664 6.02 10.584 6.34 10.424 6.636C10.264 6.932 10.072 7.192 9.848 7.416C9.624 7.632 9.4 7.848 9.176 8.064C8.952 8.28 8.76 8.532 8.6 8.82C8.44 9.1 8.36 9.4 8.36 9.72H7.52ZM8.408 11.928C8.28 12.056 8.124 12.12 7.94 12.12C7.756 12.12 7.6 12.056 7.472 11.928C7.344 11.8 7.28 11.644 7.28 11.46C7.28 11.276 7.344 11.12 7.472 10.992C7.6 10.864 7.756 10.8 7.94 10.8C8.124 10.8 8.28 10.864 8.408 10.992C8.536 11.12 8.6 11.276 8.6 11.46C8.6 11.644 8.536 11.8 8.408 11.928Z" fill="#4B4D7C"/>
<circle cx="8" cy="8" r="7.5" stroke="#4B4D7C"/>
</svg>
