<svg width="20" height="22" viewBox="0 0 20 22" fill="none" xmlns="http://www.w3.org/2000/svg">
<g id="icon">
<path id="search" d="M3.46736 7.76955L3.79057 8.15591L3.40182 8.47624C3.39917 8.47843 3.39665 8.48064 3.39426 8.48286L0.537187 11.1421C0.507176 11.1701 0.49929 11.198 0.49929 11.2194C0.49929 11.2407 0.507175 11.2686 0.537186 11.2966C0.608211 11.3627 0.737206 11.3627 0.808229 11.2966L3.66529 8.63731L3.6653 8.6373L3.67212 8.63055L3.97361 8.31356L4.32784 8.57028C6.25268 9.96526 9.04429 9.83568 10.808 8.19409C12.6994 6.4336 12.6994 3.59516 10.808 1.83467C8.89606 0.055109 5.78237 0.0551089 3.87044 1.83467C2.12184 3.46222 1.99254 6.00657 3.46736 7.76955ZM4.14148 8.03965C2.35111 6.37322 2.35111 3.65553 4.14148 1.98911C5.91136 0.341757 8.76706 0.341757 10.5369 1.98911C12.3273 3.65553 12.3273 6.37322 10.5369 8.03965C8.76706 9.687 5.91136 9.687 4.14148 8.03965Z" fill="#3A3A3A" stroke="#3A3A3A"/>
<g id="Rectangle 2">
<mask id="path-2-inside-1_248_3956" fill="white">
<rect y="15.2307" width="5.45455" height="6.76923" rx="1"/>
</mask>
<rect y="15.2307" width="5.45455" height="6.76923" rx="1" stroke="#3A3A3A" stroke-width="2.4" mask="url(#path-2-inside-1_248_3956)"/>
</g>
<g id="Rectangle 3">
<mask id="path-3-inside-2_248_3956" fill="white">
<rect x="7.27344" y="11.8462" width="5.45455" height="10.1538" rx="1"/>
</mask>
<rect x="7.27344" y="11.8462" width="5.45455" height="10.1538" rx="1" stroke="#3A3A3A" stroke-width="2.4" mask="url(#path-3-inside-2_248_3956)"/>
</g>
<g id="Rectangle 4">
<mask id="path-4-inside-3_248_3956" fill="white">
<rect x="14.5449" y="6.76929" width="5.45455" height="15.2308" rx="1"/>
</mask>
<rect x="14.5449" y="6.76929" width="5.45455" height="15.2308" rx="1" stroke="#3A3A3A" stroke-width="2.4" mask="url(#path-4-inside-3_248_3956)"/>
</g>
</g>
</svg>
