<svg width="32.000000" height="32.000000" viewBox="0 0 32 32" fill="none" xmlns="http://www.w3.org/2000/svg" xmlns:xlink="http://www.w3.org/1999/xlink">
	<desc>
			Created with Pixso.
	</desc>
	<defs>
		<clipPath id="clip435_6662">
			<rect id="logos:whatsapp-icon" rx="-0.500000" width="31.000000" height="31.000000" transform="translate(0.500000 0.500000)" fill="white" fill-opacity="0"/>
		</clipPath>
		<linearGradient x1="1545.136230" y1="3089.775391" x2="1545.136230" y2="0.553955" id="paint_linear_435_6664_0" gradientUnits="userSpaceOnUse">
			<stop stop-color="#1FAF38"/>
			<stop offset="1.000000" stop-color="#60D669"/>
		</linearGradient>
		<linearGradient x1="1600.000000" y1="3200.000000" x2="1600.000000" y2="0.000000" id="paint_linear_435_6665_0" gradientUnits="userSpaceOnUse">
			<stop stop-color="#F9F9F9"/>
			<stop offset="1.000000" stop-color="#FFFFFF"/>
		</linearGradient>
	</defs>
	<rect id="logos:whatsapp-icon" rx="-0.500000" width="31.000000" height="31.000000" transform="translate(0.500000 0.500000)" fill="#FFFFFF" fill-opacity="0"/>
	<g clip-path="url(#clip435_6662)">
		<path id="Vector" d="M0.68 15.86C0.68 18.55 1.39 21.19 2.73 23.51L0.55 31.44L8.7 29.31C10.96 30.54 13.49 31.18 16.05 31.18L16.06 31.18C24.54 31.18 31.44 24.31 31.44 15.87C31.44 11.78 29.84 7.93 26.94 5.04C24.04 2.15 20.17 0.55 16.06 0.55C7.58 0.55 0.68 7.42 0.68 15.86Z" fill="url(#paint_linear_435_6664_0)" fill-opacity="1.000000" fill-rule="nonzero"/>
		<path id="Vector" d="M0.13 15.85C0.13 18.65 0.86 21.37 2.25 23.78L0 32L8.44 29.79C10.77 31.05 13.39 31.72 16.06 31.72L16.06 31.72C24.84 31.72 31.99 24.61 32 15.86C32 11.63 30.34 7.64 27.33 4.65C24.33 1.65 20.33 0 16.06 0C7.28 0 0.13 7.11 0.13 15.85ZM5.16 23.36L4.84 22.87C3.52 20.77 2.82 18.34 2.82 15.85C2.82 8.59 8.76 2.67 16.07 2.67C19.6 2.67 22.93 4.05 25.43 6.54C27.93 9.03 29.31 12.34 29.31 15.86C29.3 23.13 23.36 29.04 16.06 29.04L16.06 29.04C13.68 29.04 11.35 28.41 9.32 27.21L8.83 26.92L3.82 28.23L5.16 23.36Z" fill="url(#paint_linear_435_6665_0)" fill-opacity="1.000000" fill-rule="nonzero"/>
		<path id="Vector" d="M12.08 9.22C11.78 8.56 11.47 8.55 11.19 8.54C10.95 8.53 10.69 8.53 10.42 8.53C10.16 8.53 9.73 8.63 9.36 9.02C9 9.42 7.97 10.38 7.97 12.33C7.97 14.28 9.39 16.16 9.59 16.43C9.79 16.69 12.35 20.82 16.39 22.41C19.76 23.73 20.44 23.47 21.17 23.4C21.9 23.34 23.53 22.44 23.86 21.52C24.19 20.59 24.19 19.8 24.09 19.63C23.99 19.47 23.73 19.37 23.33 19.17C22.93 18.97 20.97 18.01 20.61 17.88C20.24 17.75 19.98 17.68 19.71 18.08C19.45 18.48 18.68 19.37 18.45 19.63C18.22 19.9 17.99 19.93 17.59 19.73C17.19 19.53 15.91 19.12 14.39 17.77C13.2 16.72 12.41 15.42 12.17 15.02C11.94 14.63 12.15 14.41 12.35 14.21C12.53 14.04 12.75 13.75 12.94 13.52C13.14 13.29 13.21 13.12 13.34 12.86C13.48 12.59 13.41 12.36 13.31 12.16C13.21 11.97 12.43 10.01 12.08 9.22Z" fill="#FFFFFF" fill-opacity="1.000000" fill-rule="nonzero"/>
	</g>
</svg>
