<svg width="20" height="22" viewBox="0 0 20 22" fill="none" xmlns="http://www.w3.org/2000/svg">
<g id="&#208;&#189;&#208;&#176;&#208;&#186;&#208;&#187;&#208;&#176;&#208;&#180;&#208;&#189;&#209;&#139;&#208;&#181;">
<path id="Vector" fill-rule="evenodd" clip-rule="evenodd" d="M15.5385 6.43333C15.5385 5.9292 15.344 5.44597 14.9975 5.09003C14.6517 4.73347 14.1822 4.53333 13.6923 4.53333C11.3342 4.53333 6.20431 4.53333 3.84615 4.53333C3.35631 4.53333 2.88677 4.73347 2.54092 5.09003C2.19446 5.44597 2 5.9292 2 6.43333C2 9.296 2 16.2373 2 19.1C2 19.6041 2.19446 20.0874 2.54092 20.4433C2.88677 20.7999 3.35631 21 3.84615 21C6.20431 21 11.3342 21 13.6923 21C14.1822 21 14.6517 20.7999 14.9975 20.4433C15.344 20.0874 15.5385 19.6041 15.5385 19.1V6.43333ZM14.3077 6.43333V19.1C14.3077 19.2678 14.2431 19.4293 14.1274 19.5478C14.0123 19.6668 13.8554 19.7333 13.6923 19.7333H3.84615C3.68308 19.7333 3.52615 19.6668 3.41108 19.5478C3.29538 19.4293 3.23077 19.2678 3.23077 19.1V6.43333C3.23077 6.2655 3.29538 6.104 3.41108 5.98557C3.52615 5.8665 3.68308 5.8 3.84615 5.8H13.6923C13.8554 5.8 14.0123 5.8665 14.1274 5.98557C14.2431 6.104 14.3077 6.2655 14.3077 6.43333ZM18 17.8333V3.9C18 3.39587 17.8055 2.91263 17.4591 2.5567C17.1132 2.20013 16.6437 2 16.1538 2C13.0369 2 5.07692 2 5.07692 2C4.73723 2 4.46154 2.28373 4.46154 2.63333C4.46154 2.98293 4.73723 3.26667 5.07692 3.26667C5.07692 3.26667 13.0369 3.26667 16.1538 3.26667C16.3169 3.26667 16.4738 3.33317 16.5889 3.45223C16.7046 3.57067 16.7692 3.73217 16.7692 3.9V17.8333C16.7692 18.1829 17.0449 18.4667 17.3846 18.4667C17.7243 18.4667 18 18.1829 18 17.8333ZM5.07692 15.9333H12.4615C12.8012 15.9333 13.0769 15.6496 13.0769 15.3C13.0769 14.9504 12.8012 14.6667 12.4615 14.6667H5.07692C4.73723 14.6667 4.46154 14.9504 4.46154 15.3C4.46154 15.6496 4.73723 15.9333 5.07692 15.9333ZM5.07692 13.4H12.4615C12.8012 13.4 13.0769 13.1163 13.0769 12.7667C13.0769 12.4171 12.8012 12.1333 12.4615 12.1333H5.07692C4.73723 12.1333 4.46154 12.4171 4.46154 12.7667C4.46154 13.1163 4.73723 13.4 5.07692 13.4ZM5.07692 10.8667H8.76923C9.10892 10.8667 9.38462 10.5829 9.38462 10.2333C9.38462 9.88373 9.10892 9.6 8.76923 9.6H5.07692C4.73723 9.6 4.46154 9.88373 4.46154 10.2333C4.46154 10.5829 4.73723 10.8667 5.07692 10.8667Z" fill="#3A3A3A"/>
</g>
</svg>
