<svg width="32" height="32" viewBox="0 0 32 32" fill="none" xmlns="http://www.w3.org/2000/svg">
<path d="M29.9704 8.18982H29.0343V6.91781C29.0343 6.45988 28.7067 6.10372 28.2855 6.10372H27.8175L27.7707 4.06849C27.7707 3.45793 27.3495 3 26.8814 3H25.4774C24.9626 3 24.5881 3.45793 24.5881 4.06849L24.5413 6.10372H24.0733C23.6521 6.10372 23.3245 6.45988 23.3245 6.91781V8.18982H8.62871V6.91781C8.62871 6.45988 8.30109 6.10372 7.87988 6.10372H7.41186L7.36506 4.06849C7.36506 3.45793 6.94384 3 6.47582 3H5.07176C4.55694 3 4.18253 3.45793 4.18253 4.06849L4.13573 6.10372H3.66771C3.24649 6.10372 2.91888 6.45988 2.91888 6.91781V8.18982H1.98284C1.46802 8.18982 1 8.69863 1 9.25832V10.8865C1 11.4462 1.46802 11.9041 1.98284 11.9041H2.17005V27.4736C2.17005 28.3386 2.77847 29 3.5741 29H28.4259C29.2215 29 29.83 28.3386 29.83 27.4736V11.9041H30.0172C30.532 11.9041 31 11.4462 31 10.8356V9.20744C30.9532 8.69863 30.4852 8.18982 29.9704 8.18982ZM25.4774 4.11937V4.01761H26.8814C26.8814 4.01761 26.9282 4.06849 26.9282 4.11937L26.975 6.1546H25.4774V4.11937ZM5.07176 4.11937V4.01761H6.47582C6.47582 4.01761 6.52262 4.06849 6.52262 4.11937L6.56942 6.1546H5.02496L5.07176 4.11937ZM24.2137 7.12133H28.1451V8.18982H24.2137V7.12133ZM3.80811 7.12133H7.73947V8.18982H3.80811V7.12133ZM28.8939 27.4736C28.8939 27.7789 28.6599 28.0333 28.3791 28.0333H3.5741C3.29329 28.0333 3.05928 27.7789 3.05928 27.4736V11.9041H28.8939V27.4736ZM30.0172 10.8865C30.0172 10.9374 30.0172 10.9374 29.9704 10.9374H1.98284C1.93604 10.9374 1.93604 10.9374 1.93604 10.8865V9.25832C1.93604 9.20744 1.98284 9.20744 1.98284 9.20744H29.9704C30.0172 9.20744 30.0172 9.25832 30.0172 9.25832V10.8865Z" fill="#2B53BE"/>
<path d="M13.1214 21.2152H15.0871L14.0106 25.7436C13.9638 25.9471 14.0574 26.2015 14.2446 26.3033C14.4318 26.4051 14.6658 26.3542 14.8063 26.1506L19.7205 19.2818C19.9545 18.9765 19.7205 18.4677 19.346 18.4677H17.5208L18.176 14.0411C18.2228 13.8375 18.0824 13.5831 17.8952 13.5323C17.708 13.4305 17.474 13.5323 17.3336 13.6849L12.6534 20.452C12.513 20.7573 12.747 21.2152 13.1214 21.2152ZM17.0527 15.8728L16.5847 18.9256C16.5379 19.2309 16.7719 19.4853 17.0527 19.4853H18.4568L15.4615 23.7084L16.1167 20.8591C16.2103 20.5538 15.9763 20.2485 15.6955 20.2485H14.0574L17.0527 15.8728ZM23.0434 15.8728H26.8811C27.1151 15.8728 27.3492 15.6692 27.3492 15.364C27.3492 15.0587 27.162 14.8551 26.8811 14.8551H23.0434C22.8094 14.8551 22.5754 15.0587 22.5754 15.364C22.5754 15.6692 22.8094 15.8728 23.0434 15.8728ZM5.02466 15.8728H6.47552V17.4501C6.47552 17.7045 6.66273 17.9589 6.94354 17.9589C7.22435 17.9589 7.41156 17.7553 7.41156 17.4501V15.8728H8.86241C9.09642 15.8728 9.33043 15.6692 9.33043 15.364C9.33043 15.0587 9.14322 14.8551 8.86241 14.8551H7.41156V13.2778C7.41156 13.0234 7.22435 12.769 6.94354 12.769C6.66273 12.769 6.47552 12.9726 6.47552 13.2778V14.8551H5.02466C4.79065 14.8551 4.55664 15.0587 4.55664 15.364C4.55664 15.6692 4.79065 15.8728 5.02466 15.8728Z" fill="#2B53BE"/>
</svg>
