<svg width="32" height="32" viewBox="0 0 32 32" fill="none" xmlns="http://www.w3.org/2000/svg">
<path d="M30.9789 17.3496C30.6723 15.3402 30.2056 13.4775 29.5919 11.813C29.3079 11.0425 28.5369 10.5248 27.6734 10.5248H19.1606V10.0854C19.1606 9.08196 18.4215 8.24194 17.44 8.04283V5.24622H17.4586C18.2185 5.24622 18.8368 4.65099 18.8368 3.91931V3.42116C18.8368 3.18852 18.641 3 18.3994 3H13.6229C13.3813 3 13.1855 3.18852 13.1855 3.42116V3.91931C13.1855 4.65093 13.8037 5.24622 14.5636 5.24622H14.5822V8.04283C13.6008 8.24194 12.8617 9.08202 12.8617 10.0854V10.5248H4.35646C3.51763 10.5248 2.77647 11.0005 2.46832 11.7367C1.73284 13.4934 1.24276 15.4055 1.01178 17.4197C0.981349 17.688 1.01003 17.9594 1.09598 18.2165C1.18193 18.4736 1.32324 18.7106 1.51083 18.9124C1.7024 19.118 1.93733 19.2825 2.20018 19.3951C2.46303 19.5077 2.74785 19.5659 3.03592 19.5658H9.96024L13.8877 22.2828C13.6354 22.4156 13.4741 22.6745 13.4741 22.9528V28.2366C13.4741 28.6576 13.8298 29 14.2669 29H17.7554C18.1926 29 18.5482 28.6576 18.5482 28.2366V22.9474C18.5482 22.6918 18.4175 22.458 18.2019 22.3169L22.1787 19.5658H28.9645C29.561 19.5658 30.1252 19.3183 30.5125 18.8866C30.7006 18.6771 30.8395 18.4315 30.92 18.1664C31.0004 17.9013 31.0205 17.6228 30.9789 17.3496ZM14.5636 4.40385C14.2861 4.40385 14.0603 4.18649 14.0603 3.91931V3.84232H17.962V3.91931C17.962 4.18649 17.7362 4.40385 17.4587 4.40385H14.5636ZM16.5652 5.24622V7.99782H15.457V5.24622H16.5652ZM13.7365 10.0854C13.7365 9.39876 14.3166 8.84019 15.0297 8.84019H16.9924C17.7055 8.84019 18.2857 9.39876 18.2857 10.0854V10.5248H13.7365V10.0854ZM17.6734 28.1576H14.3489V23.002L16.064 22.1987L17.6734 22.9956V28.1576ZM17.3338 21.8803L16.4277 21.4316C16.3182 21.3776 16.1971 21.3488 16.0739 21.3475C15.9507 21.3462 15.8289 21.3724 15.7182 21.424L14.7804 21.8632L11.4595 19.5658H20.6793L17.3338 21.8803ZM29.8504 18.3361C29.6294 18.5823 29.3065 18.7235 28.9644 18.7235H3.03581C2.70129 18.7235 2.38295 18.5875 2.1624 18.3504C1.94583 18.1176 1.84599 17.8198 1.88126 17.512C2.10357 15.5743 2.57408 13.7371 3.27968 12.0515C3.45106 11.6421 3.88372 11.3671 4.3564 11.3671H27.6734C28.1674 11.3671 28.607 11.6595 28.7674 12.0946C29.3621 13.7076 29.815 15.5168 30.1133 17.4719C30.1614 17.7867 30.0679 18.0936 29.8504 18.3361Z" fill="#2B53BE"/>
<path d="M29.5356 17.5537C29.2428 15.6346 28.7992 13.8612 28.2171 12.2824C28.139 12.0709 27.9203 11.9287 27.6728 11.9287H4.3558C4.11873 11.9287 3.90345 12.0624 3.82001 12.2615C3.13428 13.8996 2.67684 15.6868 2.46045 17.5729C2.44322 17.7201 2.4915 17.8632 2.59615 17.9757C2.70789 18.0958 2.86375 18.162 3.0352 18.162H21.8003C21.9171 18.162 22.0293 18.1176 22.1119 18.0386C22.1946 17.9596 22.241 17.8525 22.241 17.7408C22.241 17.6291 22.1946 17.522 22.1119 17.443C22.0293 17.364 21.9171 17.3196 21.8003 17.3196H3.37259C3.58476 15.7111 3.98068 14.1834 4.55133 12.771H27.4677C27.9587 14.1472 28.3435 15.6748 28.6136 17.3196H24.366C24.2491 17.3196 24.137 17.364 24.0544 17.443C23.9717 17.522 23.9253 17.6291 23.9253 17.7408C23.9253 17.8525 23.9717 17.9596 24.0544 18.0386C24.137 18.1176 24.2491 18.162 24.366 18.162H28.9638C29.1388 18.162 29.2967 18.0933 29.4082 17.9691C29.469 17.9015 29.5663 17.7577 29.5356 17.5537Z" fill="#2B53BE"/>
</svg>
