<svg width="32" height="32" viewBox="0 0 32 32" fill="none" xmlns="http://www.w3.org/2000/svg">
<path d="M15.5484 21.6064C15.5484 21.5355 15.5484 21.4651 15.5412 21.3937L14.7996 11.097C14.7473 10.3724 14.4231 9.69439 13.892 9.19882C13.3608 8.70325 12.662 8.42676 11.9356 8.42478H11.0323V7.49265C11.2693 7.45849 11.4955 7.37094 11.6937 7.23661C11.8918 7.10228 12.0569 6.92468 12.1765 6.71721C12.296 6.50974 12.3668 6.27783 12.3836 6.03898C12.4004 5.80014 12.3627 5.5606 12.2734 5.33846L11.787 4.12272C11.6554 3.79072 11.4268 3.50606 11.1311 3.30581C10.8354 3.10556 10.4863 2.999 10.1291 3.00001H7.41951C7.0622 2.99898 6.71287 3.10557 6.41701 3.3059C6.12115 3.50623 5.89247 3.79102 5.76076 4.12317L5.27484 5.33936C5.18568 5.56149 5.14813 5.80097 5.16502 6.03973C5.18192 6.27849 5.25282 6.5103 5.37237 6.71766C5.49192 6.92502 5.65701 7.10252 5.85517 7.23677C6.05333 7.37102 6.27939 7.45851 6.5163 7.49265V8.42478H5.61309C4.88673 8.42676 4.18796 8.70318 3.65682 9.19866C3.12568 9.69413 2.80141 10.372 2.74901 11.0965L2.00747 21.3933C2.00025 21.4651 2.00025 21.5355 2.00025 21.6064C2.00096 22.0918 2.11685 22.57 2.33841 23.0018C2.55996 23.4336 2.88085 23.8067 3.27468 24.0903C2.80727 24.3508 2.43648 24.7553 2.2175 25.2435C1.99853 25.7318 1.94308 26.2777 2.05941 26.8L2.6203 29.324C2.7238 29.8006 2.98785 30.2271 3.36823 30.5321C3.74862 30.8372 4.22227 31.0024 4.70988 31H12.8388C13.3264 31.0024 13.8001 30.8371 14.1805 30.532C14.5609 30.2268 14.8249 29.8002 14.9283 29.3236L15.4892 26.8C15.6056 26.2777 15.5501 25.7318 15.3311 25.2435C15.1122 24.7553 14.7414 24.3508 14.274 24.0903C14.6678 23.8067 14.9887 23.4336 15.2102 23.0018C15.4318 22.57 15.5477 22.0918 15.5484 21.6064ZM11.9356 21.6064C11.6622 21.8371 11.3168 21.9649 10.9592 21.9677H6.58946C6.23181 21.9649 5.88641 21.8371 5.61309 21.6064V21.5775C5.61309 20.9566 5.59593 20.3333 5.58464 19.711H11.964C11.9527 20.332 11.9356 20.9552 11.9356 21.5762V21.6064ZM11.9776 18.8064H5.57109C5.53466 17.4516 5.47068 16.0968 5.37916 14.7419H12.1695C12.0801 16.0968 12.0161 17.4516 11.9776 18.8064ZM5.61309 22.6623C5.92058 22.7987 6.25306 22.8698 6.58946 22.871H10.9592C11.2956 22.8698 11.6281 22.7987 11.9356 22.6623V23.7742H5.61309V22.6623ZM6.06469 5.92826C6.0648 5.84134 6.08135 5.75522 6.11347 5.67446L6.59984 4.45826C6.6648 4.29404 6.77776 4.15322 6.92399 4.05421C7.07022 3.95519 7.24291 3.90257 7.41951 3.90323H10.1291C10.3057 3.9026 10.4783 3.95524 10.6244 4.05426C10.7706 4.15328 10.8835 4.29408 10.9483 4.45826L11.4347 5.674C11.4764 5.77783 11.4919 5.89027 11.48 6.0015C11.4681 6.11273 11.4291 6.21934 11.3665 6.312C11.3038 6.40466 11.2194 6.48055 11.1206 6.533C11.0218 6.58546 10.9116 6.6129 10.7998 6.61291H6.74887C6.56741 6.61267 6.39346 6.54044 6.26519 6.41209C6.13692 6.28373 6.06481 6.10973 6.06469 5.92826ZM7.41951 7.51613H10.1291V8.42478H7.41951V7.51613ZM11.9356 9.328C12.1807 9.32763 12.4237 9.3736 12.6518 9.46348C12.4827 10.9182 12.3447 12.3763 12.2377 13.8369H5.31096C5.20122 12.3737 5.068 10.9141 4.89684 9.46348C5.12492 9.3736 5.36794 9.32763 5.61309 9.328H11.9356ZM2.90843 21.4588L3.64996 11.162C3.6775 10.7764 3.81897 10.4076 4.05641 10.1025C4.48786 13.9119 4.70602 17.7424 4.70988 21.5762V23.7376C4.20583 23.6524 3.74811 23.3918 3.41757 23.0018C3.08703 22.6119 2.90494 22.1176 2.90346 21.6064C2.90346 21.5568 2.90346 21.5071 2.90843 21.4588ZM14.0468 29.1276C13.987 29.4031 13.8344 29.6497 13.6144 29.8261C13.3945 30.0026 13.1207 30.0981 12.8388 30.0968H4.70988C4.42795 30.0981 4.15411 30.0026 3.9342 29.8261C3.71429 29.6497 3.56165 29.4031 3.50183 29.1276L3.03081 27.0077C3.41959 27.255 3.87069 27.3866 4.33143 27.3871H13.2172C13.678 27.3866 14.1291 27.255 14.5178 27.0077L14.0468 29.1276ZM13.0646 24.6774C13.3874 24.6783 13.7022 24.778 13.9667 24.9631C14.2312 25.1482 14.4327 25.4099 14.544 25.7129C14.4105 25.9471 14.2175 26.1417 13.9845 26.2771C13.7514 26.4125 13.4867 26.4838 13.2172 26.4839H4.33143C4.06231 26.4834 3.79807 26.4119 3.56547 26.2766C3.33287 26.1412 3.14017 25.9468 3.00688 25.7129C3.11821 25.4099 3.31967 25.1482 3.58416 24.9631C3.84865 24.778 4.16349 24.6783 4.48633 24.6774H13.0646ZM12.8388 23.7376V21.5762C12.8427 17.742 13.061 13.911 13.4927 10.1012C13.7302 10.4066 13.8717 10.7756 13.8991 11.1615L14.6407 21.4583C14.6443 21.508 14.6456 21.5577 14.6456 21.6073C14.6439 22.1185 14.4617 22.6125 14.1311 23.0023C13.8005 23.3921 13.3427 23.6525 12.8388 23.7376ZM29.9998 21.6064C29.9998 21.5355 29.9975 21.4651 29.9925 21.3937L29.251 11.097C29.1987 10.3724 28.8745 9.69439 28.3433 9.19882C27.8122 8.70325 27.1133 8.42676 26.3869 8.42478H25.4837V7.49265C25.7207 7.45849 25.9468 7.37094 26.145 7.23661C26.3432 7.10228 26.5083 6.92468 26.6278 6.71721C26.7473 6.50974 26.8182 6.27783 26.8349 6.03898C26.8517 5.80014 26.814 5.5606 26.7247 5.33846L26.2383 4.12272C26.1067 3.79072 25.8782 3.50606 25.5825 3.30581C25.2868 3.10556 24.9376 2.999 24.5805 3.00001H21.8709C21.5136 2.99898 21.1642 3.10557 20.8684 3.3059C20.5725 3.50623 20.3438 3.79102 20.2121 4.12317L19.7262 5.33936C19.637 5.56149 19.5995 5.80097 19.6164 6.03973C19.6333 6.27849 19.7042 6.5103 19.8237 6.71766C19.9433 6.92502 20.1084 7.10252 20.3065 7.23677C20.5047 7.37102 20.7307 7.45851 20.9677 7.49265V8.42478H20.0644C19.3381 8.42676 18.6393 8.70318 18.1082 9.19866C17.577 9.69413 17.2528 10.372 17.2004 11.0965L16.4588 21.3933C16.4539 21.4638 16.4515 21.5344 16.4516 21.6051C16.4523 22.0904 16.5682 22.5686 16.7898 23.0005C17.0113 23.4323 17.3322 23.8053 17.726 24.0889C17.2586 24.3494 16.8878 24.7539 16.6689 25.2422C16.4499 25.7304 16.3944 26.2763 16.5108 26.7986L17.0717 29.3227C17.1749 29.7994 17.4388 30.2263 17.8192 30.5316C18.1996 30.837 18.6734 31.0023 19.1612 31H27.2901C27.7778 31.0024 28.2515 30.8371 28.6319 30.532C29.0123 30.2268 29.2763 29.8002 29.3797 29.3236L29.9406 26.8C30.0569 26.2777 30.0015 25.7318 29.7825 25.2435C29.5635 24.7553 29.1927 24.3508 28.7253 24.0903C29.1192 23.8067 29.44 23.4336 29.6616 23.0018C29.8831 22.57 29.999 22.0918 29.9998 21.6064ZM26.3869 21.6064C26.1136 21.8371 25.7682 21.9649 25.4105 21.9677H21.0408C20.6832 21.9649 20.3378 21.8371 20.0644 21.6064V21.5775C20.0644 20.9566 20.0473 20.3333 20.036 19.711H26.4154C26.4041 20.332 26.3869 20.9552 26.3869 21.5762V21.6064ZM26.4289 18.8064H20.0224C19.986 17.4516 19.922 16.0968 19.8305 14.7419H26.6208C26.5314 16.0968 26.4674 17.4516 26.4289 18.8064ZM20.0644 22.6623C20.3719 22.7987 20.7044 22.8698 21.0408 22.871H25.4105C25.7469 22.8698 26.0794 22.7987 26.3869 22.6623V23.7742H20.0644V22.6623ZM20.516 5.92826C20.5162 5.84134 20.5327 5.75522 20.5648 5.67446L21.0512 4.45826C21.1162 4.29404 21.2291 4.15322 21.3753 4.05421C21.5216 3.95519 21.6943 3.90257 21.8709 3.90323H24.5805C24.757 3.9026 24.9296 3.95524 25.0758 4.05426C25.2219 4.15328 25.3348 4.29408 25.3997 4.45826L25.8861 5.674C25.9277 5.77783 25.9433 5.89027 25.9314 6.0015C25.9195 6.11273 25.8805 6.21934 25.8178 6.312C25.7552 6.40466 25.6707 6.48055 25.5719 6.533C25.4731 6.58546 25.363 6.6129 25.2511 6.61291H21.2002C21.0188 6.61267 20.8448 6.54044 20.7165 6.41209C20.5883 6.28373 20.5162 6.10973 20.516 5.92826ZM21.8709 7.51613H24.5805V8.42478H21.8709V7.51613ZM26.3869 9.328C26.6321 9.32763 26.8751 9.3736 27.1032 9.46348C26.9341 10.9182 26.796 12.3763 26.689 13.8369H19.7623C19.6526 12.3737 19.5194 10.9141 19.3482 9.46348C19.5763 9.3736 19.8193 9.32763 20.0644 9.328H26.3869ZM17.3598 21.4588L18.1013 11.162C18.1289 10.7764 18.2703 10.4076 18.5078 10.1025C18.9392 13.9119 19.1574 17.7424 19.1612 21.5762V23.7376C18.6572 23.6524 18.1995 23.3918 17.8689 23.0018C17.5384 22.6119 17.3563 22.1176 17.3548 21.6064C17.3548 21.5568 17.3548 21.5071 17.3598 21.4588ZM28.4982 29.1276C28.4383 29.4031 28.2857 29.6497 28.0658 29.8261C27.8459 30.0026 27.572 30.0981 27.2901 30.0968H19.1612C18.8793 30.0981 18.6055 30.0026 18.3856 29.8261C18.1656 29.6497 18.013 29.4031 17.9532 29.1276L17.4822 27.0077C17.8709 27.255 18.322 27.3866 18.7828 27.3871H27.6686C28.1293 27.3866 28.5804 27.255 28.9692 27.0077L28.4982 29.1276ZM27.5159 24.6774C27.8388 24.6783 28.1536 24.778 28.4181 24.9631C28.6826 25.1482 28.884 25.4099 28.9954 25.7129C28.8619 25.9471 28.6688 26.1417 28.4358 26.2771C28.2028 26.4125 27.9381 26.4838 27.6686 26.4839H18.7828C18.5137 26.4834 18.2494 26.4119 18.0168 26.2766C17.7842 26.1412 17.5915 25.9468 17.4582 25.7129C17.5696 25.4099 17.771 25.1482 18.0355 24.9631C18.3 24.778 18.6148 24.6783 18.9377 24.6774H27.5159ZM27.2901 23.7376V21.5762C27.294 17.742 27.5124 13.911 27.944 10.1012C28.1816 10.4066 28.323 10.7756 28.3505 11.1615L29.092 21.4583C29.0956 21.508 29.097 21.5577 29.097 21.6073C29.0953 22.1185 28.913 22.6125 28.5824 23.0023C28.2518 23.3921 27.7941 23.6525 27.2901 23.7376Z" fill="#2B53BE"/>
</svg>
