<svg width="32" height="32" viewBox="0 0 32 32" fill="none" xmlns="http://www.w3.org/2000/svg">
<path d="M27.9268 18.5377C27.9737 18.4851 27.9998 18.4155 27.9997 18.3431V4.28343C27.9998 4.24217 27.9914 4.20138 27.9751 4.16394C27.9587 4.12649 27.9348 4.0933 27.9051 4.06668C27.8754 4.04006 27.8405 4.02067 27.803 4.00987C27.7654 3.99906 27.7261 3.9971 27.6877 4.00413C17.146 5.9227 9.41406 10.7051 4.05022 18.6247C4.0176 18.6728 4.00004 18.7306 4 18.7898V27.7167C4 27.7919 4.02814 27.8639 4.07824 27.917C4.12833 27.9702 4.19628 28 4.26712 28H26.8383C26.9091 28 26.9771 27.9702 27.0272 27.917C27.0773 27.8639 27.1054 27.7919 27.1054 27.7167V26.7899H27.7329C27.8037 26.7899 27.8717 26.76 27.9218 26.7069C27.9719 26.6538 28 26.5817 28 26.5066V21.5177C28 21.4426 27.9719 21.3705 27.9218 21.3174C27.8717 21.2643 27.8037 21.2344 27.7329 21.2344H27.1054V19.4603L27.9268 18.5377ZM26.5712 27.4332H4.53425V18.8811C9.75732 11.2107 17.2611 6.54306 27.4658 4.62024V18.2307L26.6443 19.153C26.5975 19.2056 26.5714 19.2752 26.5714 19.3476V27.4335L26.5712 27.4332ZM27.4658 21.8004V26.2228H27.1054V21.8004H27.4658Z" fill="#2B53BE"/>
<path d="M26.9297 17.8923V7.37911C26.9297 6.86073 26.7101 6.37833 26.3273 6.05512C26.1417 5.89741 25.9248 5.78634 25.6929 5.73026C25.461 5.67418 25.2202 5.67455 24.9885 5.73135C16.9331 7.6958 10.9586 11.4103 6.34056 17.3399C6.32673 17.3538 6.31445 17.3693 6.30396 17.3861C5.8952 17.9093 5.50041 18.4446 5.12007 18.9914C5.09087 19.0336 5.07328 19.0835 5.06925 19.1357C5.06522 19.1879 5.07492 19.2402 5.09726 19.2869C5.11959 19.3335 5.1537 19.3727 5.19578 19.4001C5.23787 19.4274 5.28628 19.4419 5.33564 19.4418C5.34071 19.4418 5.34552 19.4418 5.35059 19.4412L26.6775 18.1747C26.7456 18.1707 26.8097 18.1391 26.8566 18.0865C26.9035 18.034 26.9296 17.9647 26.9297 17.8923ZM25.1084 6.284C25.2618 6.24656 25.4212 6.2464 25.5746 6.28354C25.728 6.32067 25.8716 6.39414 25.9945 6.49843C26.1197 6.60352 26.2209 6.73737 26.2904 6.88992C26.3598 7.04246 26.3957 7.20972 26.3954 7.37911V16.0805L7.13071 17.2244C11.6197 11.6723 17.3931 8.16518 25.1084 6.284ZM5.89152 18.8418C6.1403 18.4962 6.3951 18.1554 6.65576 17.8198L26.3954 16.6479V17.6246L5.89152 18.8418Z" fill="#2B53BE"/>
<path d="M13.6944 12.4537C13.7448 12.4537 13.7961 12.4384 13.8418 12.4067C15.2202 11.4376 16.7222 10.5694 18.3062 9.82555C18.3693 9.79397 18.4182 9.7375 18.4425 9.6682C18.4669 9.59889 18.4647 9.52225 18.4364 9.45464C18.4082 9.38704 18.3561 9.33382 18.2913 9.30637C18.2266 9.27892 18.1543 9.27941 18.0899 9.30773C16.4789 10.0643 14.9501 10.9479 13.5466 11.9342C13.4991 11.968 13.463 12.0171 13.4438 12.0743C13.4245 12.1315 13.423 12.1937 13.4395 12.2518C13.4561 12.3099 13.4897 12.3609 13.5356 12.3973C13.5815 12.4336 13.6371 12.4534 13.6944 12.4537ZM11.482 14.1777C11.5434 14.1778 11.6028 14.1553 11.6503 14.1142C12.0015 13.8121 12.3594 13.5188 12.7236 13.2347C12.7523 13.2128 12.7766 13.1851 12.7951 13.1532C12.8136 13.1213 12.826 13.0859 12.8315 13.0489C12.837 13.0119 12.8355 12.9741 12.8272 12.9377C12.8188 12.9013 12.8038 12.867 12.7828 12.8369C12.7619 12.8067 12.7355 12.7812 12.7053 12.7619C12.675 12.7426 12.6414 12.7299 12.6065 12.7245C12.5715 12.719 12.5359 12.721 12.5017 12.7302C12.4675 12.7395 12.4353 12.7558 12.4071 12.7783C12.0359 13.0679 11.6713 13.3667 11.3135 13.6746C11.2707 13.7115 11.2397 13.7616 11.2248 13.8179C11.2099 13.8742 11.2118 13.9341 11.2303 13.9892C11.2487 14.0444 11.2829 14.0921 11.3279 14.1258C11.373 14.1596 11.4269 14.1777 11.482 14.1777ZM24.581 19.013L20.9185 19.2306C20.6789 19.2451 20.4547 19.3598 20.2948 19.5495C20.135 19.7392 20.0526 19.9884 20.0658 20.2424C20.0722 20.3683 20.102 20.4915 20.1535 20.6051C20.205 20.7187 20.2773 20.8203 20.366 20.9041C20.4544 20.9884 20.5577 21.0532 20.6699 21.0948C20.7822 21.1365 20.901 21.1541 21.0197 21.1466L24.682 20.9291C24.8007 20.9225 24.9171 20.8909 25.0242 20.8363C25.1314 20.7816 25.2272 20.7049 25.3062 20.6107C25.3858 20.517 25.447 20.4075 25.4862 20.2885C25.5255 20.1695 25.542 20.0434 25.5349 19.9175C25.5286 19.7916 25.4989 19.6682 25.4473 19.5546C25.3958 19.441 25.3235 19.3393 25.2346 19.2555C25.1465 19.1708 25.0433 19.1056 24.931 19.064C24.8187 19.0223 24.6997 19.005 24.581 19.013ZM24.9079 20.2334C24.842 20.3115 24.7511 20.358 24.6523 20.3639L20.9898 20.5815C20.9411 20.5844 20.8924 20.577 20.8465 20.5599C20.8005 20.5429 20.7582 20.5163 20.7219 20.4819C20.6856 20.4474 20.656 20.4057 20.6349 20.3592C20.6138 20.3126 20.6015 20.2621 20.5988 20.2106C20.5961 20.159 20.603 20.1073 20.6192 20.0586C20.6353 20.0098 20.6603 19.9649 20.6928 19.9265C20.7253 19.888 20.7646 19.8566 20.8085 19.8342C20.8524 19.8119 20.9 19.7989 20.9486 19.796L24.6109 19.5784L24.632 19.5779C24.7231 19.5779 24.8102 19.613 24.8788 19.6782C24.9526 19.7481 24.9964 19.8444 25.002 19.9495C25.0076 20.0541 24.9742 20.1552 24.9079 20.2334Z" fill="#2B53BE"/>
</svg>
