<svg width="32" height="32" viewBox="0 0 32 32" fill="none" xmlns="http://www.w3.org/2000/svg">
<path fill-rule="evenodd" clip-rule="evenodd" d="M15.9998 2C8.27323 2 2 8.27279 2 15.9998C2 23.7264 8.27323 30 15.9998 30C23.7268 30 30 23.7264 30 15.9998C30 8.27279 23.7268 2 15.9998 2ZM15.9998 2.98434C8.81638 2.98434 2.98429 8.81643 2.98429 15.9999C2.98429 23.1833 8.81638 29.0154 15.9998 29.0154C23.1836 29.0154 29.0157 23.1833 29.0157 15.9999C29.0157 8.81643 23.1836 2.98434 15.9998 2.98434ZM15.9998 3.99316C22.6266 3.99316 28.0065 9.37297 28.0065 15.9999C28.0065 22.6263 22.6267 28.0065 15.9998 28.0065C9.37335 28.0065 3.99311 22.6263 3.99311 15.9999C3.99311 9.37297 9.37335 3.99316 15.9998 3.99316ZM15.9998 4.9775C22.0835 4.9775 27.0222 9.91667 27.0222 15.9999C27.0222 22.0831 22.0834 27.0222 15.9998 27.0222C9.91656 27.0222 4.97745 22.0831 4.97745 15.9999C4.97745 9.91661 9.91656 4.9775 15.9998 4.9775Z" fill="#2B53BE"/>
<path fill-rule="evenodd" clip-rule="evenodd" d="M20.8276 26.0618L17.3312 21.5628C16.9804 21.1115 16.4406 20.8477 15.8691 20.8477C15.2976 20.8477 14.7583 21.1115 14.4075 21.5628L10.8707 26.1132L10.0386 25.581L13.6311 20.9597C14.1677 20.2685 14.9938 19.8641 15.8691 19.8641C16.7444 19.8641 17.5706 20.2684 18.1077 20.9597L21.6806 25.5565L20.8276 26.0618ZM4.76586 13.3435L10.4516 15.3969C10.8578 15.5437 11.225 15.7813 11.5254 16.0916C11.8258 16.402 12.0513 16.7768 12.1847 17.1875C12.3182 17.5983 12.356 18.0341 12.2954 18.4617C12.2348 18.8893 12.0773 19.2974 11.835 19.6549L8.53702 24.5172L7.78798 23.8703L11.0209 19.1025C11.1793 18.8691 11.2822 18.6025 11.3218 18.3233C11.3614 18.044 11.3366 17.7594 11.2493 17.4911C11.1621 17.223 11.0149 16.9782 10.8188 16.7756C10.6227 16.573 10.3829 16.4178 10.1177 16.3219L4.42383 14.2663L4.76586 13.3435ZM26.95 13.3523L27.2685 14.2828L21.621 16.3219C21.3557 16.4177 21.1158 16.5729 20.9196 16.7755C20.7234 16.9782 20.5761 17.2229 20.4888 17.4912C20.4017 17.7594 20.377 18.044 20.4165 18.3233C20.4561 18.6025 20.559 18.8691 20.7172 19.1025L23.9448 23.8616L23.193 24.5058L19.9031 19.6549C19.6608 19.2974 19.5033 18.8893 19.4427 18.4617C19.3821 18.0341 19.42 17.5983 19.5534 17.1876C19.6869 16.7768 19.9124 16.402 20.2127 16.0917C20.5131 15.7813 20.8804 15.5437 21.2865 15.3969L26.95 13.3523ZM26.3986 11.6076L20.6008 13.2861C20.186 13.4062 19.7492 13.4299 19.3239 13.3554C18.8985 13.2808 18.4958 13.1101 18.1465 12.8561C17.797 12.6025 17.5101 12.2722 17.3078 11.8907C17.1056 11.5091 16.9932 11.0864 16.9794 10.6547L16.7839 4.62915H17.7679L17.9624 10.6225C17.9713 10.9044 18.0446 11.1806 18.1767 11.4299C18.3089 11.6792 18.4963 11.8949 18.7246 12.0606C18.9528 12.2263 19.2157 12.3378 19.4934 12.3865C19.7712 12.4351 20.0564 12.4197 20.3272 12.3415L26.0255 10.6919L26.3986 11.6076ZM5.78269 10.7121L11.4111 12.3415C11.682 12.4198 11.9673 12.4352 12.2451 12.3865C12.5229 12.3378 12.786 12.2264 13.0142 12.0606C13.2424 11.8948 13.4296 11.679 13.5617 11.4297C13.6938 11.1805 13.7672 10.9044 13.7764 10.6225L13.9704 4.62915H14.9545L14.7594 10.6547C14.7455 11.0863 14.6331 11.5091 14.4308 11.8906C14.2286 12.2721 13.9418 12.6024 13.5924 12.8561C13.2429 13.1101 12.8401 13.2808 12.4146 13.3553C11.9892 13.4299 11.5523 13.4062 11.1374 13.2861L5.42869 11.6333L5.78269 10.7121ZM15.8891 13.7802C14.7154 13.7802 13.7625 14.733 13.7625 15.9068C13.7625 17.0806 14.7153 18.0335 15.8891 18.0335C17.063 18.0335 18.0158 17.0807 18.0158 15.9068C18.0158 14.733 17.0629 13.7802 15.8891 13.7802V13.7802ZM15.8891 14.7641C16.5196 14.7641 17.0318 15.2757 17.0318 15.9068C17.0318 16.538 16.5196 17.0496 15.8891 17.0496C15.2579 17.0496 14.7464 16.538 14.7464 15.9068C14.7464 15.2756 15.2579 14.7641 15.8891 14.7641Z" fill="#2B53BE"/>
</svg>
