<svg width="32" height="32" viewBox="0 0 32 32" fill="none" xmlns="http://www.w3.org/2000/svg">
<path d="M6.75753 22.0599L5.0149 23.8596L3.696 22.4982L6.43746 19.6659C6.64365 19.4531 6.91983 19.3366 7.20432 19.3366C7.48875 19.3366 7.76486 19.453 7.97103 19.6657C7.97108 19.6658 7.97113 19.6658 7.97119 19.6659L10.7868 22.5744L11.1461 22.9455L11.5053 22.5744L12.526 21.5199L14.0196 23.0624L11.9642 25.1857L11.9642 25.1858C11.8668 25.2865 11.752 25.3655 11.6267 25.4191C11.5016 25.4726 11.368 25.5 11.2335 25.5C11.099 25.5 10.9654 25.4726 10.8402 25.4191C10.715 25.3655 10.6002 25.2865 10.5028 25.1858L10.5026 25.1856L7.47593 22.0599L7.11673 21.689L6.75753 22.0599ZM25.3015 12.9023L24.9871 13.2288L25.2814 13.5736C25.5269 13.8613 25.6593 14.2376 25.6478 14.6263C25.6362 15.0149 25.482 15.3815 25.2206 15.6526C25.2205 15.6527 25.2204 15.6528 25.2203 15.6528L18.9949 22.0852C18.7334 22.3553 18.3851 22.5094 18.0221 22.5209C17.6591 22.5324 17.3029 22.4006 17.0265 22.148L16.6679 21.8203L16.33 22.1694L15.8982 22.6154L12.9594 19.5791L13.4137 19.1098L13.7302 18.7829L13.4344 18.4371C13.1883 18.1493 13.0555 17.7726 13.067 17.3834C13.0785 16.9942 13.2332 16.6271 13.4952 16.3558L19.7201 9.92437C19.7201 9.92435 19.7202 9.92434 19.7202 9.92432C19.7202 9.92429 19.7202 9.92425 19.7203 9.92422C19.9818 9.65427 20.3301 9.50036 20.6931 9.48894C21.0561 9.47752 21.4123 9.60925 21.6887 9.86176L22.0474 10.1894L22.3852 9.84039L22.8168 9.39451L25.7555 12.4307L25.3015 12.9023ZM15.8607 22.6541C15.8609 22.6539 15.8611 22.6537 15.8613 22.6535L15.8607 22.6541ZM22.7794 9.35583L22.7798 9.35625L22.7794 9.35583ZM28.4891 7.62199L25.9501 10.2435L24.8909 9.1489L27.4521 6.50443C27.4521 6.50442 27.4522 6.50442 27.4522 6.50441C27.4546 6.50194 27.4565 6.50086 27.4576 6.50042L27.2612 6.04131L27.4576 6.50042C27.458 6.50023 27.4583 6.50013 27.4586 6.50007C27.4589 6.5 27.4591 6.5 27.4591 6.5C27.4592 6.5 27.4597 6.5 27.4607 6.50042C27.4617 6.50085 27.4636 6.50192 27.466 6.50433C27.466 6.50436 27.466 6.5044 27.4661 6.50443L28.4892 7.56156C28.4892 7.5616 28.4893 7.56164 28.4893 7.56169C28.4945 7.56714 28.5 7.57769 28.5 7.5918C28.5 7.60604 28.4944 7.61661 28.4891 7.62199Z" stroke="#2B53BE"/>
</svg>
