<svg width="32" height="32" viewBox="0 0 32 32" fill="none" xmlns="http://www.w3.org/2000/svg">
<path fill-rule="evenodd" clip-rule="evenodd" d="M21.0503 14.7636C21.0503 14.4436 21.336 14.1841 21.6884 14.1841H27.4564C27.8088 14.1841 28.0944 14.4436 28.0944 14.7636V23.157C28.0944 23.4771 27.8088 23.7365 27.4564 23.7365H17.4349C17.2656 23.7365 17.1035 23.6755 16.9837 23.5668C16.8641 23.4582 16.7969 23.3108 16.7969 23.157V18.3608C16.7969 18.0408 17.0825 17.7813 17.4349 17.7813H21.0503V14.7636ZM22.3264 15.3432V18.3608C22.3264 18.6809 22.0407 18.9404 21.6884 18.9404H18.0729V22.5774H26.8184V15.3432H22.3264Z" fill="#2B53BE"/>
<path fill-rule="evenodd" clip-rule="evenodd" d="M15.0938 17.0817C15.0938 16.7617 15.3794 16.5022 15.7318 16.5022H17.4332C17.7855 16.5022 18.0712 16.7617 18.0712 17.0817V24.4999C18.0712 24.82 17.7855 25.0795 17.4332 25.0795C17.0808 25.0795 16.7951 24.82 16.7951 24.4999V17.6613H15.7318C15.3794 17.6613 15.0938 17.4018 15.0938 17.0817Z" fill="#2B53BE"/>
<path fill-rule="evenodd" clip-rule="evenodd" d="M15.0938 24.5C15.0938 24.1799 15.3794 23.9204 15.7318 23.9204H17.4332C17.7855 23.9204 18.0712 24.1799 18.0712 24.5C18.0712 24.82 17.7855 25.0795 17.4332 25.0795H15.7318C15.3794 25.0795 15.0938 24.82 15.0938 24.5Z" fill="#2B53BE"/>
<path fill-rule="evenodd" clip-rule="evenodd" d="M3.18555 12.7653C3.18555 12.4453 3.47119 12.1858 3.82357 12.1858H8.19998C8.33859 12.1858 8.47345 12.2268 8.58412 12.3026L15.5865 17.0988C15.7462 17.2084 15.8403 17.3796 15.8403 17.5615V26.3547C15.8403 26.6748 15.5546 26.9342 15.2023 26.9342H3.82357C3.47119 26.9342 3.18555 26.6748 3.18555 26.3547V12.7653ZM4.46159 13.3449V25.7751H14.5643V17.8504L7.98639 13.3449H4.46159Z" fill="#2B53BE"/>
<path fill-rule="evenodd" clip-rule="evenodd" d="M3.18555 8.76827C3.18555 8.44819 3.47119 8.18872 3.82357 8.18872H8.19998C8.33859 8.18872 8.47345 8.22972 8.58412 8.30553L15.5865 13.1018C15.7462 13.2113 15.8403 13.3826 15.8403 13.5645V17.5613C15.8403 17.8814 15.5546 18.1409 15.2023 18.1409C14.8499 18.1409 14.5643 17.8814 14.5643 17.5613V13.8533L7.98639 9.34781H4.46159V13.5645C4.46159 13.8845 4.17594 14.144 3.82357 14.144C3.47119 14.144 3.18555 13.8845 3.18555 13.5645V8.76827Z" fill="#2B53BE"/>
<path fill-rule="evenodd" clip-rule="evenodd" d="M9.51164 19.7397C8.90045 19.7397 8.39909 20.1929 8.39909 20.7589C8.39909 21.3247 8.90045 21.7781 9.51164 21.7781C10.1228 21.7781 10.6242 21.3247 10.6242 20.7589C10.6242 20.1929 10.1228 19.7397 9.51164 19.7397ZM7.12305 20.7589C7.12305 19.5588 8.1892 18.5806 9.51164 18.5806C10.8341 18.5806 11.9002 19.5588 11.9002 20.7589C11.9002 21.9589 10.8341 22.9372 9.51164 22.9372C8.1892 22.9372 7.12305 21.9589 7.12305 20.7589Z" fill="#2B53BE"/>
<path fill-rule="evenodd" clip-rule="evenodd" d="M24.5122 5.63893C22.1456 5.63893 20.5417 7.35799 20.5417 9.59568C20.5417 10.6377 20.982 11.5846 21.702 12.2913H27.6817C28.4018 11.5846 28.8419 10.6377 28.8419 9.59568C28.8419 7.40811 26.9008 5.63893 24.5122 5.63893ZM19.5352 9.59568C19.5352 6.95793 21.4809 4.72461 24.5122 4.72461C27.4619 4.72461 29.8485 6.90781 29.8485 9.59568C29.8485 10.9578 29.2353 12.1903 28.2478 13.0741C28.1537 13.1583 28.0268 13.2056 27.8946 13.2056H21.4892C21.357 13.2056 21.2301 13.1583 21.136 13.0741C20.1485 12.1903 19.5352 10.9578 19.5352 9.59568Z" fill="#2B53BE"/>
<path fill-rule="evenodd" clip-rule="evenodd" d="M22.5384 12.6387C22.8908 12.6387 23.1764 12.8981 23.1764 13.2182V14.7637C23.1764 15.0838 22.8908 15.3432 22.5384 15.3432C22.1861 15.3432 21.9004 15.0838 21.9004 14.7637V13.2182C21.9004 12.8981 22.1861 12.6387 22.5384 12.6387ZM26.7919 12.6387C27.1442 12.6387 27.4299 12.8981 27.4299 13.2182V14.7637C27.4299 15.0838 27.1442 15.3432 26.7919 15.3432C26.4395 15.3432 26.1539 15.0838 26.1539 14.7637V13.2182C26.1539 12.8981 26.4395 12.6387 26.7919 12.6387Z" fill="#2B53BE"/>
</svg>
