<svg width="32" height="32" viewBox="0 0 32 32" fill="none" xmlns="http://www.w3.org/2000/svg">
<path d="M19.3528 20.4369L21.7646 21.292C22.0366 21.3888 22.3519 21.2648 22.4594 21.0029C22.5656 20.7451 22.4262 20.456 22.1484 20.3573L20.7431 19.8591L21.3665 19.6C21.6378 19.4872 21.7593 19.1913 21.6378 18.9393C21.5164 18.6864 21.1978 18.5755 20.9265 18.6869L20.3032 18.9459L20.8395 17.641C20.9457 17.3832 20.8063 17.0941 20.5285 16.9954C20.2511 16.8967 19.9396 17.0262 19.8337 17.2845L18.9135 19.5235L16.5388 20.5105V18.0951L18.3639 16.3997C18.5742 16.2044 18.5742 15.888 18.3639 15.6926C18.1536 15.4973 17.8129 15.4973 17.6026 15.6926L16.5388 16.6809V16.0462C16.5388 15.7698 16.2977 15.5462 16.0004 15.5462C15.703 15.5462 15.462 15.7698 15.462 16.0462V16.6809L14.3982 15.6926C14.1879 15.4973 13.8471 15.4973 13.6368 15.6926C13.4265 15.888 13.4265 16.2044 13.6368 16.3997L15.462 18.0951V20.3736L13.3895 19.154L12.8245 16.8148C12.7596 16.5448 12.4699 16.3744 12.1815 16.4364C12.1125 16.4507 12.0472 16.4776 11.9894 16.5153C11.9316 16.5531 11.8824 16.6011 11.8445 16.6566C11.8067 16.7121 11.781 16.7739 11.7689 16.8386C11.7568 16.9033 11.7586 16.9696 11.7741 17.0336L12.1032 18.3971L11.5261 18.0576C11.4664 18.0224 11.3998 17.9984 11.3302 17.9871C11.2605 17.9758 11.1891 17.9774 11.1201 17.9918C11.0511 18.0062 10.9858 18.0331 10.928 18.0709C10.8702 18.1088 10.821 18.1568 10.7832 18.2124C10.7454 18.2678 10.7197 18.3297 10.7076 18.3944C10.6955 18.4591 10.6972 18.5254 10.7127 18.5894C10.7282 18.6535 10.7571 18.7141 10.7978 18.7678C10.8385 18.8215 10.8902 18.8672 10.9499 18.9024L11.5272 19.242L10.0588 19.5479C9.9898 19.5622 9.92453 19.589 9.86671 19.6268C9.80889 19.6646 9.75965 19.7126 9.72181 19.7681C9.68398 19.8235 9.65828 19.8854 9.64619 19.9501C9.6341 20.0148 9.63585 20.081 9.65135 20.1451C9.71663 20.4159 10.0064 20.5837 10.2944 20.5235L12.8135 19.9989L14.8651 21.2062L12.6481 22.1276L10.2363 21.2726C9.95843 21.1735 9.64715 21.3038 9.54148 21.5617C9.43526 21.8195 9.57464 22.1086 9.85249 22.2072L11.2577 22.7055L10.6343 22.9646C10.363 23.0774 10.2416 23.3733 10.363 23.6252C10.4832 23.8753 10.7989 23.9906 11.0744 23.8777L11.6977 23.6186L11.1614 24.9241C11.0551 25.1819 11.1945 25.471 11.4724 25.5697C11.7444 25.6665 12.0597 25.5424 12.1672 25.2806L13.0874 23.041L15.4621 22.054V24.4699L13.6369 26.1648C13.4266 26.3602 13.4266 26.6766 13.6369 26.8719C13.8472 27.0672 14.1879 27.0672 14.3982 26.8719L15.4621 25.884V26.5184C15.4621 26.7948 15.7031 27.0184 16.0005 27.0184C16.2978 27.0184 16.5389 26.7948 16.5389 26.5184V25.884L17.6027 26.8719C17.813 27.0672 18.1537 27.0672 18.364 26.8719C18.5743 26.6766 18.5743 26.3602 18.364 26.1648L16.5389 24.4699V22.191L18.6114 23.4105L19.1763 25.7497C19.2417 26.022 19.5325 26.1881 19.8194 26.1282C19.8883 26.1138 19.9536 26.087 20.0114 26.0492C20.0693 26.0114 20.1185 25.9634 20.1563 25.908C20.1942 25.8525 20.2199 25.7906 20.232 25.726C20.244 25.6613 20.2423 25.595 20.2268 25.5309L19.8977 24.1674L20.4747 24.507C20.7243 24.6542 21.058 24.5863 21.2176 24.3522C21.2555 24.2967 21.2812 24.2348 21.2933 24.1701C21.3054 24.1055 21.3037 24.0392 21.2882 23.9751C21.2727 23.911 21.2438 23.8504 21.2031 23.7967C21.1624 23.743 21.1107 23.6973 21.051 23.6622L20.4736 23.3225L21.9421 23.0167C22.0111 23.0023 22.0763 22.9755 22.1341 22.9377C22.192 22.8999 22.2412 22.852 22.279 22.7965C22.3169 22.741 22.3426 22.6792 22.3547 22.6145C22.3668 22.5498 22.365 22.4835 22.3495 22.4195C22.2846 22.1504 21.9978 21.98 21.7065 22.041L19.1874 22.5656L17.1358 21.3584L19.3528 20.4369Z" fill="#2B53BE"/>
<path d="M19.6403 7.40164C18.0298 5.89651 15.9493 4.98246 13.7008 4.77472V2.52743C13.7008 1.13382 12.4803 0 10.9797 0H7.7208C6.22058 0 5 1.13382 5 2.52743L5.00214 28.6752C5.00214 30.5083 6.60809 32 8.58226 32H23.4199C25.3941 32 27 30.5107 27 28.68V23.6647C27 23.599 26.9861 23.534 26.9591 23.4733C26.932 23.4126 26.8923 23.3575 26.8423 23.311C26.7923 23.2646 26.733 23.2278 26.6677 23.2026C26.6023 23.1775 26.5323 23.1646 26.4616 23.1646C26.3909 23.1646 26.3209 23.1775 26.2555 23.2026C26.1902 23.2278 26.1309 23.2646 26.0809 23.311C26.0309 23.3575 25.9912 23.4126 25.9642 23.4733C25.9371 23.534 25.9232 23.599 25.9232 23.6647V28.68C25.9232 29.9594 24.8002 31 23.4198 31H8.58226C7.20191 31 6.07886 29.9569 6.07886 28.6752V5.72974H12.7331C15.0598 5.73499 17.2407 6.57779 18.8779 8.10827L23.3725 12.2774C25.0174 13.8097 25.9232 15.844 25.9232 18.0047V21.3945C25.9232 21.4602 25.9371 21.5252 25.9642 21.5859C25.9912 21.6466 26.0309 21.7017 26.0809 21.7481C26.1309 21.7946 26.1902 21.8314 26.2555 21.8565C26.3209 21.8817 26.3909 21.8946 26.4616 21.8946C26.5323 21.8946 26.6023 21.8817 26.6677 21.8565C26.733 21.8314 26.7923 21.7946 26.8423 21.7481C26.8923 21.7017 26.932 21.6466 26.9591 21.5859C26.9861 21.5252 27 21.4602 27 21.3945V18.0047C27 15.5773 25.9824 13.2926 24.1341 11.5703L19.6403 7.40164ZM7.7208 1.00003H10.9797C11.8864 1.00003 12.624 1.68515 12.624 2.52743V4.72869H6.07673V2.52743C6.07679 1.68508 6.8144 1.00003 7.7208 1.00003Z" fill="#2B53BE"/>
</svg>
