<svg width="32" height="32" viewBox="0 0 32 32" fill="none" xmlns="http://www.w3.org/2000/svg">
<path d="M30.6996 1.43193L30.5576 1.29324C30.3939 1.13214 30.1786 1.03073 29.9477 1.00594C29.7167 0.981145 29.484 1.03447 29.2885 1.15702L26.0273 3.1838L25.9643 3.12228C25.3644 2.53684 24.3923 2.53684 23.7923 3.12228L22.7226 4.16702C22.7218 4.16779 22.7209 4.16837 22.7202 4.16913L22.7181 4.17142L12.3033 14.3426L12.3028 14.343L12.3024 14.3434L9.79406 16.7931C9.65135 16.9323 9.53814 17.0977 9.4609 17.2797C9.38365 17.4617 9.34387 17.6568 9.34385 17.8538C9.34383 18.0508 9.38356 18.2459 9.46076 18.4279C9.53797 18.6099 9.65114 18.7753 9.79382 18.9146L10.8631 19.959L3.30503 27.34C3.20917 27.4297 3.0815 27.4799 2.94869 27.4799C2.81589 27.4799 2.68822 27.4297 2.59236 27.34L1.87388 26.6383C1.82634 26.5919 1.76991 26.5551 1.7078 26.53C1.6457 26.5049 1.57913 26.4919 1.51191 26.4919C1.44468 26.4919 1.37811 26.5049 1.31601 26.53C1.2539 26.5551 1.19747 26.5919 1.14993 26.6383C1.1024 26.6848 1.06469 26.7399 1.03897 26.8005C1.01324 26.8612 1 26.9262 1 26.9919C1 27.0575 1.01324 27.1225 1.03897 27.1832C1.06469 27.2438 1.1024 27.2989 1.14993 27.3454L1.86806 28.047C2.00966 28.186 2.17807 28.2963 2.36356 28.3714C2.54905 28.4465 2.74793 28.4849 2.94872 28.4845C3.14949 28.485 3.34835 28.4465 3.5338 28.3714C3.71926 28.2963 3.88762 28.1861 4.02915 28.047L11.587 20.666L12.6562 21.7104C12.7986 21.8501 12.9678 21.9608 13.1543 22.0362C13.3407 22.1117 13.5406 22.1503 13.7424 22.1498C13.8101 22.1498 13.8778 22.1455 13.9449 22.1367L18.3574 30.4664C18.4446 30.6277 18.5753 30.7627 18.7353 30.8568C18.8954 30.9508 19.0787 31.0003 19.2656 31C19.3993 31.0001 19.5317 30.9742 19.6552 30.924C19.7787 30.8738 19.8907 30.8002 19.9849 30.7075L20.3224 30.3775C20.681 30.0287 20.9247 29.5832 21.0224 29.0983C21.1201 28.6133 21.0674 28.1109 20.8709 27.6554L18.8088 22.8504L21.0064 23.3871C21.3511 23.4719 21.7101 23.4852 22.0604 23.4262C22.4106 23.3671 22.7443 23.237 23.0399 23.0443L23.5826 22.6898C23.741 22.5859 23.8665 22.4407 23.9447 22.2707C24.023 22.1008 24.0509 21.9128 24.0254 21.7281C23.9998 21.5434 23.9219 21.3694 23.8003 21.2258C23.6787 21.0821 23.5183 20.9746 23.3374 20.9154L17.564 19.0386L20.2084 16.456L20.385 16.6285C20.55 16.7908 20.7464 16.9194 20.9628 17.007C21.1791 17.0946 21.4111 17.1394 21.6453 17.1387C21.9977 17.1385 22.3421 17.0364 22.6351 16.8451C22.928 16.6538 23.1563 16.382 23.2912 16.0641C23.3824 15.8482 23.4282 15.6166 23.4256 15.3831C23.4309 15.3831 23.4361 15.3834 23.4414 15.3834C23.7939 15.3837 24.1385 15.2819 24.4317 15.0907C24.7248 14.8996 24.9533 14.6279 25.0882 14.3099C25.1795 14.094 25.2253 13.8624 25.2227 13.6288C25.2277 13.6289 25.2326 13.6292 25.2375 13.6292C25.5899 13.6295 25.9345 13.5276 26.2276 13.3366C26.5207 13.1455 26.7492 12.8738 26.8841 12.5558C26.9753 12.3403 27.0211 12.1091 27.0187 11.876C27.0237 11.876 27.0287 11.8763 27.0338 11.8763C27.3862 11.8763 27.7307 11.7742 28.0237 11.5829C28.3168 11.3917 28.5451 11.1199 28.68 10.8019C28.8148 10.4839 28.8501 10.1339 28.7813 9.79635C28.7126 9.45877 28.5428 9.14868 28.2936 8.9053L28.1168 8.73257L28.8269 8.03914C29.4258 7.45294 29.4258 6.50388 28.8269 5.91767L28.7639 5.85615L30.8391 2.67125V2.67072C30.9647 2.47986 31.0193 2.25269 30.9939 2.02719C30.9685 1.8017 30.8646 1.59156 30.6996 1.43193ZM24.7301 10.6259L23.4388 11.8868L23.4386 11.887L22.2291 13.0684L16.9754 18.1993L13.3889 14.6966L23.0823 5.22975L26.669 8.7324L24.7301 10.6259ZM10.5178 18.2075C10.4702 18.1611 10.4325 18.106 10.4067 18.0454C10.381 17.9847 10.3678 17.9197 10.3678 17.8541C10.3678 17.7884 10.381 17.7234 10.4067 17.6627C10.4325 17.6021 10.4702 17.547 10.5178 17.5006L12.6649 15.4036L16.2514 18.9062L14.1041 21.0033C14.0068 21.0945 13.8772 21.1454 13.7423 21.1454C13.6074 21.1454 13.4778 21.0945 13.3805 21.0033L10.5178 18.2075ZM19.5983 29.6704L19.2658 30.0044L14.8572 21.6821L16.5036 20.0742L19.9262 28.0416C20.0439 28.3141 20.0755 28.6148 20.0171 28.905C19.9587 29.1952 19.8128 29.4617 19.5983 29.6704ZM22.4707 22.2132C22.2941 22.3284 22.0947 22.406 21.8855 22.4412C21.6762 22.4763 21.4617 22.4682 21.2558 22.4173L18.3145 21.6992L17.6319 20.1135L23.0129 21.8587L22.4707 22.2132ZM22.1812 15.9215H22.181C21.8813 16.2018 21.4088 16.2018 21.1091 15.9215L20.9326 15.7492L22.0044 14.7019L22.1588 14.8528L22.1812 14.8747C22.2517 14.9434 22.3076 15.025 22.3457 15.1148C22.3839 15.2046 22.4035 15.3009 22.4035 15.3981C22.4035 15.4953 22.3839 15.5916 22.3457 15.6814C22.3076 15.7713 22.2517 15.8528 22.1812 15.9215ZM23.9766 14.1668C23.6808 14.4556 23.2014 14.4561 22.9051 14.1677L22.7284 13.9948L22.762 13.962L23.8007 12.9476L23.9775 13.1204C24.2728 13.4097 24.2724 13.8779 23.9766 14.1668ZM25.7736 12.4134C25.4735 12.6926 25.0017 12.6927 24.7016 12.4134L24.7015 12.4133L24.5246 12.2406L25.5573 11.2321L25.5966 11.1936L25.7736 11.3665L25.7737 11.3665C26.0691 11.6559 26.0691 12.1241 25.7736 12.4134ZM27.5698 10.6594C27.2737 10.9486 26.7937 10.9487 26.4975 10.6595L26.3206 10.4867L27.393 9.43936L27.5697 9.6122C27.8658 9.90135 27.8659 10.3702 27.5698 10.6594ZM28.1029 7.33207L27.3929 8.02538L23.8062 4.52273L24.5163 3.82925C24.5637 3.7828 24.6202 3.74599 24.6823 3.72093C24.7444 3.69587 24.811 3.68306 24.8782 3.68324C24.9454 3.68302 25.0121 3.69581 25.0742 3.72087C25.1364 3.74593 25.1929 3.78276 25.2404 3.82925L28.1029 6.62458C28.1988 6.71847 28.2526 6.84569 28.2526 6.97832C28.2526 7.11095 28.1988 7.23817 28.1029 7.33207ZM28.0221 5.13144L26.9963 4.13005L26.7688 3.90782L29.8337 2.0002L29.9734 2.13695L28.0221 5.13144Z" fill="#2B53BE"/>
</svg>
