<svg width="32" height="32" viewBox="0 0 32 32" fill="none" xmlns="http://www.w3.org/2000/svg">
<path d="M17.0441 12.4737C23.1517 11.472 21.0241 7.79914 19.0249 8.76568C18.2363 9.1523 17.4293 10.2594 17.0441 12.4737ZM21.556 10.8745C21.0241 11.8762 19.5935 12.8427 16.6773 13.2293C16.3838 13.2821 16.2004 13.0536 16.2371 12.7724C17.3375 5.16312 23.0783 8.01002 21.556 10.8745Z" fill="#2B53BE"/>
<path fill-rule="evenodd" clip-rule="evenodd" d="M17.5744 20.628C17.2527 20.6264 16.9346 20.5635 16.6385 20.4428C16.3425 20.3221 16.0746 20.1461 15.8503 19.925L9.24751 13.5986C8.79612 13.1611 8.54297 12.5707 8.54297 11.9555C8.54297 11.3403 8.79612 10.7499 9.24751 10.3124L18.2347 1.68378C18.6921 1.24594 19.3122 1 19.9588 1C20.6053 1 21.2254 1.24594 21.6829 1.68378L28.2857 8.01023C28.7427 8.44849 28.9993 9.04264 28.9993 9.66214C28.9993 10.2816 28.7427 10.8758 28.2857 11.314L19.2985 19.9426C19.0728 20.1605 18.8041 20.3333 18.5082 20.4509C18.2122 20.5686 17.8948 20.6287 17.5744 20.628ZM19.9588 1.70135C19.7342 1.69927 19.5115 1.74017 19.3036 1.82165C19.0957 1.90312 18.9069 2.02354 18.7483 2.17583L9.76106 10.7868C9.60135 10.9388 9.47459 11.1194 9.38809 11.3185C9.30159 11.5176 9.25706 11.7311 9.25706 11.9467C9.25706 12.1623 9.30159 12.3758 9.38809 12.5749C9.47459 12.7739 9.60135 12.9546 9.76106 13.1065L16.3639 19.433C16.6834 19.7367 17.1152 19.9071 17.5652 19.9071C18.0153 19.9071 18.4471 19.7367 18.7666 19.433L27.7721 10.822C28.0891 10.5159 28.267 10.1021 28.267 9.67092C28.267 9.23971 28.0891 8.82598 27.7721 8.51986L21.1693 2.17583C21.0085 2.0214 20.8167 1.89974 20.6055 1.8182C20.3943 1.73666 20.1681 1.69691 19.9404 1.70135H19.9588Z" fill="#2B53BE"/>
<path fill-rule="evenodd" clip-rule="evenodd" d="M12.5317 20.9793C12.1837 20.9848 11.8476 20.8585 11.5963 20.6278L8.53329 17.6579C8.28906 17.4182 8.15234 17.0966 8.15234 16.7616C8.15234 16.4267 8.28906 16.105 8.53329 15.8654L10.3307 14.1608C10.3993 14.0964 10.4915 14.0603 10.5875 14.0603C10.6835 14.0603 10.7757 14.0964 10.8443 14.1608L15.2829 18.3784C15.3219 18.4114 15.3531 18.452 15.3746 18.4974C15.396 18.5429 15.407 18.5921 15.407 18.642C15.407 18.6919 15.396 18.7412 15.3746 18.7866C15.3531 18.8321 15.3219 18.8726 15.2829 18.9056L13.4854 20.6102C13.3603 20.7298 13.2114 20.824 13.0476 20.8874C12.8838 20.9508 12.7083 20.982 12.5317 20.9793ZM10.5875 14.8989L9.04684 16.375C8.93704 16.4833 8.87561 16.6283 8.87561 16.7792C8.87561 16.9302 8.93704 17.0752 9.04684 17.1834L12.1098 20.1182C12.2228 20.2234 12.3741 20.2822 12.5317 20.2822C12.6892 20.2822 12.8405 20.2234 12.9535 20.1182L14.4942 18.642L10.5875 14.8989Z" fill="#2B53BE"/>
<path fill-rule="evenodd" clip-rule="evenodd" d="M5.19496 24.1602C5.13107 24.1593 5.06855 24.1423 5.0136 24.1111C4.95865 24.0798 4.91317 24.0354 4.88166 23.9821C4.85016 23.9288 4.83373 23.8686 4.83399 23.8074C4.83425 23.7462 4.8512 23.6861 4.88316 23.633L8.64311 17.412C8.88154 16.9903 9.50514 17.3417 9.26671 17.7635L6.20372 22.8598L11.5227 19.9075C11.9262 19.679 12.293 20.2941 11.8895 20.5225L5.37837 24.1075C5.32318 24.1404 5.25989 24.1585 5.19496 24.1602ZM20.1981 18.9234C20.1484 18.9274 20.0984 18.9217 20.0511 18.9066C20.0038 18.8915 19.9602 18.8673 19.923 18.8355L10.3855 9.69728C10.3495 9.66444 10.3207 9.62492 10.3011 9.58111C10.2815 9.53731 10.2713 9.49013 10.2713 9.44246C10.2713 9.39479 10.2815 9.34762 10.3011 9.30381C10.3207 9.26 10.3495 9.22048 10.3855 9.18765L17.0801 2.7909C17.1486 2.7265 17.2408 2.69043 17.3368 2.69043C17.4329 2.69043 17.5251 2.7265 17.5936 2.7909L27.1311 11.9291C27.1983 11.9948 27.2359 12.0831 27.2359 12.1751C27.2359 12.2671 27.1983 12.3555 27.1311 12.4212L20.4549 18.8355C20.3871 18.9017 20.2948 18.9396 20.1981 18.9409V18.9234ZM11.1742 9.43367L20.1981 18.0798L26.3607 12.1751L17.3368 3.52899L11.1742 9.43367Z" fill="#2B53BE"/>
<path d="M5.48814 24.582C10.2935 30.7151 4.18592 32.6306 3.14047 29.5553C2.77364 28.5009 3.0671 26.9017 4.71781 24.7401C4.90123 24.4941 5.24971 24.2129 5.48814 24.582ZM6.47857 29.3268C6.75369 28.5184 6.51525 27.2004 5.158 25.3552C1.58146 30.2055 5.7816 31.3653 6.47857 29.3268Z" fill="#2B53BE"/>
</svg>
