<svg width="32" height="32" viewBox="0 0 32 32" fill="none" xmlns="http://www.w3.org/2000/svg">
<path d="M28.675 25.9997H28.3617L23.5614 20.9823V13.8532C23.5614 13.7673 23.5271 13.6849 23.4662 13.6242C23.4052 13.5634 23.3225 13.5293 23.2363 13.5293H21.0218C20.9984 13.5293 20.9757 13.532 20.9536 13.5367L19.851 8.56095C19.5608 7.25139 18.3732 6.30085 17.0273 6.30085H10.6234V5.73395H11.0284C11.1147 5.73395 11.1973 5.69982 11.2583 5.63908C11.3193 5.57833 11.3535 5.49594 11.3535 5.41003V3.32391C11.3535 3.23801 11.3193 3.15562 11.2583 3.09487C11.1973 3.03413 11.1147 3 11.0284 3H4.23533C4.14911 3 4.06642 3.03413 4.00546 3.09487C3.94449 3.15562 3.91024 3.23801 3.91024 3.32391V5.40992C3.91024 5.49582 3.94449 5.57821 4.00546 5.63896C4.06642 5.6997 4.14911 5.73383 4.23533 5.73383H4.6402V6.30074H4.62543C3.72914 6.30074 3 7.02736 3 7.9203V27.3973C3 28.281 3.72145 29 4.60841 29H28.6749C28.7611 29 28.8438 28.9659 28.9048 28.9051C28.9658 28.8444 29 28.762 29 28.6761V26.3235C29 26.2376 28.9658 26.1552 28.9048 26.0945C28.8438 26.0337 28.7611 25.9996 28.6749 25.9996L28.675 25.9997ZM21.347 14.1771H22.9112V20.7879H21.3469L21.347 14.1771ZM21.1612 21.4357H23.097L27.4634 25.9997H16.7949L21.1612 21.4357ZM4.56041 5.08612V3.64783H10.7033V5.086L4.56041 5.08612ZM9.97338 5.73395V6.30085H5.29026V5.73395H9.97338ZM3.65017 12.4156H6.49107V13.2525H3.65017V12.4156ZM3.65017 15.5336H6.49107V16.3706H3.65017V15.5336ZM3.65017 18.6517H6.49107V19.4886H3.65017V18.6517ZM3.65017 21.7698H6.49107V22.6067H3.65017V21.7698ZM3.65017 24.8878H6.49107V25.7247H3.65017V24.8878ZM15.2581 28.3522H4.60829C4.07999 28.3522 3.65017 27.9239 3.65017 27.3974V26.3727H6.81615C6.90237 26.3727 6.98506 26.3385 7.04602 26.2778C7.10699 26.217 7.14124 26.1346 7.14124 26.0487V24.5638C7.14124 24.4779 7.10699 24.3955 7.04602 24.3348C6.98506 24.274 6.90237 24.2399 6.81615 24.2399H3.65017V23.2544H6.81615C6.90237 23.2544 6.98506 23.2202 7.04602 23.1595C7.10699 23.0987 7.14124 23.0164 7.14124 22.9305V21.446C7.14124 21.3601 7.10699 21.2777 7.04602 21.2169C6.98506 21.1562 6.90237 21.1221 6.81615 21.1221H3.65017V20.1366H6.81615C6.90237 20.1366 6.98506 20.1024 7.04602 20.0417C7.10699 19.9809 7.14124 19.8985 7.14124 19.8126V18.3279C7.14124 18.242 7.10699 18.1596 7.04602 18.0989C6.98506 18.0381 6.90237 18.004 6.81615 18.004H3.65017V17.0185H6.81615C6.90237 17.0185 6.98506 16.9844 7.04602 16.9236C7.10699 16.8629 7.14124 16.7805 7.14124 16.6946V15.2098C7.14124 15.1239 7.10699 15.0415 7.04602 14.9807C6.98506 14.92 6.90237 14.8859 6.81615 14.8859H3.65017V13.9005H6.81615C6.90237 13.9005 6.98506 13.8663 7.04602 13.8056C7.10699 13.7448 7.14124 13.6624 7.14124 13.5765V12.0917C7.14124 12.0058 7.10699 11.9234 7.04602 11.8627C6.98506 11.8019 6.90237 11.7678 6.81615 11.7678H3.65017V7.92042C3.65017 7.38449 4.08756 6.94868 4.62543 6.94868H17.0274C18.0707 6.94868 18.9913 7.68544 19.2162 8.70064L20.6968 15.3823V20.9823L20.0304 21.6789V19.008C20.0304 18.9225 19.9965 18.8405 19.936 18.7798L11.4525 10.2633C11.4222 10.233 11.3863 10.2089 11.3467 10.1925C11.3071 10.176 11.2646 10.1676 11.2217 10.1676H8.76678C8.68057 10.1676 8.59788 10.2017 8.53691 10.2624C8.47595 10.3232 8.4417 10.4056 8.4417 10.4915V26.7546C8.4417 26.8405 8.47595 26.9229 8.53691 26.9837C8.59788 27.0444 8.68057 27.0785 8.76678 27.0785H15.2581V28.3522ZM15.5832 25.9997C15.497 25.9997 15.4143 26.0339 15.3533 26.0946C15.2923 26.1554 15.2581 26.2377 15.2581 26.3237V26.4306H9.09187V10.8154H11.0864L19.3802 19.1415V22.3585L15.8966 25.9997H15.5832ZM28.3499 28.3522H15.9083V26.6474H28.3499V28.3522Z" fill="#2B53BE"/>
<path d="M18.8893 15.8902C18.9389 15.94 19.0034 15.9724 19.0731 15.9825C19.1428 15.9926 19.2139 15.9799 19.2757 15.9463C19.3375 15.9127 19.3867 15.86 19.4159 15.7962C19.445 15.7323 19.4526 15.6607 19.4374 15.5922L18.0287 9.23525C17.8961 8.63678 17.3739 8.21875 16.759 8.21875H12.0283C11.9641 8.21873 11.9013 8.23765 11.8479 8.27314C11.7945 8.30863 11.7528 8.35909 11.7281 8.41815C11.7034 8.47722 11.6968 8.54224 11.7092 8.60503C11.7216 8.66781 11.7523 8.72554 11.7976 8.77093L18.8893 15.8902ZM16.759 8.86658C16.9072 8.86586 17.0513 8.91598 17.1668 9.00852C17.2824 9.10106 17.3626 9.2304 17.3938 9.37483L18.5608 14.6408L12.809 8.8667L16.759 8.86658ZM15.6067 19.8246C15.3853 19.4988 15.1936 19.1179 14.9851 18.5895C14.8475 18.2409 14.5603 18.0244 14.2356 18.0244C13.911 18.0244 13.6238 18.2409 13.4862 18.5894C13.2774 19.1183 13.0855 19.4992 12.8644 19.8246C12.8083 19.9072 12.7511 19.9894 12.6941 20.0714C12.1886 20.7981 11.666 21.5495 11.8141 22.5808C12.0047 23.9104 13.1649 24.5055 14.2304 24.5055C15.2663 24.5055 16.4676 23.9032 16.6572 22.5808C16.805 21.549 16.2822 20.7975 15.7765 20.0707C15.7198 19.9888 15.6628 19.907 15.6067 19.8245V19.8246ZM16.0134 22.4892C15.878 23.4346 15.0203 23.8579 14.2303 23.8578C13.4456 23.8578 12.5933 23.4346 12.4578 22.4891C12.3457 21.7093 12.7746 21.093 13.2285 20.4405C13.2868 20.3564 13.3453 20.2725 13.4028 20.1878C13.6517 19.8214 13.8642 19.4015 14.0913 18.8266C14.1333 18.72 14.1941 18.6722 14.2356 18.6722C14.2771 18.6722 14.3378 18.72 14.3799 18.8266C14.5207 19.1833 14.7452 19.7124 15.0684 20.188C15.1257 20.2722 15.184 20.356 15.2422 20.4397C15.6964 21.0925 16.1252 21.7091 16.0135 22.4892H16.0134Z" fill="#2B53BE"/>
</svg>
