<svg width="32" height="32" viewBox="0 0 32 32" fill="none" xmlns="http://www.w3.org/2000/svg">
<path fill-rule="evenodd" clip-rule="evenodd" d="M5.83908 4.91139C4.76625 4.91139 3.89655 5.79549 3.89655 6.88608V25.1139C3.89655 26.2046 4.76625 27.0886 5.83908 27.0886H26.1609C27.2338 27.0886 28.1034 26.2046 28.1034 25.1139V17.6925C28.1034 16.8661 27.5972 16.1271 26.8346 15.8404L19.7322 13.1708C18.9523 12.8777 18.3381 12.2519 18.0515 11.4585L16.1544 6.20552C15.8736 5.42813 15.1455 4.91139 14.3309 4.91139H5.83908ZM3 6.88608C3 5.29214 4.2711 4 5.83908 4H14.3309C15.5216 4 16.5857 4.75522 16.996 5.89142L18.8932 11.1444C19.0893 11.6873 19.5095 12.1155 20.0431 12.316L27.1456 14.9856C28.26 15.4046 29 16.4846 29 17.6925V25.1139C29 26.7079 27.7289 28 26.1609 28H5.83908C4.2711 28 3 26.7079 3 25.1139V6.88608Z" fill="#2B53BE"/>
<path fill-rule="evenodd" clip-rule="evenodd" d="M6.32851 7.34177C6.24599 7.34177 6.17908 7.40978 6.17908 7.49367V24.5063C6.17908 24.5902 6.24599 24.6582 6.32851 24.6582H25.6723C25.7548 24.6582 25.8217 24.5902 25.8217 24.5063V18.2392C25.8217 18.1765 25.7838 18.1203 25.7262 18.0975L18.7705 15.363C17.3687 14.8118 16.2677 13.6741 15.7488 12.24L14.0121 7.44122C13.9905 7.38147 13.9345 7.34177 13.8719 7.34177H6.32851ZM5.28253 7.49367C5.28253 6.90643 5.75083 6.43038 6.32851 6.43038H13.8719C14.3102 6.43038 14.7021 6.70829 14.8535 7.12655L16.5902 11.9254C17.0202 13.1136 17.9323 14.0563 19.094 14.513L26.0495 17.2475C26.4526 17.406 26.7183 17.8001 26.7183 18.2392V24.5063C26.7183 25.0935 26.25 25.5696 25.6723 25.5696H6.32851C5.75083 25.5696 5.28253 25.0935 5.28253 24.5063V7.49367Z" fill="#2B53BE"/>
<path fill-rule="evenodd" clip-rule="evenodd" d="M7.44161 6.43038C7.68918 6.43038 7.88988 6.6344 7.88988 6.88608V11.7468C7.88988 11.9985 7.68918 12.2025 7.44161 12.2025C7.19403 12.2025 6.99333 11.9985 6.99333 11.7468V6.88608C6.99333 6.6344 7.19403 6.43038 7.44161 6.43038Z" fill="#2B53BE"/>
<path fill-rule="evenodd" clip-rule="evenodd" d="M13.1473 6.43038C13.3949 6.43038 13.5956 6.6344 13.5956 6.88608V11.7468C13.5956 11.9985 13.3949 12.2025 13.1473 12.2025C12.8998 12.2025 12.6991 11.9985 12.6991 11.7468V6.88608C12.6991 6.6344 12.8998 6.43038 13.1473 6.43038Z" fill="#2B53BE"/>
<path fill-rule="evenodd" clip-rule="evenodd" d="M10.295 25.5696C10.0474 25.5696 9.84671 25.3656 9.84671 25.1139V20.2532C9.84671 20.0015 10.0474 19.7975 10.295 19.7975C10.5426 19.7975 10.7433 20.0015 10.7433 20.2532V25.1139C10.7433 25.3656 10.5426 25.5696 10.295 25.5696Z" fill="#2B53BE"/>
<path fill-rule="evenodd" clip-rule="evenodd" d="M16 25.5696C15.7524 25.5696 15.5517 25.3656 15.5517 25.1139V20.2532C15.5517 20.0015 15.7524 19.7975 16 19.7975C16.2476 19.7975 16.4483 20.0015 16.4483 20.2532V25.1139C16.4483 25.3656 16.2476 25.5696 16 25.5696Z" fill="#2B53BE"/>
<path fill-rule="evenodd" clip-rule="evenodd" d="M21.705 25.5696C21.4574 25.5696 21.2567 25.3656 21.2567 25.1139V20.2532C21.2567 20.0015 21.4574 19.7975 21.705 19.7975C21.9526 19.7975 22.1533 20.0015 22.1533 20.2532V25.1139C22.1533 25.3656 21.9526 25.5696 21.705 25.5696Z" fill="#2B53BE"/>
<path fill-rule="evenodd" clip-rule="evenodd" d="M7.44161 14.3291C7.68918 14.3291 7.88988 14.5331 7.88988 14.7848V19.6456C7.88988 19.8972 7.68918 20.1013 7.44161 20.1013C7.19403 20.1013 6.99333 19.8972 6.99333 19.6456V14.7848C6.99333 14.5331 7.19403 14.3291 7.44161 14.3291Z" fill="#2B53BE"/>
<path fill-rule="evenodd" clip-rule="evenodd" d="M13.1473 14.3291C13.3949 14.3291 13.5956 14.5331 13.5956 14.7848V19.6456C13.5956 19.8972 13.3949 20.1013 13.1473 20.1013C12.8998 20.1013 12.6991 19.8972 12.6991 19.6456V14.7848C12.6991 14.5331 12.8998 14.3291 13.1473 14.3291Z" fill="#2B53BE"/>
<path fill-rule="evenodd" clip-rule="evenodd" d="M18.8527 14.5721C19.1003 14.5721 19.301 14.7762 19.301 15.0278V19.6456C19.301 19.8972 19.1003 20.1013 18.8527 20.1013C18.6051 20.1013 18.4044 19.8972 18.4044 19.6456V15.0278C18.4044 14.7762 18.6051 14.5721 18.8527 14.5721Z" fill="#2B53BE"/>
<path fill-rule="evenodd" clip-rule="evenodd" d="M24.5584 17.0025C24.806 17.0025 25.0067 17.2066 25.0067 17.4582V19.6456C25.0067 19.8972 24.806 20.1013 24.5584 20.1013C24.3108 20.1013 24.1101 19.8972 24.1101 19.6456V17.4582C24.1101 17.2066 24.3108 17.0025 24.5584 17.0025Z" fill="#2B53BE"/>
<path fill-rule="evenodd" clip-rule="evenodd" d="M10.295 17.6709C10.0474 17.6709 9.84671 17.4669 9.84671 17.2152V12.3544C9.84671 12.1028 10.0474 11.8987 10.295 11.8987C10.5426 11.8987 10.7433 12.1028 10.7433 12.3544V17.2152C10.7433 17.4669 10.5426 17.6709 10.295 17.6709Z" fill="#2B53BE"/>
<path fill-rule="evenodd" clip-rule="evenodd" d="M16 17.6709C15.7524 17.6709 15.5517 17.4669 15.5517 17.2152V12.3544C15.5517 12.1028 15.7524 11.8987 16 11.8987C16.2476 11.8987 16.4483 12.1028 16.4483 12.3544V17.2152C16.4483 17.4669 16.2476 17.6709 16 17.6709Z" fill="#2B53BE"/>
<path fill-rule="evenodd" clip-rule="evenodd" d="M21.705 17.6709C21.4574 17.6709 21.2567 17.4669 21.2567 17.2152V16.243C21.2567 15.9914 21.4574 15.7873 21.705 15.7873C21.9526 15.7873 22.1533 15.9914 22.1533 16.243V17.2152C22.1533 17.4669 21.9526 17.6709 21.705 17.6709Z" fill="#2B53BE"/>
<path fill-rule="evenodd" clip-rule="evenodd" d="M7.44161 22.2278C7.68918 22.2278 7.88988 22.4319 7.88988 22.6835V25.1139C7.88988 25.3656 7.68918 25.5696 7.44161 25.5696C7.19403 25.5696 6.99333 25.3656 6.99333 25.1139V22.6835C6.99333 22.4319 7.19403 22.2278 7.44161 22.2278Z" fill="#2B53BE"/>
<path fill-rule="evenodd" clip-rule="evenodd" d="M24.5584 22.2278C24.806 22.2278 25.0067 22.4319 25.0067 22.6835V25.1139C25.0067 25.3656 24.806 25.5696 24.5584 25.5696C24.3108 25.5696 24.1101 25.3656 24.1101 25.1139V22.6835C24.1101 22.4319 24.3108 22.2278 24.5584 22.2278Z" fill="#2B53BE"/>
<path fill-rule="evenodd" clip-rule="evenodd" d="M13.1473 22.2278C13.3949 22.2278 13.5956 22.4319 13.5956 22.6835V25.1139C13.5956 25.3656 13.3949 25.5696 13.1473 25.5696C12.8998 25.5696 12.6991 25.3656 12.6991 25.1139V22.6835C12.6991 22.4319 12.8998 22.2278 13.1473 22.2278Z" fill="#2B53BE"/>
<path fill-rule="evenodd" clip-rule="evenodd" d="M18.8527 22.2278C19.1003 22.2278 19.301 22.4319 19.301 22.6835V25.1139C19.301 25.3656 19.1003 25.5696 18.8527 25.5696C18.6051 25.5696 18.4044 25.3656 18.4044 25.1139V22.6835C18.4044 22.4319 18.6051 22.2278 18.8527 22.2278Z" fill="#2B53BE"/>
<path fill-rule="evenodd" clip-rule="evenodd" d="M10.295 9.77215C10.0474 9.77215 9.84671 9.56813 9.84671 9.31646V6.88608C9.84671 6.6344 10.0474 6.43038 10.295 6.43038C10.5426 6.43038 10.7433 6.6344 10.7433 6.88608V9.31646C10.7433 9.56813 10.5426 9.77215 10.295 9.77215Z" fill="#2B53BE"/>
</svg>
