<svg width="32" height="32" viewBox="0 0 32 32" fill="none" xmlns="http://www.w3.org/2000/svg">
<path d="M16.0003 9.36066C15.1534 9.36535 14.3145 9.21436 13.5355 8.91705C11.6674 8.20492 10.5059 6.77279 10.5059 5.18033C10.5059 2.87574 12.9707 1 16.0003 1C19.03 1 21.4948 2.87525 21.4948 5.18033C21.4948 7.48541 19.03 9.36066 16.0003 9.36066ZM16.0003 1.98361C13.5767 1.98361 11.6047 3.4177 11.6047 5.18033C11.6415 5.80885 11.8856 6.41349 12.3064 6.91775C12.7272 7.42201 13.3056 7.80321 13.9685 8.01311C14.6107 8.25776 15.3023 8.38164 16.0003 8.37705C18.4239 8.37705 20.3959 6.94295 20.3959 5.18033C20.3959 3.4177 18.4239 1.98361 16.0003 1.98361Z" fill="#2B53BE"/>
<path d="M18.747 5.42623H13.2526C13.1068 5.42623 12.9671 5.37442 12.8641 5.28219C12.761 5.18996 12.7031 5.06486 12.7031 4.93443C12.7031 4.804 12.761 4.6789 12.8641 4.58667C12.9671 4.49444 13.1068 4.44263 13.2526 4.44263H18.747C18.8927 4.44263 19.0325 4.49444 19.1355 4.58667C19.2386 4.6789 19.2965 4.804 19.2965 4.93443C19.2965 5.06486 19.2386 5.18996 19.1355 5.28219C19.0325 5.37442 18.8927 5.42623 18.747 5.42623Z" fill="#2B53BE"/>
<path d="M13.2526 6.4098C13.1068 6.4098 12.9671 6.35799 12.8641 6.26576C12.761 6.17353 12.7031 6.04844 12.7031 5.918V3.95079C12.7031 3.82035 12.761 3.69526 12.8641 3.60303C12.9671 3.5108 13.1068 3.45898 13.2526 3.45898C13.3983 3.45898 13.538 3.5108 13.6411 3.60303C13.7441 3.69526 13.802 3.82035 13.802 3.95079V5.918C13.802 6.04844 13.7441 6.17353 13.6411 6.26576C13.538 6.35799 13.3983 6.4098 13.2526 6.4098ZM15.9998 6.4098C15.8541 6.4098 15.7143 6.35799 15.6113 6.26576C15.5082 6.17353 15.4504 6.04844 15.4504 5.918V3.95079C15.4504 3.82035 15.5082 3.69526 15.6113 3.60303C15.7143 3.5108 15.8541 3.45898 15.9998 3.45898C16.1455 3.45898 16.2853 3.5108 16.3883 3.60303C16.4914 3.69526 16.5492 3.82035 16.5492 3.95079V5.918C16.5492 6.04844 16.4914 6.17353 16.3883 6.26576C16.2853 6.35799 16.1455 6.4098 15.9998 6.4098ZM18.747 6.4098C18.6013 6.4098 18.4615 6.35799 18.3585 6.26576C18.2555 6.17353 18.1976 6.04844 18.1976 5.918V3.95079C18.1976 3.82035 18.2555 3.69526 18.3585 3.60303C18.4615 3.5108 18.6013 3.45898 18.747 3.45898C18.8927 3.45898 19.0325 3.5108 19.1355 3.60303C19.2386 3.69526 19.2965 3.82035 19.2965 3.95079V5.918C19.2965 6.04844 19.2386 6.17353 19.1355 6.26576C19.0325 6.35799 18.8927 6.4098 18.747 6.4098Z" fill="#2B53BE"/>
<path d="M17.6491 19.6884H14.3525C14.2067 19.6884 14.067 19.6366 13.9639 19.5443C13.8609 19.4521 13.803 19.327 13.803 19.1966V12.4387C13.8001 11.8972 13.5639 11.3775 13.1437 10.9879C11.5374 9.49147 10.5992 7.52024 10.5063 5.44673C10.5002 5.3163 10.5522 5.18903 10.651 5.09292C10.7497 4.99682 10.887 4.93975 11.0327 4.93427C11.1784 4.92879 11.3206 4.97535 11.428 5.06371C11.5354 5.15207 11.5991 5.27499 11.6052 5.40542C11.6867 7.24105 12.5176 8.98618 13.9404 10.3102C14.5552 10.8824 14.8996 11.6448 14.9019 12.4387V18.7048H17.0997V12.4387C17.1019 11.645 17.4463 10.8826 18.0612 10.3107C19.4841 8.98649 20.3152 7.24124 20.3969 5.40542C20.4052 5.2765 20.4698 5.15567 20.5767 5.06901C20.6837 4.98235 20.8244 4.93681 20.9685 4.94224C21.1127 4.94766 21.2486 5.00361 21.3471 5.098C21.4455 5.19239 21.4985 5.31765 21.4947 5.44673C21.4018 7.52037 20.4636 9.49174 18.8574 10.9884C18.4373 11.3778 18.2013 11.8973 18.1986 12.4387V19.1966C18.1986 19.327 18.1407 19.4521 18.0376 19.5443C17.9346 19.6366 17.7949 19.6884 17.6491 19.6884Z" fill="#2B53BE"/>
<path d="M19.8456 22.6394H12.1534C12.0744 22.6395 11.9964 22.6244 11.9246 22.5951C11.8527 22.5658 11.7888 22.5229 11.7372 22.4695C11.6856 22.416 11.6474 22.3532 11.6254 22.2854C11.6033 22.2175 11.5979 22.1462 11.6094 22.0763L12.0204 19.5563C12.0717 19.312 12.2186 19.092 12.4349 18.936C12.6511 18.7799 12.9224 18.698 13.2001 18.705H18.7989C19.0765 18.698 19.3479 18.7799 19.5641 18.936C19.7803 19.092 19.9273 19.312 19.9786 19.5563L20.389 22.0763C20.4005 22.1462 20.3951 22.2174 20.3731 22.2853C20.3511 22.3531 20.313 22.4158 20.2614 22.4693C20.2098 22.5227 20.146 22.5656 20.0742 22.5949C20.0025 22.6243 19.9245 22.6395 19.8456 22.6394ZM12.7874 21.6558H19.2104L18.8918 19.6994C18.8945 19.7098 18.8588 19.6886 18.7989 19.6886H13.2001C13.1637 19.6866 13.1279 19.6972 13.1001 19.7181L12.7874 21.6558Z" fill="#2B53BE"/>
<path d="M21.4953 26.5737H10.5064C10.4271 26.5737 10.3488 26.5583 10.2767 26.5286C10.2047 26.4989 10.1407 26.4556 10.0891 26.4017C10.0375 26.3478 9.9996 26.2845 9.97793 26.2162C9.95627 26.1479 9.95137 26.0763 9.96359 26.0061L10.5762 22.4946C10.6235 22.2549 10.7654 22.0383 10.9761 21.8844C11.1867 21.7304 11.4521 21.6492 11.724 21.6556H20.2778C20.5496 21.6492 20.8151 21.7304 21.0257 21.8844C21.2364 22.0383 21.3783 22.2549 21.4256 22.4946L22.0382 26.0061C22.0504 26.0763 22.0455 26.1479 22.0238 26.2162C22.0022 26.2845 21.9642 26.3478 21.9127 26.4017C21.8611 26.4556 21.7971 26.4989 21.725 26.5286C21.653 26.5583 21.5746 26.5737 21.4953 26.5737ZM11.1482 25.5901H20.8536L20.3399 22.6466C20.3421 22.6555 20.3179 22.6392 20.2778 22.6392H11.724C11.6996 22.6379 11.6755 22.6451 11.657 22.6594L11.1482 25.5901Z" fill="#2B53BE"/>
<path d="M24.7034 31.0001H7.29694C6.82296 31.0002 6.35453 30.9088 5.9236 30.7322C5.49267 30.5555 5.10937 30.2977 4.79985 29.9764C4.49033 29.6551 4.26187 29.2779 4.13005 28.8703C3.99822 28.4628 3.96614 28.0347 4.03598 27.615L5.83926 16.7944C5.95887 16.0963 6.35295 15.4593 6.95057 14.9981C7.54818 14.537 8.31008 14.2819 9.09912 14.2788H14.3518C14.4975 14.2788 14.6373 14.3306 14.7403 14.4229C14.8434 14.5151 14.9013 14.6402 14.9013 14.7706C14.9013 14.901 14.8434 15.0261 14.7403 15.1184C14.6373 15.2106 14.4975 15.2624 14.3518 15.2624H9.09912C8.57321 15.2642 8.06532 15.4341 7.66692 15.7414C7.26852 16.0487 7.00579 16.4732 6.92606 16.9385L5.12388 27.7601C5.07745 28.0398 5.09891 28.3251 5.18679 28.5966C5.27467 28.8682 5.42691 29.1196 5.63314 29.3337C5.83937 29.5479 6.09474 29.7197 6.38185 29.8375C6.66897 29.9554 6.98109 30.0164 7.29694 30.0165H24.7034C25.0194 30.0167 25.3318 29.9558 25.6192 29.838C25.9065 29.7202 26.1621 29.5482 26.3684 29.3339C26.5748 29.1196 26.727 28.868 26.8148 28.5962C26.9026 28.3245 26.9238 28.0389 26.877 27.7591L25.0748 16.9429C24.9958 16.4768 24.7334 16.0514 24.3348 15.7433C23.9363 15.4351 23.4278 15.2646 22.9012 15.2624H17.6485C17.5028 15.2624 17.363 15.2106 17.26 15.1184C17.1569 15.0261 17.099 14.901 17.099 14.7706C17.099 14.6402 17.1569 14.5151 17.26 14.4229C17.363 14.3306 17.5028 14.2788 17.6485 14.2788H22.9012C23.691 14.2822 24.4534 14.538 25.0512 15C25.6489 15.462 26.0427 16.0999 26.1616 16.7988L27.9638 27.6141C28.0339 28.0337 28.002 28.462 27.8703 28.8696C27.7386 29.2773 27.5103 29.6547 27.2008 29.9761C26.8913 30.2975 26.5079 30.5554 26.0769 30.7321C25.6459 30.9088 25.1774 31.0003 24.7034 31.0001Z" fill="#2B53BE"/>
<path d="M24.7031 29.0327H7.29664C7.13859 29.0328 6.98238 29.0023 6.83868 28.9434C6.69498 28.8846 6.56716 28.7986 6.46394 28.6915C6.36073 28.5843 6.28455 28.4585 6.2406 28.3226C6.19666 28.1867 6.18597 28.044 6.20929 27.904L8.01256 17.0844C8.05246 16.8517 8.18378 16.6395 8.3829 16.4858C8.58202 16.3321 8.83588 16.247 9.09882 16.2458H14.3515C14.4972 16.2458 14.637 16.2977 14.74 16.3899C14.8431 16.4821 14.901 16.6072 14.901 16.7377C14.901 16.8681 14.8431 16.9932 14.74 17.0854C14.637 17.1776 14.4972 17.2295 14.3515 17.2295H9.09882L7.29664 28.0491H24.7031L22.9003 17.2295H17.6482C17.5025 17.2295 17.3627 17.1776 17.2597 17.0854C17.1566 16.9932 17.0987 16.8681 17.0987 16.7377C17.0987 16.6072 17.1566 16.4821 17.2597 16.3899C17.3627 16.2977 17.5025 16.2458 17.6482 16.2458H22.9009C23.1641 16.2469 23.4182 16.3321 23.6175 16.486C23.8167 16.6399 23.948 16.8525 23.9877 17.0854L25.7899 27.904C25.8132 28.0439 25.8025 28.1867 25.7586 28.3225C25.7147 28.4584 25.6385 28.5842 25.5354 28.6913C25.4322 28.7984 25.3045 28.8844 25.1608 28.9433C25.0172 29.0022 24.8611 29.0327 24.7031 29.0327Z" fill="#2B53BE"/>
</svg>
