<svg width="32" height="32" viewBox="0 0 32 32" fill="none" xmlns="http://www.w3.org/2000/svg">
<path d="M23.0918 22.1424H21.5041V20.5189C21.5041 20.4242 21.4512 20.3334 21.357 20.2664C21.2628 20.1995 21.135 20.1619 21.0018 20.1619H18.9485V18.7265L20.6372 17.5898C21.0759 17.2936 21.4255 16.9372 21.6647 16.5422C21.904 16.1471 22.0279 15.7217 22.029 15.2916V6.63632C22.0279 6.20623 21.904 5.78078 21.6648 5.38573C21.4256 4.99068 21.0759 4.63427 20.6372 4.33809L18.8465 3.13293L16.4345 0.165727C16.2552 -0.0552424 15.7439 -0.0552424 15.5646 0.165727L13.1526 3.13293L11.3619 4.33809C10.9232 4.63427 10.5735 4.99068 10.3343 5.38573C10.0951 5.78078 9.97116 6.20623 9.97011 6.63632V15.2913C9.97116 15.7214 10.0951 16.1468 10.3343 16.5419C10.5735 16.9369 10.9232 17.2933 11.3619 17.5895L13.0506 18.7261V20.1615H10.9973C10.8641 20.1615 10.7363 20.1991 10.6421 20.2661C10.5479 20.333 10.495 20.4238 10.495 20.5185V22.142H8.90728C7.91175 22.142 7.10156 22.7175 7.10156 23.425C7.10156 24.1326 7.91125 24.708 8.90728 24.708H10.495V28.0565C10.4957 28.4953 10.7413 28.9161 11.1779 29.2264C11.6146 29.5367 12.2066 29.7113 12.8241 29.7118H13.1481V29.9731C13.1481 31.0908 14.4274 32 16.0001 32C17.5727 32 18.852 31.0908 18.852 29.9731V29.7118H19.176C19.7935 29.7113 20.3855 29.5367 20.8222 29.2264C21.2588 28.9161 21.5044 28.4953 21.5051 28.0565V24.708H23.0928C24.0884 24.708 24.8985 24.1326 24.8985 23.425C24.8985 22.7175 24.0889 22.142 23.0928 22.142L23.0918 22.1424ZM13.9743 8.73535H13.1938C12.7638 8.73535 12.4132 8.48654 12.4132 8.18061C12.4132 7.87468 12.7633 7.62586 13.1938 7.62586C13.6242 7.62586 13.9743 7.87468 13.9743 8.18061V8.73535ZM14.9789 9.44931H17.0202V18.2142H14.9789V9.44931ZM14.0552 18.9289H17.9439V20.1615H14.0552V18.9289ZM10.9747 15.2913V6.63632C10.9747 5.96591 11.3675 5.31728 12.0526 4.85643L13.8965 3.61521C13.9316 3.59165 13.9618 3.56416 13.9864 3.53453L16.0001 1.05746L18.0137 3.53453C18.0383 3.56416 18.068 3.59165 18.1036 3.61521L19.9475 4.85643C20.2872 5.08586 20.5579 5.3619 20.7432 5.66784C20.9285 5.97378 21.0245 6.30325 21.0254 6.63632V15.2913C21.0246 15.6243 20.9287 15.9538 20.7434 16.2598C20.5581 16.5657 20.2873 16.8418 19.9475 17.0712L18.2488 18.2142H18.0258V9.44931H18.8063C19.7908 9.44931 20.5914 8.88029 20.5914 8.18061C20.5914 7.48093 19.7908 6.91191 18.8063 6.91191C17.8218 6.91191 17.0212 7.48093 17.0212 8.18061V8.73535H14.9799V8.18061C14.9799 7.48129 14.1793 6.91191 13.1948 6.91191C12.2103 6.91191 11.4097 7.48093 11.4097 8.18061C11.4097 8.88029 12.2103 9.44931 13.1948 9.44931H13.9753V18.2142H13.7523L12.0536 17.0712C11.7139 16.8417 11.4432 16.5657 11.2579 16.2597C11.0726 15.9538 10.9766 15.6243 10.9757 15.2913H10.9747ZM18.0248 8.73571V8.18097C18.0248 7.87504 18.3749 7.62622 18.8053 7.62622C19.2358 7.62622 19.5859 7.87504 19.5859 8.18097C19.5859 8.4869 19.2358 8.73571 18.8053 8.73571H18.0248ZM11.4996 20.8758H20.4995V22.1424H11.4996V20.8758ZM17.847 29.9734C17.847 30.6974 17.0187 31.2864 15.9995 31.2864C14.9804 31.2864 14.1521 30.6974 14.1521 29.9734V29.7121H17.8465V29.9734H17.847ZM20.4995 28.0568C20.4991 28.3064 20.3595 28.5457 20.1111 28.7221C19.8628 28.8986 19.5262 28.9979 19.175 28.9982H12.8236C12.4724 28.9979 12.1358 28.8986 11.8875 28.7221C11.6391 28.5457 11.4995 28.3064 11.4991 28.0568V24.7084H20.499L20.4995 28.0568ZM23.0918 23.9944H8.90728C8.46577 23.9944 8.10613 23.7392 8.10613 23.4254C8.10613 23.1116 8.46577 22.8564 8.90728 22.8564H23.0918C23.5333 22.8564 23.893 23.1116 23.893 23.4254C23.893 23.7392 23.5333 23.9944 23.0918 23.9944Z" fill="#2B53BE"/>
<path d="M13.6503 26.0885H18.3492C18.4824 26.0885 18.6102 26.0509 18.7044 25.9839C18.7986 25.917 18.8515 25.8262 18.8515 25.7315C18.8515 25.6368 18.7986 25.546 18.7044 25.4791C18.6102 25.4121 18.4824 25.3745 18.3492 25.3745H13.6503C13.5171 25.3745 13.3893 25.4121 13.2951 25.4791C13.2009 25.546 13.148 25.6368 13.148 25.7315C13.148 25.8262 13.2009 25.917 13.2951 25.9839C13.3893 26.0509 13.5171 26.0885 13.6503 26.0885ZM13.6503 27.2101H18.3492C18.4824 27.2101 18.6102 27.1725 18.7044 27.1056C18.7986 27.0386 18.8515 26.9478 18.8515 26.8531C18.8515 26.7585 18.7986 26.6677 18.7044 26.6007C18.6102 26.5338 18.4824 26.4962 18.3492 26.4962H13.6503C13.5171 26.4962 13.3893 26.5338 13.2951 26.6007C13.2009 26.6677 13.148 26.7585 13.148 26.8531C13.148 26.9478 13.2009 27.0386 13.2951 27.1056C13.3893 27.1725 13.5171 27.2101 13.6503 27.2101ZM25.4977 10.7541H23.5453C23.4121 10.7541 23.2844 10.7917 23.1902 10.8587C23.096 10.9256 23.043 11.0164 23.043 11.1111C23.043 11.2058 23.096 11.2966 23.1902 11.3635C23.2844 11.4305 23.4121 11.4681 23.5453 11.4681H25.4977C25.6309 11.4681 25.7587 11.4305 25.8529 11.3635C25.9471 11.2966 26 11.2058 26 11.1111C26 11.0164 25.9471 10.9256 25.8529 10.8587C25.7587 10.7917 25.6309 10.7541 25.4977 10.7541ZM23.7046 9.49934C23.8018 9.49951 23.897 9.4794 23.9783 9.44151L25.6137 8.68365C25.7254 8.63196 25.8035 8.55086 25.8311 8.45821C25.8586 8.36555 25.8331 8.26893 25.7604 8.18959C25.7244 8.15031 25.6778 8.11645 25.6234 8.08995C25.569 8.06345 25.5078 8.04483 25.4432 8.03515C25.3128 8.0156 25.1769 8.03366 25.0652 8.08535L23.4298 8.84322C23.339 8.88523 23.2698 8.94697 23.2324 9.01923C23.1951 9.09149 23.1916 9.1704 23.2225 9.24419C23.2534 9.31798 23.317 9.38269 23.4039 9.42868C23.4908 9.47466 23.5962 9.49945 23.7046 9.49934ZM25.6137 13.5389L23.9783 12.781C23.923 12.7555 23.8612 12.7378 23.7964 12.7292C23.7315 12.7206 23.6649 12.7212 23.6003 12.7308C23.5358 12.7405 23.4746 12.7591 23.4201 12.7856C23.3657 12.8121 23.3192 12.846 23.2831 12.8853C23.2471 12.9246 23.2223 12.9685 23.2102 13.0146C23.1981 13.0607 23.1989 13.108 23.2125 13.1539C23.2261 13.1998 23.2523 13.2433 23.2896 13.282C23.3269 13.3207 23.3745 13.3537 23.4298 13.3793L25.0652 14.1372C25.1768 14.1844 25.3097 14.1991 25.4362 14.1782C25.5626 14.1574 25.6728 14.1025 25.7437 14.0252C25.8146 13.9479 25.8406 13.8541 25.8164 13.7635C25.7922 13.6728 25.7196 13.5924 25.6137 13.5389ZM8.45467 11.4681C8.58788 11.4681 8.71564 11.4305 8.80984 11.3635C8.90404 11.2966 8.95695 11.2058 8.95695 11.1111C8.95695 11.0164 8.90404 10.9256 8.80984 10.8587C8.71564 10.7917 8.58788 10.7541 8.45467 10.7541H6.50229C6.36907 10.7541 6.24131 10.7917 6.14712 10.8587C6.05292 10.9256 6 11.0164 6 11.1111C6 11.2058 6.05292 11.2966 6.14712 11.3635C6.24131 11.4305 6.36907 11.4681 6.50229 11.4681H8.45467ZM6.38626 8.68329L8.0217 9.44116C8.13325 9.48836 8.26617 9.50306 8.39263 9.48219C8.51909 9.46132 8.62929 9.40649 8.70016 9.32918C8.77103 9.25188 8.79708 9.15809 8.77286 9.06744C8.74863 8.97679 8.67601 8.89632 8.57019 8.84286L6.93475 8.085C6.82312 8.0333 6.68716 8.01524 6.5568 8.03479C6.42643 8.05434 6.31233 8.10989 6.23959 8.18923C6.16686 8.26857 6.14145 8.3652 6.16895 8.45785C6.19646 8.5505 6.27462 8.6316 6.38626 8.68329ZM8.71686 12.8849C8.64397 12.8057 8.52987 12.7503 8.39958 12.7308C8.26928 12.7112 8.1334 12.7292 8.0217 12.7807L6.38626 13.5386C6.33098 13.5642 6.28334 13.5972 6.24606 13.6359C6.20877 13.6746 6.18257 13.7181 6.16895 13.764C6.15533 13.8099 6.15456 13.8572 6.16668 13.9033C6.1788 13.9494 6.20358 13.9933 6.23959 14.0326C6.27561 14.0719 6.32215 14.1058 6.37658 14.1323C6.43101 14.1588 6.49224 14.1774 6.5568 14.1871C6.62135 14.1967 6.68795 14.1973 6.7528 14.1887C6.81765 14.1801 6.87948 14.1624 6.93475 14.1369L8.57019 13.379C8.62548 13.3534 8.67313 13.3203 8.71042 13.2816C8.74771 13.243 8.77392 13.1994 8.78754 13.1536C8.80116 13.1077 8.80193 13.0603 8.7898 13.0142C8.77767 12.9682 8.75289 12.9242 8.71686 12.8849Z" fill="#2B53BE"/>
</svg>
