<svg width="32" height="32" viewBox="0 0 32 32" fill="none" xmlns="http://www.w3.org/2000/svg">
<path d="M12.4236 29.605C11.7648 29.605 11.1132 29.3708 10.6137 28.909L0.745707 19.7932C0.260636 19.3447 0 18.7558 0 18.1199C0 17.4841 0.267875 16.8884 0.745707 16.4467L15.8336 2.49193C16.5431 1.83602 17.6943 1.83602 18.3965 2.49193L24.6807 8.3014C25.021 8.61597 25.2093 9.03762 25.2093 9.48605C25.2093 9.93448 25.021 10.3561 24.6807 10.6707L23.2255 12.016L27.6057 16.0652C27.7504 16.1924 27.7504 16.4065 27.6057 16.5404L14.2336 28.909C13.734 29.3708 13.0752 29.605 12.4236 29.605ZM17.1223 2.66595C16.84 2.66595 16.5648 2.76634 16.3549 2.96044L1.25974 16.9152C0.912225 17.2365 0.723988 17.6581 0.723988 18.1199C0.723988 18.5818 0.912225 19.0034 1.25974 19.3247L11.1205 28.4405C11.8372 29.1031 13.0028 29.1031 13.7196 28.4405L26.8455 16.3062L22.4653 12.2569C22.4002 12.1967 22.3567 12.1097 22.3567 12.0227C22.3567 11.9357 22.3929 11.8487 22.4653 11.7884L24.174 10.2089C24.3767 10.0215 24.4925 9.76715 24.4925 9.49944C24.4925 9.23172 24.3767 8.97739 24.174 8.78999L17.8897 2.96713C17.6798 2.76634 17.3974 2.66595 17.1223 2.66595Z" fill="#2B53BE"/>
<path d="M12.4237 26.7672C12.3295 26.7672 12.2354 26.7337 12.1703 26.6668L3.1711 18.3542C3.10594 18.2939 3.0625 18.2069 3.0625 18.1199C3.0625 18.0329 3.0987 17.9459 3.1711 17.8857L14.125 7.75924C14.2626 7.63207 14.4943 7.63207 14.6391 7.75924L23.631 16.0719C23.6962 16.1321 23.7396 16.2191 23.7396 16.3061C23.7396 16.3931 23.7034 16.4801 23.631 16.5404L12.6771 26.6668C12.6047 26.7337 12.5105 26.7672 12.4237 26.7672ZM3.93853 18.1199L12.4164 25.9573L22.8563 16.3061L14.3784 8.462L3.93853 18.1199ZM27.3523 16.6408C27.2582 16.6408 27.1641 16.6073 27.0989 16.5404C26.9541 16.4132 26.9541 16.199 27.0989 16.0652L28.7496 14.5392C28.8654 14.4321 28.8654 14.2581 28.7496 14.151L26.4473 12.0226C26.3315 11.9156 26.1432 11.9156 26.0274 12.0226L24.3767 13.5486C24.2319 13.6758 24.0075 13.6758 23.8627 13.5486C23.7179 13.4215 23.7179 13.2073 23.8627 13.0734L25.5134 11.5474C25.7088 11.3667 25.9622 11.273 26.2374 11.273C26.5125 11.273 26.7659 11.3734 26.9613 11.5474L29.2636 13.6758C29.6618 14.0439 29.6618 14.6463 29.2636 15.0144L27.6129 16.5404C27.5405 16.6073 27.4464 16.6408 27.3523 16.6408ZM21.7269 11.1057C21.4011 11.1057 21.097 10.9919 20.8726 10.7778L15.725 6.01908C15.2545 5.58404 15.2545 4.87458 15.725 4.43954L16.268 3.93757C16.4925 3.7234 16.7965 3.60962 17.1223 3.60962C17.4481 3.60962 17.7522 3.7234 17.9766 3.93757L23.1242 8.69625C23.5948 9.13129 23.5948 9.84074 23.1242 10.2758L22.5812 10.7778C22.3495 10.9919 22.0455 11.1057 21.7269 11.1057ZM17.1223 4.27891C16.992 4.27891 16.8689 4.32576 16.7821 4.40608L16.2391 4.90805C16.0508 5.08207 16.0508 5.36986 16.2391 5.54388L21.3866 10.3026C21.4808 10.3896 21.5966 10.4297 21.7269 10.4297C21.8572 10.4297 21.9803 10.3829 22.0672 10.3026L22.6102 9.80059C22.7984 9.62657 22.7984 9.33877 22.6102 9.16476L17.4626 4.40608C17.3685 4.32576 17.2454 4.27891 17.1223 4.27891Z" fill="#2B53BE"/>
<path d="M15.7108 17.337C15.5298 17.337 15.3705 17.2098 15.3488 17.0358C15.3271 16.8484 15.4719 16.6877 15.6746 16.6677L23.3344 15.9716C23.5371 15.9515 23.7108 16.0854 23.7326 16.2728C23.7543 16.4602 23.6095 16.6208 23.4068 16.6409L15.747 17.337H15.7108ZM13.6257 15.4094H13.5895C13.3868 15.3893 13.242 15.2287 13.2637 15.0413L14.0166 7.96016C14.0384 7.77276 14.2121 7.6389 14.4148 7.65898C14.6175 7.67905 14.7623 7.83968 14.7406 8.02709L13.9877 15.1082C13.9732 15.2822 13.8139 15.4094 13.6257 15.4094ZM12.4239 26.7673H12.3877C12.1849 26.7472 12.0402 26.5866 12.0619 26.3992L12.8148 19.3181C12.8365 19.1307 13.0103 18.9968 13.213 19.0169C13.4157 19.037 13.5605 19.1976 13.5388 19.385L12.7786 26.4594C12.7641 26.6335 12.6049 26.7673 12.4239 26.7673ZM3.4247 18.4547C3.2437 18.4547 3.08442 18.3275 3.0627 18.1535C3.04098 17.9661 3.18578 17.8055 3.3885 17.7854L11.0555 17.0893C11.2582 17.0692 11.432 17.2031 11.4537 17.3905C11.4754 17.5779 11.3306 17.7385 11.1279 17.7586L3.4609 18.448C3.45366 18.448 3.43918 18.4547 3.4247 18.4547ZM29.3652 23.7488C27.91 23.7488 26.7299 22.6578 26.7299 21.3126C26.7299 20.3555 27.7652 19.0637 28.5977 18.0263C28.7787 17.8055 28.9453 17.598 29.0683 17.424C29.1335 17.3303 29.2493 17.2767 29.3652 17.2767C29.481 17.2767 29.5969 17.3303 29.662 17.424C29.7923 17.5913 29.9588 17.8055 30.1326 18.0263C30.9652 19.0637 32.0005 20.3555 32.0005 21.3126C32.0005 22.6512 30.8132 23.7488 29.3652 23.7488ZM29.3652 18.187C29.3073 18.2606 29.2421 18.3409 29.1769 18.4212C28.4892 19.2779 27.4538 20.5697 27.4538 21.3059C27.4538 22.2764 28.3082 23.0728 29.3652 23.0728C30.415 23.0728 31.2765 22.283 31.2765 21.3059C31.2765 20.5697 30.2412 19.2712 29.5534 18.4212C29.4883 18.3409 29.4231 18.2606 29.3652 18.187ZM25.7887 30C24.3335 30 23.1534 28.909 23.1534 27.5638C23.1534 26.6067 24.1887 25.3149 25.0212 24.2775C25.2022 24.0567 25.3688 23.8492 25.4918 23.6752C25.557 23.5815 25.6728 23.5279 25.7887 23.5279C25.9045 23.5279 26.0204 23.5815 26.0855 23.6752C26.2158 23.8425 26.3823 24.0567 26.5561 24.2775C27.3887 25.3149 28.424 26.6067 28.424 27.5638C28.424 28.909 27.2367 30 25.7887 30ZM25.7887 24.4449C25.7308 24.5185 25.6656 24.5988 25.6004 24.6791C24.9127 25.5358 23.8774 26.8275 23.8774 27.5638C23.8774 28.5342 24.7317 29.3307 25.7887 29.3307C26.8457 29.3307 27.7 28.5409 27.7 27.5638C27.7 26.8275 26.6647 25.5291 25.9769 24.6791C25.9118 24.5988 25.8466 24.5185 25.7887 24.4449Z" fill="#2B53BE"/>
</svg>
