<svg width="32" height="33" viewBox="0 0 32 33" fill="none" xmlns="http://www.w3.org/2000/svg">
<path d="M25.4414 16.9224C25.7003 16.9224 25.9102 16.7049 25.9102 16.4365C25.9102 16.1682 25.7003 15.9507 25.4414 15.9507C25.1825 15.9507 24.9727 16.1682 24.9727 16.4365C24.9727 16.7049 25.1825 16.9224 25.4414 16.9224Z" fill="#2B53BE"/>
<path d="M27.5303 8.60956H25.9099V6.98682C25.9099 6.91419 25.8943 6.84248 25.8641 6.77694C25.8339 6.7114 25.7899 6.65371 25.7354 6.60807C25.6808 6.56244 25.6172 6.53003 25.549 6.51322C25.4808 6.49641 25.4099 6.49562 25.3414 6.51092L15.9886 8.59834L6.6588 6.51097C6.59029 6.49568 6.51935 6.49646 6.45117 6.51327C6.38299 6.53008 6.3193 6.56248 6.26477 6.6081C6.21024 6.65373 6.16624 6.71142 6.136 6.77694C6.10577 6.84247 6.09005 6.91418 6.09002 6.98682V8.60956H4.46969C4.21028 8.60956 4 8.82752 4 9.09635V26.0132C4 26.282 4.21028 26.5 4.46969 26.5H27.5303C27.7897 26.5 28 26.282 28 26.0132V9.09635C28 8.82752 27.7897 8.60956 27.5303 8.60956ZM7.02934 7.58992L15.519 9.48936L15.5299 25.4102L7.02934 23.5107V7.58992ZM4.93933 9.58318H6.09002V23.9037C6.09002 24.1331 6.24442 24.3313 6.4607 24.3796L11.5926 25.5264H4.93933V9.58318ZM27.0607 25.5264H20.4074L25.5393 24.3796C25.6443 24.3561 25.7383 24.2961 25.8057 24.2095C25.8732 24.1229 25.91 24.015 25.91 23.9037V18.6299C25.91 18.361 25.6997 18.143 25.4403 18.143C25.1809 18.143 24.9706 18.361 24.9706 18.6299V23.5107L16.4692 25.4104L16.4583 9.48946L24.9706 7.58963V14.2607C24.9706 14.5296 25.1809 14.7475 25.4403 14.7475C25.6997 14.7475 25.91 14.5296 25.91 14.2607V9.58318H27.0607V25.5264Z" fill="#2B53BE"/>
<path d="M8.56988 13.8919L13.8114 15.0646C14.0996 15.1291 14.3802 14.894 14.3802 14.5888V12.1547C14.3802 12.0434 14.3434 11.9355 14.276 11.8489C14.2086 11.7624 14.1146 11.7023 14.0096 11.6789L8.76807 10.5061C8.69955 10.4908 8.62859 10.4915 8.56039 10.5083C8.49219 10.5251 8.42848 10.5575 8.37394 10.6031C8.31939 10.6488 8.2754 10.7065 8.24517 10.772C8.21495 10.8376 8.19927 10.9093 8.19929 10.982V13.4161C8.19929 13.5273 8.23607 13.6352 8.3035 13.7218C8.37093 13.8084 8.46495 13.8684 8.56988 13.8919ZM9.13866 11.5851L13.4409 12.5476V13.9856L9.13866 13.0231V11.5851ZM8.56988 16.326L13.8114 17.4987C14.0656 17.5555 14.3214 17.3799 14.3715 17.116C14.4201 16.8594 14.2561 16.6022 14.0096 16.547L8.76807 15.3743C8.51452 15.3177 8.26458 15.4846 8.20988 15.7474C8.15518 16.0102 8.31633 16.2693 8.56988 16.326ZM14.0096 18.9811L8.76807 17.8083C8.51452 17.7517 8.26458 17.9187 8.20988 18.1815C8.15518 18.4443 8.31633 18.7033 8.56988 18.76L13.8114 19.9328C14.0656 19.9896 14.3214 19.814 14.3715 19.55C14.42 19.2934 14.2561 19.0362 14.0096 18.9811ZM14.0096 21.4151L8.76807 20.2424C8.51452 20.1858 8.26458 20.3527 8.20988 20.6156C8.15518 20.8784 8.31633 21.1374 8.56988 21.1941L13.8114 22.3668C14.0656 22.4236 14.3214 22.2481 14.3715 21.9841C14.42 21.7275 14.2561 21.4703 14.0096 21.4151ZM23.2823 10.5061L18.0407 11.6789C17.7938 11.7341 17.6309 11.9911 17.6789 12.2478C17.7283 12.5119 17.9852 12.6873 18.2389 12.6306L23.4805 11.4578C23.734 11.4011 23.8952 11.1421 23.8405 10.8793C23.7857 10.6165 23.5358 10.4496 23.2823 10.5061ZM23.2823 12.9402L18.0407 14.1129C17.7938 14.1682 17.6309 14.4252 17.6789 14.6819C17.7283 14.946 17.9852 15.1214 18.2389 15.0646L23.4805 13.8919C23.734 13.8352 23.8952 13.5762 23.8405 13.3134C23.7857 13.0505 23.5358 12.8835 23.2823 12.9402ZM23.6764 15.4714C23.6218 15.4257 23.5581 15.3934 23.49 15.3766C23.4218 15.3598 23.3508 15.359 23.2823 15.3743L18.0407 16.547C17.9358 16.5705 17.8418 16.6305 17.7744 16.7171C17.7069 16.8037 17.6702 16.9116 17.6701 17.0229V21.891C17.6701 22.1962 17.9507 22.4313 18.2389 22.3668L23.4805 21.1941C23.5854 21.1706 23.6794 21.1106 23.7469 21.024C23.8143 20.9374 23.8511 20.8295 23.8511 20.7183V15.8501C23.8511 15.7775 23.8354 15.7058 23.8051 15.6402C23.7749 15.5747 23.7309 15.517 23.6764 15.4714ZM22.9117 20.3253L18.6095 21.2879V17.4158L22.9117 16.4532V20.3253Z" fill="#2B53BE"/>
</svg>
