<svg width="32" height="32" viewBox="0 0 32 32" fill="none" xmlns="http://www.w3.org/2000/svg">
<path d="M29.9808 9.1833L28.9287 2.26878C28.9008 2.07335 28.8354 1.88579 28.7363 1.71729C28.6373 1.5488 28.5066 1.40284 28.3521 1.28814C28.0435 1.0538 27.6582 0.956621 27.2808 1.01796L20.6413 2.11368C19.6058 2.28421 18.665 2.84074 17.9941 3.6797L15.765 6.46652L14.5207 6.67166C14.4583 6.68146 14.3985 6.70404 14.3447 6.73811C14.2908 6.77217 14.2439 6.81703 14.2069 6.87008C14.1698 6.92314 14.1431 6.98334 14.1286 7.04719C14.114 7.11104 14.1117 7.17726 14.1219 7.24203L14.1988 7.73736L12.3011 8.04756C12.1743 8.0684 12.0604 8.14027 11.984 8.24769C11.9103 8.35673 11.8794 8.49095 11.8975 8.62294L12.1281 10.1139L10.0623 10.8294C9.82545 10.9123 9.61331 11.0577 9.44659 11.2515C9.27986 11.4453 9.16425 11.6809 9.11104 11.9351L8.35677 14.9921H2.48115C2.39387 14.992 2.30821 15.0166 2.23335 15.0633C2.1585 15.1101 2.09729 15.1772 2.0563 15.2574C2.0153 15.3377 1.99607 15.428 2.00067 15.5188C2.00527 15.6096 2.03352 15.6973 2.0824 15.7726L8.24628 25.1538V28.5009C8.24669 28.5833 8.26663 28.6644 8.30435 28.7368C8.34207 28.8093 8.39638 28.8709 8.46247 28.9162L11.345 30.9175C11.4173 30.9671 11.5011 30.9954 11.5875 30.9995C11.6739 31.0036 11.7598 30.9833 11.8361 30.9407C11.9123 30.8982 11.9762 30.835 12.0208 30.7578C12.0654 30.6807 12.0892 30.5924 12.0897 30.5023V25.1538L18.2536 15.7726C18.3024 15.6973 18.3307 15.6096 18.3353 15.5188C18.3399 15.428 18.3207 15.3377 18.2797 15.2574C18.2387 15.1772 18.1775 15.1101 18.1026 15.0633C18.0278 15.0166 17.9421 14.992 17.8548 14.9921H11.715L11.9696 13.6562C11.9874 13.57 12.0264 13.4901 12.0829 13.4243C12.1393 13.3585 12.2112 13.3091 12.2915 13.281L12.6134 13.1709C12.6434 13.2662 12.7021 13.3489 12.7809 13.4066C12.8597 13.4643 12.9543 13.494 13.0505 13.4911C13.0763 13.4918 13.102 13.4901 13.1274 13.4861L28.7845 10.9044C29.1618 10.8405 29.4999 10.6249 29.7262 10.304C29.8378 10.1441 29.9178 9.96268 29.9615 9.77029C30.0052 9.57789 30.0118 9.37836 29.9808 9.1833ZM11.2105 24.7185C11.1571 24.8013 11.1286 24.8989 11.1288 24.9986V29.5666L9.20713 28.2308V24.9986C9.20734 24.8989 9.1789 24.8013 9.12546 24.7185L5.03702 18.4944H15.2989L11.2105 24.7185ZM16.942 15.9928L15.9331 17.5338V17.4937H4.37884L3.39396 15.9928H16.942ZM11.984 12.3304C11.7437 12.4155 11.5291 12.5647 11.3613 12.7631C11.1936 12.9615 11.0787 13.2021 11.0279 13.4611L10.7349 14.9921H9.34646L10.0479 12.1552C10.0657 12.069 10.1047 11.9891 10.1612 11.9233C10.2176 11.8575 10.2895 11.8081 10.3698 11.78L12.2771 11.1196L12.4404 12.1753L11.984 12.3304ZM13.4493 12.4204L12.9256 8.95815L14.3477 8.723L14.8714 12.1853L13.4493 12.4204ZM15.8226 12.0252L15.2221 8.07258L15.1452 7.57725L15.6208 7.5022L16.2982 11.9501L15.8226 12.0252ZM28.6356 9.91378L17.2447 11.79L16.5288 7.07692L18.734 4.32012C19.2555 3.66901 19.9861 3.23702 20.7902 3.10432L27.4297 2.00861C27.4925 1.99803 27.5567 2.00054 27.6186 2.016C27.6804 2.03146 27.7387 2.05956 27.79 2.09867C27.8415 2.13661 27.885 2.18497 27.918 2.24085C27.951 2.29674 27.9729 2.35899 27.9822 2.42388L29.0344 9.34341C29.0526 9.47388 29.021 9.60659 28.9465 9.71318C28.872 9.81977 28.7604 9.89176 28.6356 9.91378Z" fill="#2B53BE"/>
<path d="M26.6344 3.1524L19.9911 4.24761C19.8653 4.2684 19.7525 4.34038 19.6777 4.44771C19.6028 4.55505 19.5719 4.68895 19.5918 4.81999L20.3432 9.76172C20.3611 9.87936 20.4186 9.98652 20.5056 10.0639C20.5925 10.1413 20.7031 10.1839 20.8174 10.184C20.8427 10.1841 20.8679 10.1819 20.8928 10.1775L27.5362 9.08228C27.662 9.06149 27.7747 8.98951 27.8496 8.88218C27.9245 8.77484 27.9553 8.64093 27.9354 8.5099L27.184 3.56817C27.1641 3.43714 27.095 3.31974 26.9919 3.24177C26.8888 3.1638 26.7602 3.13165 26.6344 3.1524ZM21.2191 9.11079L20.618 5.15821L26.3116 4.21909L26.9131 8.17168L21.2191 9.11079Z" fill="#2B53BE"/>
<path d="M24.4846 5.02625C23.8783 5.12631 22.8814 6.06143 22.4807 6.45919C22.4245 6.51508 22.3821 6.58436 22.3573 6.66106C22.3324 6.73776 22.3258 6.8196 22.338 6.89955C22.3502 6.97951 22.3808 7.05519 22.4273 7.1201C22.4737 7.18501 22.5346 7.23721 22.6047 7.27222C23.2835 7.64548 24.0197 7.89251 24.7801 8.0022C24.8323 8.00262 24.8845 7.99877 24.9362 7.99069C25.1257 7.96287 25.308 7.89603 25.4724 7.79407C25.6368 7.6921 25.7801 7.55706 25.8939 7.39681C26.0077 7.23657 26.0897 7.05433 26.1351 6.86073C26.1805 6.66713 26.1885 6.46605 26.1585 6.26921C26.1285 6.07238 26.0612 5.88373 25.9605 5.71428C25.8597 5.54483 25.7276 5.39797 25.5718 5.28227C25.4159 5.16657 25.2396 5.08434 25.0529 5.04038C24.8662 4.99642 24.6731 4.99162 24.4846 5.02625ZM24.7863 7.00204C24.407 6.95594 24.0373 6.84594 23.6919 6.67633C23.9704 6.40484 24.2888 6.18139 24.635 6.0144C24.6982 6.00172 24.7632 6.0024 24.8262 6.01641C24.8891 6.03041 24.9488 6.05746 25.0015 6.09593C25.0542 6.13441 25.099 6.18353 25.1331 6.24038C25.1673 6.29722 25.1901 6.36064 25.2002 6.42685C25.2104 6.49307 25.2077 6.56073 25.1922 6.62582C25.1767 6.69091 25.1489 6.7521 25.1103 6.80576C25.0716 6.85941 25.0231 6.90444 24.9674 6.93816C24.9118 6.97188 24.8502 6.9936 24.7863 7.00204Z" fill="#2B53BE"/>
</svg>
