<svg width="32" height="33" viewBox="0 0 32 33" fill="none" xmlns="http://www.w3.org/2000/svg">
<path d="M26.2881 5.41448C24.8585 4.44703 22.6882 2.97163 21.5213 2.18132C20.8663 1.73611 20.0757 1.4974 19.2647 1.50002H9.9231C9.34306 1.50162 8.78726 1.71683 8.37711 2.09866C7.96696 2.48048 7.73577 2.99789 7.73406 3.53787V5.69533H6.18904C5.609 5.69692 5.05321 5.91214 4.64305 6.29396C4.2329 6.67579 4.00172 7.19319 4 7.73317V29.4622C4.00172 30.0021 4.2329 30.5195 4.64305 30.9014C5.05321 31.2832 5.609 31.4984 6.18904 31.5H21.9384C22.5185 31.4984 23.0743 31.2832 23.4844 30.9014C23.8946 30.5195 24.1258 30.0021 24.1275 29.4622V27.3047H25.6725C26.2525 27.3031 26.8083 27.0879 27.2185 26.7061C27.6286 26.3242 27.8598 25.8068 27.8615 25.2668V8.2979C27.8612 7.73596 27.7186 7.18201 27.4452 6.68101C27.1718 6.18001 26.7754 5.74609 26.2881 5.41448ZM25.7148 6.15104C25.8781 6.26182 26.028 6.38873 26.162 6.52954H20.9578C20.7952 6.52934 20.6394 6.46914 20.5245 6.36214C20.4095 6.25514 20.3448 6.11008 20.3446 5.95876V2.60222C20.5574 2.68367 20.7589 2.78863 20.9447 2.91486C22.1133 3.70744 24.2844 5.18208 25.7148 6.15104ZM23.1517 29.4667C23.1513 29.7661 23.0233 30.0532 22.7959 30.2649C22.5684 30.4766 22.2601 30.5957 21.9384 30.5961H6.18498C5.86327 30.5959 5.5548 30.4769 5.32732 30.2651C5.09984 30.0533 4.97195 29.7662 4.97173 29.4667V7.72939C4.97216 7.42996 5.10013 7.14292 5.32756 6.93119C5.55499 6.71947 5.86334 6.60034 6.18498 6.59994H15.6307V10.2971C15.632 10.6983 15.8038 11.0827 16.1085 11.3664C16.4132 11.65 16.8261 11.8099 17.257 11.8111H23.0525C23.1159 12.0314 23.1481 12.2584 23.1484 12.4864L23.1517 29.4667ZM16.6065 6.79752C16.8196 6.8788 17.0214 6.98377 17.2074 7.11016C18.3743 7.90274 20.5455 9.38117 21.9758 10.3448C22.2095 10.5029 22.4157 10.6934 22.5873 10.9096H17.2603C17.0881 10.9086 16.9232 10.8444 16.8015 10.7311C16.6797 10.6177 16.6108 10.4643 16.6098 10.304L16.6065 6.79752ZM26.8898 25.2684C26.8894 25.5678 26.7614 25.8548 26.534 26.0666C26.3065 26.2783 25.9982 26.3974 25.6766 26.3978H24.1315V12.4932C24.1306 11.9309 23.9871 11.3767 23.7129 10.8757C23.4386 10.3747 23.0413 9.941 22.5532 9.60978C21.1204 8.64309 18.9492 7.16921 17.7823 6.37814C17.1275 5.93278 16.3368 5.69406 15.5258 5.69684H8.70986V3.53409C8.71157 3.23503 8.83994 2.94867 9.0671 2.7372C9.29425 2.52574 9.60185 2.40623 9.9231 2.40464H19.2647C19.2997 2.40464 19.3347 2.40464 19.3696 2.40842V5.95725C19.3696 6.34969 19.537 6.72608 19.8349 7.00372C20.1329 7.28136 20.537 7.43754 20.9586 7.43794H26.7321C26.8351 7.71503 26.8879 8.00617 26.8882 8.29941L26.8898 25.2684Z" fill="#2B53BE"/>
<path d="M9.07602 13.1363C9.4231 13.1363 9.71294 13.2508 9.94556 13.4799C10.1782 13.709 10.2945 13.9944 10.2945 14.3363C10.2945 14.6781 10.1782 14.9635 9.94556 15.1926C9.71294 15.4217 9.4231 15.5363 9.07602 15.5363H8.0791V16.9544H7.69141V13.1363H9.07602ZM9.07602 15.1763C9.31602 15.1763 9.51356 15.0981 9.66864 14.9417C9.82741 14.7817 9.90679 14.5799 9.90679 14.3363C9.90679 14.0926 9.82741 13.8926 9.66864 13.7363C9.51356 13.5763 9.31602 13.4963 9.07602 13.4963H8.0791V15.1763H9.07602Z" fill="#2B53BE"/>
<path d="M12.0685 17.0199C11.7141 17.0199 11.4094 16.9381 11.1547 16.7744C10.9036 16.6072 10.7282 16.3781 10.6285 16.0872L10.9608 15.8963C11.031 16.1326 11.1602 16.3181 11.3485 16.4526C11.5368 16.5835 11.7787 16.649 12.0741 16.649C12.3621 16.649 12.5854 16.5872 12.7442 16.4635C12.9067 16.3363 12.9879 16.169 12.9879 15.9617C12.9879 15.7617 12.9141 15.6108 12.7664 15.509C12.6187 15.4072 12.375 15.3017 12.0353 15.1926C11.6328 15.0617 11.367 14.9563 11.2378 14.8763C10.9424 14.7017 10.7947 14.449 10.7947 14.1181C10.7947 13.7944 10.9091 13.5399 11.1381 13.3544C11.367 13.1653 11.6494 13.0708 11.9854 13.0708C12.2882 13.0708 12.5504 13.149 12.7719 13.3053C12.9934 13.4581 13.1578 13.6544 13.2648 13.8944L12.9381 14.0744C12.7608 13.6526 12.4433 13.4417 11.9854 13.4417C11.7454 13.4417 11.5516 13.4999 11.4039 13.6163C11.2562 13.7326 11.1824 13.8944 11.1824 14.1017C11.1824 14.2908 11.2488 14.4326 11.3818 14.5272C11.5147 14.6217 11.7344 14.7181 12.0408 14.8163C12.1811 14.8635 12.2808 14.8981 12.3399 14.9199C12.4027 14.9381 12.4913 14.9708 12.6058 15.0181C12.7239 15.0617 12.8107 15.1017 12.8661 15.1381C12.9214 15.1708 12.9879 15.2181 13.0654 15.2799C13.1467 15.3381 13.2039 15.3981 13.2371 15.4599C13.2741 15.5181 13.3054 15.5908 13.3313 15.6781C13.3608 15.7617 13.3756 15.8526 13.3756 15.9508C13.3756 16.2744 13.2556 16.5344 13.0156 16.7308C12.7756 16.9235 12.4599 17.0199 12.0685 17.0199Z" fill="#2B53BE"/>
<path d="M9.18679 21.8863C9.71479 21.8863 10.1505 22.0717 10.4939 22.4426C10.8409 22.8099 11.0145 23.2608 11.0145 23.7953C11.0145 24.3299 10.8409 24.7826 10.4939 25.1535C10.1505 25.5208 9.71479 25.7044 9.18679 25.7044H7.69141V21.8863H9.18679ZM9.18679 25.3444C9.61141 25.3444 9.95848 25.1953 10.228 24.8972C10.5013 24.599 10.6379 24.2317 10.6379 23.7953C10.6379 23.359 10.5013 22.9917 10.228 22.6935C9.95848 22.3953 9.61141 22.2463 9.18679 22.2463H8.0791V25.3444H9.18679Z" fill="#2B53BE"/>
<path d="M14.8844 25.1972C14.4967 25.579 14.0222 25.7699 13.461 25.7699C12.8997 25.7699 12.4253 25.579 12.0376 25.1972C11.6499 24.8117 11.456 24.3444 11.456 23.7953C11.456 23.2463 11.6499 22.7808 12.0376 22.399C12.4253 22.0135 12.8997 21.8208 13.461 21.8208C14.0222 21.8208 14.4967 22.0135 14.8844 22.399C15.272 22.7808 15.4659 23.2463 15.4659 23.7953C15.4659 24.3444 15.272 24.8117 14.8844 25.1972ZM12.309 24.9353C12.6191 25.2444 13.0031 25.399 13.461 25.399C13.9188 25.399 14.3028 25.2444 14.613 24.9353C14.9231 24.6226 15.0782 24.2426 15.0782 23.7953C15.0782 23.3481 14.9231 22.9699 14.613 22.6608C14.3028 22.3481 13.9188 22.1917 13.461 22.1917C13.0031 22.1917 12.6191 22.3481 12.309 22.6608C11.9988 22.9699 11.8437 23.3481 11.8437 23.7953C11.8437 24.2426 11.9988 24.6226 12.309 24.9353Z" fill="#2B53BE"/>
<path d="M17.94 25.7699C17.3529 25.7699 16.8674 25.579 16.4834 25.1972C16.0994 24.8153 15.9074 24.3481 15.9074 23.7953C15.9074 23.2426 16.0994 22.7753 16.4834 22.3935C16.8674 22.0117 17.3529 21.8208 17.94 21.8208C18.2981 21.8208 18.6268 21.9063 18.9258 22.0772C19.2249 22.2444 19.4557 22.4717 19.6181 22.759L19.2748 22.9553C19.1529 22.7226 18.972 22.5372 18.732 22.399C18.492 22.2608 18.228 22.1917 17.94 22.1917C17.4563 22.1917 17.0612 22.3463 16.7548 22.6553C16.4483 22.9644 16.2951 23.3444 16.2951 23.7953C16.2951 24.2463 16.4483 24.6263 16.7548 24.9353C17.0612 25.2444 17.4563 25.399 17.94 25.399C18.228 25.399 18.492 25.3299 18.732 25.1917C18.972 25.0535 19.1529 24.8681 19.2748 24.6353L19.6181 24.8263C19.4594 25.1135 19.2286 25.3426 18.9258 25.5135C18.6268 25.6844 18.2981 25.7699 17.94 25.7699Z" fill="#2B53BE"/>
</svg>
