<svg width="32" height="32" viewBox="0 0 32 32" fill="none" xmlns="http://www.w3.org/2000/svg">
<path d="M10.5793 17.063L7.94896 21.2902C7.60235 21.8464 7.41755 22.5003 7.41797 23.1691V23.2581C7.41797 25.1253 8.8361 26.6452 10.5793 26.6452C12.3224 26.6452 13.7406 25.1253 13.7406 23.2581V23.169C13.741 22.5003 13.5562 21.8464 13.2096 21.2903L10.5793 17.063ZM12.8373 23.2581C12.8373 24.5921 11.8243 25.6775 10.5793 25.6775C9.33423 25.6775 8.3212 24.5921 8.3212 23.2581V23.169C8.32097 22.6914 8.45297 22.2245 8.7005 21.8273L10.5793 18.8081L12.458 21.8273C12.7056 22.2245 12.8376 22.6914 12.8373 23.169V23.2581Z" fill="#2B53BE"/>
<path d="M10.1298 23.258V23.1689C10.1298 23.0737 10.156 22.9807 10.2052 22.9014L9.45412 22.3637C9.30544 22.602 9.22623 22.8823 9.22656 23.1689V23.258C9.22656 24.0582 9.83455 24.7096 10.5814 24.7096V23.7418C10.3327 23.7418 10.1298 23.5249 10.1298 23.258ZM25.0331 20.8308L23.0694 24.512C22.8767 24.8743 22.7753 25.284 22.775 25.701C22.775 27.0219 23.7782 28.0967 25.0111 28.0967H25.0555C26.288 28.0967 27.2912 27.0219 27.2912 25.7009C27.2912 25.2849 27.189 24.8735 26.9968 24.5125L25.0331 20.8308ZM25.0551 27.1289H25.0106C24.2763 27.1289 23.6782 26.4882 23.6782 25.7009C23.6782 25.4529 23.7386 25.2074 23.854 24.9926L25.0331 22.7819L26.2122 24.9926C26.3275 25.2082 26.3881 25.4525 26.3879 25.701C26.3879 26.4882 25.7899 27.1289 25.0551 27.1289Z" fill="#2B53BE"/>
<path d="M18.1982 7.76736L14.6452 5.10274V2.45161C14.6452 1.65141 14.0372 1 13.2904 1H7.87099C7.12413 1 6.51615 1.65141 6.51615 2.45161V5.10274L2.96318 7.76736C2.66583 7.99063 2.42305 8.28736 2.25539 8.63244C2.08773 8.97752 2.00013 9.3608 2 9.74984L2 28.5806C2 29.9146 3.01303 31 4.25807 31H16.9033C18.1483 31 19.1614 29.9146 19.1614 28.5806V9.74984C19.1612 9.3608 19.0736 8.97751 18.9059 8.63243C18.7383 8.28735 18.4955 7.99062 18.1982 7.76736ZM7.41938 4.87097V3.90323H8.32261V4.87097H7.41938ZM9.22584 3.90323H10.1291V4.87097H9.22584V3.90323ZM11.0323 3.90323H11.9355V4.87097H11.0323V3.90323ZM12.8388 3.90323H13.742V4.87097H12.8388V3.90323ZM7.87099 1.96774H13.2904C13.5391 1.96774 13.742 2.18512 13.742 2.45161V2.93548H7.41938V2.45161C7.41938 2.18512 7.62226 1.96774 7.87099 1.96774ZM3.48073 8.56048L7.11002 5.83871H14.0509L17.6802 8.56048C17.8586 8.69443 18.0042 8.87244 18.1048 9.07947C18.2054 9.28649 18.258 9.51644 18.2581 9.74984V9.75456C17.5902 9.115 16.7222 8.74194 15.7868 8.74194H5.37452C4.43911 8.74194 3.57117 9.115 2.90323 9.75456V9.74984C2.90335 9.51649 2.95589 9.2866 3.05641 9.07959C3.15692 8.87258 3.30246 8.69453 3.48073 8.56048ZM16.9033 30.0323H4.25807C3.51122 30.0323 2.90323 29.3808 2.90323 28.5806V11.291C3.39628 10.315 4.33259 9.70968 5.37452 9.70968H15.7868C16.5895 9.70968 17.3315 10.0671 17.8552 10.6774H14.6452V11.6452H18.2581V12.6129H14.6452V13.5806H18.2581V28.5806C18.2581 29.3808 17.6501 30.0323 16.9033 30.0323Z" fill="#2B53BE"/>
<path d="M16.3575 15.2447L5.98376 10.7989C5.79644 10.7185 5.59645 10.6772 5.39463 10.6775C4.51889 10.6775 3.80664 11.4406 3.80664 12.3788V27.3637C3.80664 28.3015 4.51889 29.0646 5.39457 29.0646H15.7676C16.6428 29.0646 17.3551 28.3015 17.3551 27.3632V16.8242C17.3551 16.1244 16.9634 15.5046 16.3575 15.2447ZM16.4519 27.3633C16.4519 27.7678 16.1447 28.0968 15.7671 28.0968H5.39463C5.01697 28.0968 4.70987 27.7678 4.70987 27.3632V12.3789C4.70987 11.9743 5.01702 11.6452 5.39457 11.6452C5.48207 11.6452 5.56743 11.6632 5.64838 11.6974L16.0214 16.1432C16.1487 16.1973 16.2578 16.2911 16.3346 16.4126C16.4114 16.5341 16.4522 16.6775 16.4519 16.8242V27.3633Z" fill="#2B53BE"/>
<path d="M5.61328 14.0646H9.67781V15.0324H5.61328V14.0646ZM5.61328 16.0001H9.67781V16.9678H5.61328V16.0001ZM29.4584 17.7426L28.194 16.7259V14.5485H26.7999L25.9747 4.82546C25.9304 4.29955 25.5254 3.90332 25.0327 3.90332C24.54 3.90332 24.135 4.29949 24.0906 4.82546L23.2655 14.5485H21.8714V16.7259L20.607 17.742C20.2678 18.0146 20.0649 18.4485 20.0649 18.9033V29.5485C20.0649 30.3487 20.6729 31.0001 21.4198 31.0001H28.6456C29.3925 31.0001 30.0005 30.3487 30.0005 29.5485V18.9033C30.0005 18.4485 29.7976 18.0145 29.4584 17.7426ZM27.2908 16.484H26.3876V15.5162H27.2908V16.484ZM25.4843 15.5162V16.484H24.5811V15.5162H25.4843ZM24.9901 4.91261C24.9943 4.86471 25.0715 4.86471 25.0753 4.91261L25.8929 14.5485H24.1725L24.9901 4.91261ZM23.6779 15.5162V16.484H22.7746V15.5162H23.6779ZM28.6456 30.0324H21.4198C21.1711 30.0324 20.9682 29.8155 20.9682 29.5485V19.8711H26.3876V18.9033H20.9682C20.9683 18.8282 20.9847 18.7542 21.016 18.6871C21.0474 18.6199 21.0928 18.5615 21.1488 18.5163L22.4738 17.4517H27.592L28.917 18.5168C28.9729 18.5619 29.0183 18.6203 29.0496 18.6874C29.0808 18.7544 29.0971 18.8284 29.0972 18.9033H27.2908V19.8711H29.0972V29.5485C29.0972 29.8155 28.8944 30.0324 28.6456 30.0324Z" fill="#2B53BE"/>
</svg>
