<svg width="32" height="33" viewBox="0 0 32 33" fill="none" xmlns="http://www.w3.org/2000/svg">
<path d="M27.9856 16.3847L24.9476 4.45333C24.8771 4.17955 24.7259 3.93824 24.517 3.76614C24.3082 3.59404 24.0532 3.50059 23.7908 3.5H8.20927C7.94688 3.50059 7.69187 3.59404 7.48304 3.76614C7.27421 3.93824 7.12301 4.17955 7.05247 4.45333L4.01248 16.3839C4.00352 16.4218 3.99935 16.4609 4.00008 16.5V27.3333C4.00072 27.9078 4.21163 28.4585 4.58657 28.8646C4.9615 29.2708 5.46984 29.4993 6.00007 29.5H26C26.5302 29.4993 27.0386 29.2708 27.4135 28.8646C27.7884 28.4585 27.9994 27.9078 28 27.3333V16.5C28 16.4611 27.9952 16.4223 27.9856 16.3847ZM7.82567 4.68473C7.84886 4.59367 7.89889 4.5133 7.96814 4.45588C8.03739 4.39847 8.12206 4.36714 8.20927 4.36667H23.7908C23.8784 4.36666 23.9635 4.39778 24.0331 4.45523C24.1028 4.51269 24.1531 4.59331 24.1764 4.68473L27.0748 16.0667H4.92528L7.82567 4.68473ZM26 28.6333H6.00007C5.68182 28.6333 5.37659 28.4964 5.15155 28.2526C4.92651 28.0088 4.80008 27.6781 4.80008 27.3333V16.9333H27.2V27.3333C27.2 27.6781 27.0736 28.0088 26.8485 28.2526C26.6235 28.4964 26.3183 28.6333 26 28.6333Z" fill="#2B53BE"/>
<path d="M6.18352 15.0293C6.22103 15.0827 6.26945 15.1259 6.32498 15.1555C6.38051 15.1851 6.44162 15.2004 6.50352 15.2001H25.4991C25.5607 15.2001 25.6214 15.1847 25.6766 15.155C25.7318 15.1254 25.78 15.0824 25.8173 15.0293C25.8546 14.9762 25.8801 14.9144 25.8918 14.8489C25.9035 14.7834 25.901 14.7158 25.8847 14.6515L23.5675 5.55147C23.5442 5.46004 23.4938 5.37942 23.4242 5.32196C23.3545 5.26451 23.2694 5.2334 23.1819 5.2334H8.81871C8.73117 5.2334 8.64604 5.26451 8.57638 5.32196C8.50673 5.37942 8.4564 5.46004 8.43311 5.55147L6.11592 14.6515C6.09956 14.7158 6.09714 14.7834 6.10887 14.849C6.1206 14.9145 6.14614 14.9762 6.18352 15.0293ZM7.02672 14.3334L7.57832 12.1667H24.4223L24.9739 14.3334H7.02672ZM8.35071 9.1334H23.6499L24.2003 11.3001H7.80032L8.35071 9.1334ZM9.12351 6.10007H22.8771L23.4291 8.26673H8.57151L9.12351 6.10007ZM19.0455 18.6667H12.9551C12.8283 18.6666 12.7032 18.6991 12.5903 18.7616C12.4773 18.824 12.3797 18.9147 12.3055 19.0261C12.2312 19.1375 12.1825 19.2665 12.1633 19.4023C12.1441 19.5381 12.155 19.6769 12.1951 19.8073L12.6403 21.2446C12.7199 21.5031 12.8724 21.728 13.0763 21.8874C13.2802 22.0469 13.5252 22.1329 13.7767 22.1334H18.2239C18.4758 22.1334 18.7213 22.0475 18.9256 21.8879C19.1299 21.7283 19.2827 21.5031 19.3623 21.2442L19.8023 19.8077C19.8423 19.6776 19.8533 19.539 19.8344 19.4034C19.8154 19.2678 19.7669 19.139 19.6931 19.0277C19.6192 18.9163 19.522 18.8255 19.4094 18.7627C19.2968 18.7 19.1721 18.6671 19.0455 18.6667ZM18.6031 20.9703C18.5766 21.0566 18.5257 21.1316 18.4576 21.1848C18.3896 21.238 18.3078 21.2667 18.2239 21.2667H13.7767C13.6928 21.2667 13.611 21.238 13.543 21.1848C13.4749 21.1316 13.424 21.0566 13.3975 20.9703L12.9551 19.5334H19.0451L18.6031 20.9703Z" fill="#2B53BE"/>
</svg>
