<svg width="32" height="32" viewBox="0 0 32 32" fill="none" xmlns="http://www.w3.org/2000/svg">
<path d="M18.5076 19.4117C21.7716 19.4117 24.4271 16.7563 24.4271 13.4923C24.4271 10.2283 21.7716 7.57285 18.5076 7.57285C15.2437 7.57285 12.5882 10.2283 12.5882 13.4923C12.5882 16.7563 15.2437 19.4117 18.5076 19.4117ZM18.5076 8.36643C21.3341 8.36643 23.6336 10.6659 23.6336 13.4924C23.6336 16.3188 21.3341 18.6183 18.5076 18.6183C15.6812 18.6183 13.3817 16.3188 13.3817 13.4924C13.3817 10.6659 15.6812 8.36643 18.5076 8.36643ZM18.5077 11.1332C19.0625 11.1332 19.5139 10.6818 19.5139 10.127C19.5139 9.57213 19.0625 9.12073 18.5077 9.12073C17.9529 9.12073 17.5014 9.57213 17.5014 10.127C17.5014 10.6818 17.9529 11.1332 18.5077 11.1332ZM18.5077 9.91419C18.625 9.91419 18.7204 10.0096 18.7204 10.1269C18.7204 10.2442 18.625 10.3396 18.5077 10.3396C18.3904 10.3396 18.2949 10.2442 18.2949 10.1269C18.2949 10.0096 18.3904 9.91419 18.5077 9.91419ZM21.873 14.4986C22.4278 14.4986 22.8793 14.0472 22.8793 13.4923C22.8793 12.9374 22.4278 12.486 21.873 12.486C21.3181 12.486 20.8667 12.9374 20.8667 13.4923C20.8667 14.0472 21.3181 14.4986 21.873 14.4986ZM21.873 13.2795C21.9903 13.2795 22.0857 13.375 22.0857 13.4923C22.0857 13.6096 21.9903 13.7051 21.873 13.7051C21.7557 13.7051 21.6603 13.6096 21.6603 13.4923C21.6603 13.375 21.7557 13.2795 21.873 13.2795ZM18.5076 15.8514C17.9528 15.8514 17.5013 16.3028 17.5013 16.8577C17.5013 17.4125 17.9528 17.8639 18.5076 17.8639C19.0625 17.8639 19.5139 17.4125 19.5139 16.8577C19.5139 16.3028 19.0625 15.8514 18.5076 15.8514ZM18.5076 17.0704C18.3903 17.0704 18.2949 16.975 18.2949 16.8577C18.2949 16.7404 18.3903 16.6449 18.5076 16.6449C18.625 16.6449 18.7204 16.7404 18.7204 16.8577C18.7204 16.975 18.625 17.0704 18.5076 17.0704ZM16.1486 13.4923C16.1486 12.9374 15.6972 12.486 15.1423 12.486C14.5875 12.486 14.136 12.9374 14.136 13.4923C14.136 14.0472 14.5875 14.4986 15.1423 14.4986C15.6972 14.4986 16.1486 14.0472 16.1486 13.4923ZM14.9295 13.4923C14.9296 13.4359 14.952 13.3818 14.9919 13.3419C15.0318 13.302 15.0859 13.2796 15.1423 13.2795C15.2596 13.2795 15.355 13.375 15.355 13.4923C15.355 13.6096 15.2596 13.7051 15.1423 13.7051C15.0859 13.705 15.0318 13.6826 14.9919 13.6427C14.952 13.6028 14.9296 13.5487 14.9295 13.4923ZM18.5077 15.0971C19.3925 15.0971 20.1124 14.3772 20.1124 13.4923C20.1124 12.6074 19.3925 11.8875 18.5077 11.8875C17.6228 11.8875 16.9029 12.6075 16.9029 13.4923C16.9029 14.3771 17.6228 15.0971 18.5077 15.0971ZM18.5077 12.681C18.955 12.681 19.3189 13.045 19.3189 13.4923C19.3189 13.9396 18.955 14.3036 18.5077 14.3036C18.0603 14.3036 17.6964 13.9396 17.6964 13.4923C17.6964 13.045 18.0604 12.681 18.5077 12.681ZM14.2269 7.80303L14.653 6.21298C14.6805 6.11166 14.7471 6.02538 14.8381 5.97304C14.9291 5.9207 15.0371 5.90657 15.1386 5.93374C15.24 5.96091 15.3265 6.02716 15.3791 6.11799C15.4318 6.20883 15.4463 6.31683 15.4195 6.41833L14.9934 8.00838C14.9708 8.09271 14.921 8.16724 14.8518 8.22042C14.7825 8.27359 14.6977 8.30246 14.6104 8.30255C14.5495 8.30258 14.4894 8.28861 14.4348 8.2617C14.3802 8.23479 14.3325 8.19567 14.2954 8.14738C14.2584 8.09908 14.2329 8.04291 14.221 7.98319C14.2091 7.92348 14.2112 7.86183 14.2269 7.80303ZM12.4418 10.9861C12.3402 11.0133 12.2319 10.999 12.1408 10.9464C12.0497 10.8938 11.9832 10.8072 11.9559 10.7056L11.5297 9.11557C11.5025 9.01393 11.5168 8.90563 11.5694 8.8145C11.622 8.72336 11.7086 8.65686 11.8103 8.62962C11.9119 8.60238 12.0202 8.61664 12.1114 8.66925C12.2025 8.72186 12.269 8.80852 12.2962 8.91016L12.7224 10.5002C12.7496 10.6019 12.7353 10.7101 12.6827 10.8013C12.6301 10.8924 12.5434 10.9589 12.4418 10.9861ZM25.4856 17.8691C25.5014 17.9279 25.5034 17.9895 25.4915 18.0493C25.4796 18.109 25.4541 18.1651 25.4171 18.2134C25.38 18.2617 25.3323 18.3008 25.2777 18.3278C25.2231 18.3547 25.163 18.3686 25.1021 18.3686C25.0148 18.3685 24.93 18.3396 24.8607 18.2865C24.7915 18.2333 24.7417 18.1588 24.7191 18.0744L24.293 16.4844C24.2657 16.3827 24.28 16.2744 24.3326 16.1833C24.3852 16.0922 24.4719 16.0257 24.5735 15.9984C24.6752 15.9712 24.7835 15.9855 24.8746 16.0381C24.9657 16.0907 25.0322 16.1773 25.0595 16.279L25.4856 17.8691ZM22.7884 19.1815L22.3623 20.7716C22.3397 20.8559 22.29 20.9305 22.2207 20.9837C22.1515 21.0368 22.0666 21.0657 21.9793 21.0658C21.9184 21.0658 21.8583 21.0518 21.8037 21.0249C21.7491 20.998 21.7014 20.9589 21.6644 20.9106C21.6273 20.8623 21.6018 20.8061 21.5899 20.7464C21.5781 20.6867 21.5801 20.6251 21.5959 20.5663L22.0219 18.9762C22.0786 18.7645 22.2965 18.6391 22.5078 18.6956C22.6095 18.7228 22.6961 18.7893 22.7488 18.8804C22.8014 18.9716 22.8156 19.0799 22.7884 19.1815ZM19.3702 19.9986C19.407 20.0354 19.4363 20.0792 19.4562 20.1273C19.4762 20.1754 19.4864 20.227 19.4864 20.2791C19.4864 20.3312 19.4762 20.3828 19.4562 20.4309C19.4363 20.4791 19.407 20.5228 19.3702 20.5596L18.2062 21.7236C18.1288 21.8011 18.0272 21.8399 17.9257 21.8399C17.8242 21.8399 17.7226 21.8011 17.6452 21.7236C17.6084 21.6868 17.5791 21.6431 17.5592 21.5949C17.5392 21.5468 17.529 21.4952 17.529 21.4431C17.529 21.391 17.5392 21.3394 17.5592 21.2913C17.5791 21.2432 17.6084 21.1994 17.6452 21.1626L18.8092 19.9986C18.846 19.9618 18.8897 19.9325 18.9379 19.9126C18.986 19.8927 19.0376 19.8824 19.0897 19.8824C19.1418 19.8824 19.1934 19.8927 19.2415 19.9126C19.2896 19.9325 19.3334 19.9618 19.3702 19.9986ZM16.0015 19.5582C16.0287 19.6599 16.0144 19.7681 15.9618 19.8593C15.9092 19.9504 15.8225 20.0169 15.7209 20.0441L14.1309 20.4703C14.0292 20.4974 13.9209 20.4831 13.8298 20.4305C13.7387 20.3779 13.6722 20.2913 13.6449 20.1897C13.6177 20.088 13.632 19.9798 13.6846 19.8886C13.7372 19.7975 13.8239 19.731 13.9255 19.7038L15.5156 19.2776C15.6172 19.2504 15.7255 19.2647 15.8166 19.3173C15.9077 19.3699 15.9742 19.4566 16.0015 19.5582ZM18.5077 2C18.4025 2 18.3016 2.0418 18.2271 2.11621C18.1527 2.19062 18.1109 2.29153 18.1109 2.39676V3.88847C16.1426 3.96743 14.2815 4.63398 12.7062 5.82818C11.337 6.86611 10.2607 8.27143 9.61062 9.85139L8.81466 8.23794V7.60198H9.13972C9.24494 7.60198 9.34586 7.56018 9.42027 7.48577C9.49468 7.41137 9.53648 7.31045 9.53648 7.20522V5.15726C9.53648 5.05203 9.49468 4.95111 9.42027 4.8767C9.34586 4.8023 9.24494 4.76049 9.13972 4.76049H5.04378C4.93855 4.76049 4.83764 4.8023 4.76323 4.8767C4.68882 4.95111 4.64702 5.05203 4.64702 5.15726V7.20517C4.64702 7.31039 4.68882 7.41131 4.76323 7.48572C4.83764 7.56013 4.93855 7.60193 5.04378 7.60193H5.36884V8.23788L2.04098 14.9837C2.01401 15.0383 1.99999 15.0983 2 15.1592V29.6032C2 29.7085 2.0418 29.8094 2.11621 29.8838C2.19062 29.9582 2.29153 30 2.39676 30H11.7867C11.892 30 11.9929 29.9582 12.0673 29.8838C12.1417 29.8094 12.1835 29.7085 12.1835 29.6032V20.7292C13.9253 22.248 16.1817 23.1041 18.5076 23.1041C23.6747 23.1041 27.9018 19.0057 28.1106 13.8891H29.6032C29.7085 13.8891 29.8094 13.8473 29.8838 13.7729C29.9582 13.6984 30 13.5975 30 13.4923C30 7.1554 24.8446 2 18.5077 2ZM5.44054 5.55402H8.74296V6.8084H5.44054V5.55402ZM11.39 29.2065H2.79352V15.2518L6.12144 8.50603C6.14841 8.45145 6.16243 8.39138 6.16242 8.33049V7.60198H8.02113V8.33049C8.02112 8.39138 8.03515 8.45145 8.06211 8.50603L11.39 15.2518V29.2065H11.39ZM18.5076 22.3106C16.0974 22.3106 13.858 21.3621 12.1835 19.637V15.1592C12.1835 15.0983 12.1695 15.0383 12.1425 14.9837L10.0965 10.8363C11.2043 7.3264 14.4449 4.85084 18.1109 4.6833V6.28882C18.1109 6.39405 18.1527 6.49496 18.2271 6.56937C18.3015 6.64378 18.4024 6.68558 18.5076 6.68558C22.2609 6.68558 25.3143 9.73905 25.3143 13.4922C25.3143 13.5975 25.3561 13.6984 25.4305 13.7728C25.5049 13.8472 25.6058 13.889 25.7111 13.889H27.3165C27.1083 18.5681 23.2371 22.3106 18.5076 22.3106ZM26.0976 13.0955C25.8974 9.21975 22.7803 6.10257 18.9045 5.90237V2.80078C24.4889 3.00545 28.9946 7.51107 29.1992 13.0955H26.0976ZM7.44362 17.9606C7.40946 17.8981 7.35911 17.8459 7.29786 17.8096C7.2366 17.7733 7.1667 17.7541 7.09549 17.7541C7.02428 17.7541 6.95438 17.7733 6.89312 17.8096C6.83187 17.8459 6.78152 17.8981 6.74736 17.9606C6.57517 18.2756 6.35445 18.6258 6.12082 18.9966C5.60503 19.815 5.02049 20.7428 4.73567 21.6511C4.38249 22.777 4.55752 23.7021 5.25599 24.4006C5.76317 24.9077 6.42933 25.1613 7.09543 25.1613C7.7616 25.1613 8.42776 24.9077 8.93493 24.4006C9.64207 23.6934 9.80718 22.74 9.42572 21.5668C9.12118 20.6301 8.53352 19.7084 8.01496 18.8952C7.79708 18.5534 7.59127 18.2306 7.44362 17.9606ZM8.3738 23.8394C8.03411 24.1792 7.58011 24.3663 7.09543 24.3663C6.61082 24.3663 6.15681 24.1792 5.81713 23.8394C4.78861 22.8109 5.61058 21.2948 6.79219 19.4196C6.89745 19.2525 7.00021 19.0894 7.09793 18.9306C7.18007 19.0614 7.26275 19.1918 7.34596 19.3218C8.52729 21.1746 9.42 22.7933 8.3738 23.8394Z" fill="#2B53BE"/>
</svg>
