<svg width="32" height="32" viewBox="0 0 32 32" fill="none" xmlns="http://www.w3.org/2000/svg">
<path d="M16.0009 6.62158C12.9889 6.62158 10.5469 9.09158 10.5469 12.1387C10.5469 15.1857 12.9889 17.6558 16.0009 17.6558C19.0131 17.6558 21.4549 15.1857 21.4549 12.1387C21.4517 9.09324 19.0117 6.62503 16.0009 6.62158ZM16.0009 16.5523C13.5913 16.5523 11.6377 14.5763 11.6377 12.1387C11.6377 9.70122 13.5913 7.725 16.0009 7.725C18.4107 7.725 20.3641 9.70122 20.3641 12.1387C20.3614 14.5753 18.4096 16.5496 16.0009 16.5523Z" fill="#2B53BE"/>
<path d="M23.6384 12.1385C23.6384 7.87266 20.2201 4.41455 16.0028 4.41455C11.7858 4.41455 8.36719 7.87266 8.36719 12.1385C8.36719 16.4042 11.7858 19.8624 16.0028 19.8624C20.2182 19.8578 23.6339 16.4024 23.6384 12.1385ZM16.0028 18.759C12.3881 18.759 9.45799 15.7949 9.45799 12.1385C9.45799 8.48202 12.3881 5.51797 16.0028 5.51797C19.6174 5.51797 22.5476 8.48202 22.5476 12.1385C22.5438 15.7933 19.6158 18.7552 16.0028 18.759Z" fill="#2B53BE"/>
<path d="M25.273 22.0693H22.8893C23.4393 21.6779 23.9557 21.2403 24.4331 20.7611C24.4528 20.7442 24.4709 20.7258 24.4876 20.7062C25.5729 19.5986 26.4391 18.2915 27.0397 16.8553C27.0639 16.8125 27.0823 16.7667 27.0943 16.719C27.6834 15.2778 27.9909 13.7349 28 12.1755V12.1386C28.001 10.5579 27.6951 8.99251 27.0996 7.53117L27.0959 7.52068C26.4973 6.05836 25.6229 4.72796 24.5215 3.60376C24.5084 3.58821 24.4945 3.57347 24.4796 3.55962C21.0624 0.0942033 15.9195 -0.950871 11.4444 0.911146H11.4396C9.99109 1.51633 8.67333 2.40185 7.56033 3.51797C7.54533 3.53038 7.53129 3.5439 7.5182 3.55845C4.09698 6.99932 3.06181 12.1861 4.89537 16.7C4.90765 16.7461 4.92599 16.7903 4.94991 16.8315C5.54147 18.2564 6.39462 19.555 7.46421 20.6585C7.49984 20.7063 7.54289 20.7481 7.59169 20.7821C8.06333 21.2529 8.57268 21.6834 9.11452 22.0692H6.72942C5.22425 22.0711 4.00426 23.3052 4.00242 24.8278V29.2415C4.00426 30.7643 5.22425 31.9981 6.72942 32H25.273C26.7784 31.9981 27.9984 30.7643 28 29.2415V24.8278C27.9984 23.3052 26.7784 22.0711 25.273 22.0692V22.0693ZM5.09322 26.483H26.9092V27.0347H5.09322V26.483ZM8.96078 20.5561L9.23348 20.4645C9.51954 20.3681 9.67457 20.0554 9.57913 19.766C9.48409 19.4764 9.17492 19.3199 8.88865 19.4161L8.06578 19.6919C7.37115 18.9427 6.78267 18.0995 6.31716 17.1866L6.5992 17.2066H6.63834C6.78267 17.2112 6.92294 17.1578 7.0284 17.058C7.13387 16.9582 7.19594 16.8202 7.20102 16.6743C7.2061 16.5283 7.15377 16.3862 7.0555 16.2792C6.95722 16.1721 6.82102 16.1089 6.67672 16.1032L5.81171 16.0409C5.44911 15.0794 5.22177 14.0711 5.13637 13.0456L5.39653 13.1776C5.52605 13.2429 5.67591 13.2535 5.81319 13.2072C5.95047 13.1608 6.06393 13.0612 6.12866 12.9303C6.19323 12.7993 6.20376 12.6477 6.15791 12.5089C6.11207 12.3701 6.01361 12.2554 5.88418 12.19L5.11026 11.8075C5.13738 10.7784 5.30735 9.75832 5.61517 8.77713L5.80667 9.00044C5.85365 9.05519 5.91083 9.10005 5.97495 9.13245C6.03907 9.16484 6.10887 9.18415 6.18036 9.18925C6.25186 9.19435 6.32365 9.18516 6.39163 9.16219C6.45961 9.13923 6.52245 9.10294 6.57657 9.0554C6.68584 8.95939 6.75295 8.82342 6.76314 8.67738C6.77333 8.53133 6.72576 8.38717 6.6309 8.2766L6.06369 7.61468C6.48122 6.67856 7.02563 5.80583 7.68121 5.02165L7.77072 5.29371C7.81845 5.43023 7.91725 5.54234 8.04587 5.60592C8.17448 5.6695 8.32263 5.67946 8.45843 5.63366C8.59423 5.58786 8.70684 5.48997 8.77201 5.36104C8.83718 5.23211 8.84971 5.08246 8.80691 4.94427L8.53421 4.11968C9.27349 3.41381 10.1063 2.8155 11.0088 2.342L10.9885 2.62834C10.9672 2.93199 11.1933 3.1957 11.4937 3.21749H11.5328C11.671 3.21788 11.8042 3.16516 11.9055 3.07C12.0067 2.97484 12.0685 2.84434 12.0782 2.70489L12.1395 1.8334C13.0884 1.46648 14.0837 1.23669 15.096 1.15079L14.9677 1.40968C14.9031 1.54065 14.8926 1.6922 14.9384 1.83101C14.9843 1.96982 15.0827 2.08453 15.2122 2.14994C15.2762 2.18234 15.346 2.20165 15.4175 2.20677C15.4889 2.21189 15.5607 2.20272 15.6286 2.17978C15.6966 2.15684 15.7594 2.12058 15.8135 2.07307C15.8676 2.02557 15.9119 1.96775 15.9439 1.90291L16.3284 1.12169C17.3459 1.14901 18.3544 1.32094 19.3245 1.63244L19.1064 1.82615C19.0046 1.92382 18.944 2.05742 18.9371 2.19915C18.9302 2.34089 18.9775 2.47986 19.0694 2.58717C19.1611 2.69441 19.2902 2.76179 19.4298 2.77532C19.5694 2.78886 19.7088 2.74751 19.819 2.65986L20.4736 2.08608C21.3991 2.50846 22.2618 3.05918 23.0371 3.72238L22.7687 3.81286C22.7006 3.83573 22.6376 3.87195 22.5834 3.91945C22.5292 3.96695 22.4848 4.0248 22.4527 4.08968C22.4206 4.15456 22.4014 4.22521 22.3963 4.29758C22.3913 4.36995 22.4003 4.44263 22.423 4.51146C22.518 4.80069 22.8273 4.95724 23.1132 4.8611L23.9282 4.58525C24.6264 5.33281 25.2181 6.1753 25.6861 7.08835L25.4029 7.06787C25.3041 7.05433 25.2035 7.06849 25.112 7.1088C25.0205 7.14911 24.9418 7.21402 24.8843 7.29648C24.8268 7.37893 24.7927 7.47577 24.7858 7.57644C24.779 7.67711 24.7995 7.77776 24.8453 7.86743C24.8909 7.95713 24.9601 8.03244 25.0451 8.08516C25.1302 8.13789 25.2279 8.16601 25.3276 8.16646L26.1893 8.22818C26.552 9.18898 26.7789 10.1967 26.8634 11.2216L26.6077 11.092C26.4782 11.0267 26.3284 11.016 26.1911 11.0624C26.0538 11.1087 25.9403 11.2084 25.8757 11.3393C25.8111 11.4703 25.8006 11.6218 25.8464 11.7607C25.8923 11.8995 25.9907 12.0142 26.1201 12.0796L26.8972 12.4724C26.8661 13.4989 26.6924 14.5159 26.3814 15.4936L26.196 15.2773C25.9984 15.0472 25.6538 15.0224 25.4264 15.2223C25.3723 15.2698 25.3279 15.3276 25.2959 15.3924C25.2639 15.4572 25.2448 15.5278 25.2397 15.6C25.2347 15.6723 25.2437 15.7449 25.2664 15.8136C25.2891 15.8823 25.3249 15.9459 25.3719 16.0006L25.9411 16.6627C25.5224 17.5994 24.978 18.4731 24.3231 19.2591L24.232 18.9833C24.2094 18.9144 24.1735 18.8508 24.1266 18.796C24.0796 18.7412 24.0224 18.6962 23.9583 18.6638C23.8941 18.6313 23.8243 18.6119 23.7528 18.6068C23.6812 18.6016 23.6094 18.6108 23.5414 18.6337C23.4733 18.6566 23.4104 18.6929 23.3562 18.7404C23.302 18.7879 23.2576 18.8457 23.2255 18.9106C23.1934 18.9755 23.1743 19.0461 23.1692 19.1185C23.1641 19.1909 23.1731 19.2635 23.1958 19.3324L23.4685 20.1651C22.6685 20.9358 21.7566 21.578 20.7644 22.0694H11.2433C10.4224 21.6646 9.65543 21.1561 8.96085 20.5562L8.96078 20.5561ZM6.72942 23.1727H7.48336L7.33208 23.478C7.26751 23.6089 7.25699 23.7605 7.30283 23.8993C7.34867 24.0381 7.44713 24.1528 7.57656 24.2182C7.64064 24.2506 7.7104 24.2699 7.78187 24.275C7.85333 24.2802 7.92509 24.271 7.99304 24.2481C8.061 24.2251 8.12382 24.1889 8.17792 24.1414C8.23203 24.0938 8.27634 24.036 8.30835 23.9712L8.70274 23.1727H10.2104L10.0591 23.478C9.99451 23.6089 9.98398 23.7605 10.0298 23.8993C10.0757 24.0381 10.1741 24.1528 10.3036 24.2182C10.3676 24.2506 10.4374 24.2699 10.5089 24.275C10.5803 24.2802 10.6521 24.271 10.72 24.2481C10.788 24.2251 10.8508 24.1889 10.9049 24.1414C10.959 24.0938 11.0033 24.036 11.0353 23.9712L11.4297 23.1727H12.9374L12.7861 23.478C12.7215 23.6089 12.711 23.7605 12.7568 23.8993C12.8027 24.0381 12.9011 24.1528 13.0306 24.2182C13.0946 24.2506 13.1644 24.2699 13.2359 24.275C13.3073 24.2802 13.3791 24.271 13.447 24.2481C13.515 24.2251 13.5778 24.1889 13.6319 24.1414C13.686 24.0938 13.7303 24.036 13.7623 23.9712L14.1567 23.1727H15.6644L15.5131 23.478C15.4485 23.6089 15.438 23.7605 15.4838 23.8993C15.5297 24.0381 15.6281 24.1528 15.7576 24.2182C15.8216 24.2506 15.8914 24.2699 15.9629 24.275C16.0343 24.2802 16.1061 24.271 16.174 24.2481C16.242 24.2251 16.3048 24.1889 16.3589 24.1414C16.413 24.0938 16.4573 24.036 16.4893 23.9712L16.8837 23.1727H18.3914L18.2401 23.478C18.1755 23.6089 18.165 23.7605 18.2108 23.8993C18.2567 24.0381 18.3551 24.1528 18.4845 24.2182C18.5486 24.2506 18.6184 24.2699 18.6899 24.275C18.7613 24.2802 18.8331 24.271 18.901 24.2481C18.969 24.2251 19.0318 24.1889 19.0859 24.1414C19.14 24.0938 19.1843 24.036 19.2163 23.9712L19.6107 23.1727H21.1184L20.9671 23.478C20.9025 23.6089 20.892 23.7605 20.9378 23.8993C20.9837 24.0381 21.0821 24.1528 21.2115 24.2182C21.2756 24.2506 21.3454 24.2699 21.4169 24.275C21.4883 24.2802 21.5601 24.271 21.628 24.2481C21.696 24.2251 21.7588 24.1889 21.8129 24.1414C21.867 24.0938 21.9113 24.036 21.9433 23.9712L22.3377 23.1727H23.8453L23.6941 23.478C23.6295 23.6089 23.619 23.7605 23.6648 23.8993C23.7107 24.0381 23.8091 24.1528 23.9385 24.2182C24.0026 24.2506 24.0724 24.2699 24.1439 24.275C24.2153 24.2802 24.2871 24.271 24.355 24.2481C24.423 24.2251 24.4858 24.1889 24.5399 24.1414C24.594 24.0938 24.6383 24.036 24.6703 23.9712L25.0647 23.1727H25.273C26.1769 23.1727 26.9092 23.9138 26.9092 24.8279V25.3796H5.09322V24.8279C5.09322 23.9138 5.82583 23.1727 6.72942 23.1727ZM25.273 30.8967H25.0647L24.6733 30.0985C24.6422 30.0321 24.5983 29.9727 24.5442 29.9237C24.4901 29.8747 24.4269 29.8371 24.3582 29.8132C24.2896 29.7892 24.2169 29.7793 24.1445 29.7841C24.072 29.7889 24.0013 29.8083 23.9363 29.8411C23.8714 29.8739 23.8135 29.9195 23.7662 29.9752C23.7189 30.031 23.6831 30.0956 23.6608 30.1655C23.6385 30.2354 23.6302 30.3091 23.6364 30.3823C23.6426 30.4555 23.6632 30.5267 23.697 30.5917L23.848 30.8967H22.3377L21.9463 30.0985C21.9152 30.0321 21.8713 29.9727 21.8172 29.9237C21.7631 29.8747 21.6999 29.8371 21.6312 29.8132C21.5626 29.7892 21.4899 29.7793 21.4175 29.7841C21.345 29.7889 21.2743 29.8083 21.2093 29.8411C21.1444 29.8739 21.0865 29.9195 21.0392 29.9752C20.9919 30.031 20.9561 30.0956 20.9338 30.1655C20.9115 30.2354 20.9032 30.3091 20.9094 30.3823C20.9157 30.4555 20.9362 30.5267 20.97 30.5917L21.121 30.8967H19.6107L19.2193 30.0985C19.1882 30.0321 19.1443 29.9727 19.0902 29.9237C19.0361 29.8747 18.9729 29.8371 18.9042 29.8132C18.8356 29.7892 18.7629 29.7793 18.6905 29.7841C18.618 29.7889 18.5473 29.8083 18.4823 29.8411C18.4174 29.8739 18.3595 29.9195 18.3122 29.9752C18.2649 30.031 18.2291 30.0956 18.2068 30.1655C18.1845 30.2354 18.1762 30.3091 18.1824 30.3823C18.1887 30.4555 18.2092 30.5267 18.243 30.5917L18.394 30.8967H16.8837L16.4923 30.0985C16.4612 30.0321 16.4173 29.9727 16.3632 29.9237C16.3091 29.8747 16.2459 29.8371 16.1772 29.8132C16.1086 29.7892 16.0359 29.7793 15.9635 29.7841C15.8911 29.7889 15.8203 29.8083 15.7553 29.8411C15.6904 29.8739 15.6325 29.9195 15.5852 29.9752C15.5379 30.031 15.5021 30.0956 15.4798 30.1655C15.4575 30.2354 15.4492 30.3091 15.4554 30.3823C15.4617 30.4555 15.4822 30.5267 15.516 30.5917L15.667 30.8967H14.1567L13.7653 30.0985C13.7342 30.0321 13.6903 29.9727 13.6362 29.9237C13.5821 29.8747 13.5189 29.8371 13.4502 29.8132C13.3816 29.7892 13.309 29.7793 13.2365 29.7841C13.1641 29.7889 13.0933 29.8083 13.0283 29.8411C12.9634 29.8739 12.9055 29.9195 12.8582 29.9752C12.8109 30.031 12.7751 30.0956 12.7528 30.1655C12.7305 30.2354 12.7222 30.3091 12.7284 30.3823C12.7347 30.4555 12.7553 30.5267 12.789 30.5917L12.94 30.8967H11.4297L11.0383 30.0985C11.0072 30.0321 10.9633 29.9727 10.9092 29.9237C10.8551 29.8747 10.7919 29.8371 10.7233 29.8132C10.6546 29.7892 10.582 29.7793 10.5095 29.7841C10.4371 29.7889 10.3663 29.8083 10.3013 29.8411C10.2364 29.8739 10.1785 29.9195 10.1312 29.9752C10.0839 30.031 10.0481 30.0956 10.0258 30.1655C10.0035 30.2354 9.99522 30.3091 10.0014 30.3823C10.0077 30.4555 10.0283 30.5267 10.062 30.5917L10.213 30.8967H8.70274L8.31128 30.0985C8.28017 30.0321 8.23628 29.9727 8.18219 29.9237C8.1281 29.8747 8.06488 29.8371 7.99625 29.8132C7.92762 29.7892 7.85496 29.7793 7.78251 29.7841C7.71006 29.7889 7.63928 29.8083 7.57433 29.8411C7.50938 29.8739 7.45155 29.9195 7.40423 29.9752C7.35692 30.031 7.32107 30.0956 7.29878 30.1655C7.27649 30.2354 7.26822 30.3091 7.27444 30.3823C7.28066 30.4555 7.30126 30.5267 7.33501 30.5917L7.48602 30.8967H6.72942C5.82583 30.8967 5.09322 30.1556 5.09322 29.2415V28.1381H26.9092V29.2415C26.9092 30.1556 26.1769 30.8967 25.273 30.8967Z" fill="#2B53BE"/>
</svg>
