<svg width="32" height="32" viewBox="0 0 32 32" fill="none" xmlns="http://www.w3.org/2000/svg">
<path d="M4.4649 26C4.30635 26 4.1609 25.8924 4.11581 25.7294L0.0140436 11.0157C-0.0325013 10.8483 0.0394978 10.6697 0.18786 10.5859L1.24894 9.98356C5.90852 7.34006 10.8706 6 16 6C21.1294 6 26.0923 7.34006 30.7511 9.98356L31.8122 10.5859C31.8842 10.6268 31.9406 10.6916 31.9721 10.7696C32.0037 10.8477 32.0086 10.9344 31.986 11.0157L27.8872 25.7257C27.8613 25.8188 27.8013 25.898 27.7197 25.9465C27.6382 25.995 27.5415 26.0091 27.4501 25.9858L26.0246 25.6218C22.8007 24.7982 19.4313 24.3812 16.0095 24.3812C12.5855 24.3812 9.21029 24.7997 5.97906 25.6256L4.55362 25.9895C4.52308 25.997 4.49399 26 4.4649 26ZM0.792943 11.0964L4.71799 25.1771L5.80306 24.8999C9.09175 24.0598 12.5259 23.6338 16.0088 23.6338C19.4894 23.6338 22.9185 24.059 26.1999 24.8969L27.285 25.1741L31.2071 11.0972L30.3999 10.639C25.8494 8.05605 21.0051 6.74738 16 6.74738C10.995 6.74738 6.1507 8.05605 1.60093 10.6383L0.792943 11.0964Z" fill="#2B53BE"/>
<path d="M5.52287 24.118C5.36433 24.118 5.21888 24.0104 5.17379 23.8475L1.81092 11.7825C1.76437 11.615 1.83637 11.4364 1.98473 11.3527C6.41595 8.83851 11.1315 7.56348 15.9998 7.56348C20.8689 7.56348 25.5844 8.83851 30.0149 11.3527C30.0869 11.3936 30.1433 11.4583 30.1749 11.5364C30.2065 11.6144 30.2113 11.7012 30.1888 11.7825L26.8281 23.8438C26.8023 23.9369 26.7423 24.0161 26.6607 24.0647C26.5792 24.1132 26.4824 24.1272 26.391 24.1038C23.0463 23.2496 19.5532 22.8168 16.0086 22.8168C12.461 22.8168 8.9621 23.2511 5.61087 24.1076C5.58178 24.115 5.55196 24.118 5.52287 24.118ZM2.58982 11.8647L5.77596 23.2967C9.08065 22.4828 12.5213 22.0695 16.0078 22.0695C19.4914 22.0695 22.927 22.4813 26.2244 23.2929L29.4091 11.8647C25.1612 9.50668 20.6507 8.31161 15.9991 8.31161C11.3483 8.31086 6.83849 9.50593 2.58982 11.8647Z" fill="#2B53BE"/>
<path d="M10.6468 23.1495C10.4461 23.1495 10.2832 22.9821 10.2832 22.7758V18.861C10.2832 18.6547 10.4461 18.4873 10.6468 18.4873C10.8476 18.4873 11.0105 18.6547 11.0105 18.861V22.7758C11.0105 22.9821 10.8476 23.1495 10.6468 23.1495Z" fill="#2B53BE"/>
<path d="M9.36893 21.2002C9.29911 21.2002 9.22929 21.18 9.16747 21.1374C9.0002 21.023 8.95584 20.7906 9.06711 20.6187L13.2903 14.1202C13.3168 14.0794 13.3509 14.0444 13.3905 14.0171C13.4302 13.9898 13.4747 13.9709 13.5215 13.9613C13.5683 13.9517 13.6165 13.9517 13.6633 13.9613C13.7101 13.9708 13.7547 13.9898 13.7943 14.0171C13.834 14.0443 13.8681 14.0793 13.8947 14.12C13.9212 14.1608 13.9396 14.2066 13.949 14.2547C13.9583 14.3028 13.9583 14.3523 13.949 14.4004C13.9397 14.4485 13.9212 14.4942 13.8947 14.535L9.67147 21.0335C9.63838 21.0848 9.59342 21.1269 9.54063 21.156C9.48783 21.1851 9.42883 21.2003 9.36893 21.2002ZM19.6844 22.9722C19.4837 22.9722 19.3208 22.8048 19.3208 22.5985V18.8609C19.3208 18.6546 19.4837 18.4872 19.6844 18.4872C19.8852 18.4872 20.0481 18.6546 20.0481 18.8609V22.5985C20.0481 22.8048 19.8852 22.9722 19.6844 22.9722Z" fill="#2B53BE"/>
<path d="M18.4076 21.2002C18.3385 21.2002 18.268 21.1801 18.2061 21.1375C18.0389 21.0231 17.9945 20.7907 18.1058 20.6188L22.329 14.1203C22.4403 13.9491 22.6664 13.9028 22.8337 14.0171C23.001 14.1315 23.0454 14.3639 22.9341 14.5351L18.7109 21.0336C18.6776 21.0849 18.6325 21.1269 18.5796 21.156C18.5267 21.1851 18.4676 21.2003 18.4076 21.2002ZM16.0004 10.1988C15.7996 10.1988 15.6367 10.0313 15.6367 9.82506V7.93717C15.6367 7.73089 15.7996 7.56348 16.0004 7.56348C16.2011 7.56348 16.364 7.73089 16.364 7.93717V9.82506C16.364 10.0313 16.2011 10.1988 16.0004 10.1988Z" fill="#2B53BE"/>
<path d="M17.8925 11.779H14.1078C13.907 11.779 13.7441 11.6116 13.7441 11.4053V9.82535C13.7441 9.61907 13.907 9.45166 14.1078 9.45166H17.8925C18.0932 9.45166 18.2561 9.61907 18.2561 9.82535V11.4053C18.2561 11.6116 18.0932 11.779 17.8925 11.779ZM14.4714 11.0316H17.5288V10.199H14.4714V11.0316Z" fill="#2B53BE"/>
</svg>
