<svg width="32" height="32" viewBox="0 0 32 32" fill="none" xmlns="http://www.w3.org/2000/svg">
<path d="M18.9256 25.304C17.9743 25.304 17.1996 24.499 17.1996 23.5105C17.1996 22.522 17.9743 21.717 18.9256 21.717C19.8769 21.717 20.6516 22.522 20.6516 23.5105C20.6511 23.986 20.4691 24.4419 20.1455 24.7781C19.8219 25.1143 19.3832 25.3035 18.9256 25.304ZM18.9256 22.606C18.6998 22.6138 18.4857 22.7125 18.3286 22.8813C18.1715 23.0501 18.0836 23.2757 18.0836 23.5105C18.0836 23.7453 18.1715 23.9709 18.3286 24.1397C18.4857 24.3085 18.6998 24.4072 18.9256 24.415C19.1515 24.4072 19.3656 24.3085 19.5227 24.1397C19.6798 23.9709 19.7676 23.7453 19.7676 23.5105C19.7676 23.2757 19.6798 23.0501 19.5227 22.8813C19.3656 22.7125 19.1515 22.6138 18.9256 22.606ZM25.9162 9.205C23.8236 6.873 21.0139 5.5445 17.9671 5.431V4.445C17.9671 3.7935 17.5466 3.245 16.9759 3.061V1.6C16.9759 0.72 16.2878 0 15.4361 0H12.3229C11.4712 0 10.7783 0.72 10.7783 1.6V3.062C10.4934 3.15307 10.244 3.33641 10.0666 3.58522C9.8891 3.83404 9.79284 4.1353 9.79186 4.445V5.589C6.82779 7.124 5.26925 11.479 5.62003 17.355L5.69124 18.3105C5.40026 18.2473 5.09939 18.2522 4.81048 18.325C4.52158 18.3977 4.25189 18.5364 4.02103 18.731C3.79017 18.9256 3.60393 19.1712 3.47584 19.45C3.34775 19.7287 3.28103 20.0336 3.28053 20.3425C3.28091 20.8935 3.49164 21.4218 3.86647 21.8114C4.24131 22.2011 4.74961 22.4203 5.27983 22.421C5.52764 22.421 5.76294 22.368 5.98235 22.282L6.14499 24.4595C4.37136 24.7155 3 26.2975 3 28.21C3 30.2995 4.63601 32 6.64735 32H23.6835C26.1279 32 28.1778 30.015 28.3462 27.48L28.9717 18.155C29.193 14.825 28.1104 11.645 25.9162 9.205ZM12.3229 0.89H15.4361C15.8162 0.89 16.1242 1.21 16.1242 1.6V2.99H11.6348V1.6C11.6348 1.21 11.9427 0.89 12.3229 0.89ZM11.1921 3.88H16.5669C16.8652 3.88 17.1106 4.135 17.1106 4.445V5.42H10.6484V4.445C10.6484 4.135 10.8889 3.88 11.1921 3.88ZM4.13559 20.343C4.13597 20.0278 4.25666 19.7257 4.47118 19.5029C4.6857 19.2801 4.97652 19.1548 5.27983 19.1545C5.58314 19.1548 5.87397 19.2801 6.08849 19.5029C6.303 19.7257 6.4237 20.0278 6.42408 20.343C6.42357 20.6582 6.30285 20.9603 6.08837 21.1832C5.8739 21.406 5.58315 21.5315 5.27983 21.532C4.97648 21.5316 4.68565 21.4062 4.47115 21.1833C4.25664 20.9604 4.13597 20.6582 4.13559 20.343ZM16.4697 31.111H6.64735C5.10757 31.111 3.85554 29.81 3.85554 28.21C3.85554 26.61 5.10757 25.308 6.64735 25.308C7.1029 25.3045 7.55224 25.4179 7.95555 25.638C8.35885 25.8581 8.70367 26.1783 8.95942 26.57C9.09415 26.775 9.3588 26.825 9.55127 26.685C9.74855 26.545 9.79667 26.27 9.66675 26.07C9.42224 25.6963 9.11344 25.3727 8.75588 25.1155C9.09232 24.6239 9.53724 24.2232 10.0534 23.947C10.5695 23.6708 11.1418 23.5271 11.7224 23.528C13.38 23.528 14.8019 24.673 15.2225 26.297C14.9765 26.4185 14.7487 26.5761 14.5459 26.765C14.3679 26.93 14.3534 27.21 14.5122 27.395C14.5894 27.481 14.6956 27.5327 14.8086 27.5392C14.9216 27.5458 15.0327 27.5066 15.1185 27.43C15.3302 27.23 15.5766 27.0735 15.8461 26.9885C17.1886 26.547 18.4979 27.617 18.4979 28.992C18.4979 30.1605 17.5884 31.111 16.4697 31.111ZM8.83287 15.3015C9.21781 15.3015 9.53058 15.6265 9.53058 16.0265C9.53058 16.4265 9.21781 16.7515 8.83287 16.7515C8.44792 16.7515 8.13516 16.4265 8.13516 16.0265C8.13516 15.6265 8.44792 15.3015 8.83287 15.3015ZM10.3861 16.0265C10.3855 15.7136 10.2975 15.4076 10.1326 15.1457C9.96771 14.8838 9.73315 14.6774 9.45744 14.5515C9.52673 14.004 9.61527 13.4825 9.73893 13.015C10.0421 11.895 11.0526 11.11 12.2026 11.11C13.3237 11.11 14.2957 11.835 14.6229 12.91C14.8346 13.61 15.1089 14.295 15.4361 14.95C16.7786 17.645 18.9535 19.75 21.7107 21.035C22.6105 21.455 23.1831 22.41 23.1831 23.445C23.1831 23.51 23.1831 23.57 23.1783 23.63L23.0099 26.075C22.9329 27.205 22.0235 28.09 20.936 28.09H19.2143C18.7967 26.741 17.4773 25.796 16.0395 26.0315C15.5092 24.04 13.7597 22.639 11.7224 22.639C11.0295 22.639 10.363 22.8095 9.76203 23.1105L9.37323 17.88C9.36505 17.764 9.36409 17.653 9.3588 17.5385C9.6588 17.4267 9.91837 17.2216 10.1022 16.951C10.286 16.6805 10.3851 16.3577 10.3861 16.0265ZM28.1152 18.09L27.4897 27.42C27.3549 29.49 25.6804 31.11 23.6835 31.11H18.5147C19.0525 30.5468 19.354 29.7854 19.3534 28.992L19.3524 28.975H20.936C22.471 28.975 23.7557 27.73 23.8664 26.14L24.03 23.69C24.131 22.215 23.3371 20.825 22.062 20.225C19.478 19.025 17.4522 17.055 16.1916 14.54C15.8898 13.9318 15.6386 13.2978 15.4409 12.645C14.9982 11.195 13.699 10.22 12.2026 10.22C10.6724 10.22 9.3203 11.27 8.91611 12.775C8.77897 13.2865 8.68178 13.847 8.6096 14.436C8.24119 14.4911 7.90413 14.682 7.65996 14.9739C7.41578 15.2658 7.28079 15.6392 7.27962 16.026C7.28011 16.3941 7.40159 16.7511 7.62394 17.0377C7.84629 17.3243 8.15618 17.5234 8.5023 17.602C8.50807 17.717 8.51048 17.828 8.51673 17.945L8.93921 23.645C8.57579 23.9377 8.25842 24.2874 7.9985 24.6815C7.67879 24.5514 7.34296 24.4689 7.00101 24.4365L6.79651 21.6815C7.10622 21.3096 7.27759 20.8348 7.27962 20.343C7.27962 19.7155 7.00534 19.159 6.58046 18.778L6.47172 17.295C6.1397 11.7 7.57362 7.605 10.3115 6.31H17.5437C20.5126 6.31 23.2649 7.555 25.2907 9.81C27.3213 12.07 28.3221 15.01 28.1152 18.09ZM19.5309 8.3C18.9343 8.17 18.3087 8.365 17.8757 8.825C17.4282 9.305 17.2502 9.975 17.3993 10.62C17.611 11.485 17.8901 12.265 18.2558 12.995C19.3962 15.28 21.3546 17.12 23.775 18.17C24.0059 18.27 24.2417 18.315 24.4775 18.315C24.8769 18.315 25.2666 18.18 25.5938 17.91C26.1231 17.475 26.3733 16.81 26.2723 16.125C26.0654 14.78 25.512 12.805 24.0492 11.035C22.9088 9.645 21.345 8.7 19.5309 8.3ZM25.0645 17.21C24.8913 17.355 24.6844 17.43 24.4775 17.43C24.3524 17.43 24.2273 17.4 24.107 17.35C21.8695 16.38 20.0651 14.685 19.0161 12.585C18.6793 11.915 18.4242 11.205 18.2318 10.41C18.15 10.065 18.2462 9.705 18.4868 9.45C18.6696 9.255 18.9054 9.15 19.1508 9.15C19.2182 9.15 19.2855 9.155 19.3529 9.17C20.9793 9.53 22.3795 10.375 23.3996 11.61C24.7277 13.225 25.2377 15.035 25.4254 16.265C25.4831 16.625 25.3484 16.98 25.0645 17.21Z" fill="#2B53BE"/>
</svg>
